<svg width="800" height="450" xmlns="http://www.w3.org/2000/svg">
<style>
  :root {
    --bg: #ffffff;
    --axis: #212121;
    --grid: #e0e0e0;
    --text: #212121;
    --c0: #007bff; --c1: #fd7e14; --c2: #28a745;
    --c3: #dc3545; --c4: #6f42c1; --c5: #17a2b8;
  }
  @media (prefers-color-scheme: dark) {
    :root {
      --bg: #292D35;
      --axis: #cdd2d5;
      --grid: #333b45;
      --text: #cdd2d5;
      --c0: #66b2ff; --c1: #ffb366; --c2: #71d18d;
      --c3: #ff8585; --c4: #b388ff; --c5: #7dd3fc;
    }
  }
  .text { fill: var(--text); font-family: -apple-system,BlinkMacSystemFont,Segoe UI,Helvetica,Arial,sans-serif; }
  .title { font-size: 20px; font-weight: bold; }
  .label { font-size: 14px; }
  .legend { font-size: 14px; }
  .axis { stroke: var(--axis); stroke-width: 2; }
  .grid { stroke: var(--grid); stroke-dasharray: 4,4; stroke-width: 1; }
  .tick { stroke: var(--axis); stroke-width: 2; }
</style>
<rect width="100%" height="100%" fill="var(--bg)"/>
<text x="400.0" y="25.0" text-anchor="middle" class="text title">Linear Integrator - step_after_force in Integrator (clumps on gpu - NVIDIA GeForce RTX 5070 Ti Laptop GPU)</text>
<line x1="80" y1="50" x2="80" y2="350" class="axis"/>
<line x1="80" y1="350" x2="650" y2="350" class="axis"/>
<text x="70" y="355.0" text-anchor="end" class="text label">0.00</text>
<line x1="80" y1="350.0" x2="650" y2="350.0" class="grid"/>
<line x1="75" y1="350.0" x2="80" y2="350.0" class="tick"/>
<text x="70" y="280.0" text-anchor="end" class="text label">0.39</text>
<line x1="80" y1="275.0" x2="650" y2="275.0" class="grid"/>
<line x1="75" y1="275.0" x2="80" y2="275.0" class="tick"/>
<text x="70" y="205.0" text-anchor="end" class="text label">0.78</text>
<line x1="80" y1="200.0" x2="650" y2="200.0" class="grid"/>
<line x1="75" y1="200.0" x2="80" y2="200.0" class="tick"/>
<text x="70" y="130.0" text-anchor="end" class="text label">1.16</text>
<line x1="80" y1="125.0" x2="650" y2="125.0" class="grid"/>
<line x1="75" y1="125.0" x2="80" y2="125.0" class="tick"/>
<text x="70" y="55.0" text-anchor="end" class="text label">1.55</text>
<line x1="80" y1="50.0" x2="650" y2="50.0" class="grid"/>
<line x1="75" y1="50.0" x2="80" y2="50.0" class="tick"/>
<g transform="translate(80.0,370) rotate(45)"><text x="0" y="0" class="text label">6086975</text></g>
<line x1="80.0" y1="350" x2="80.0" y2="355" class="tick"/>
<g transform="translate(365.0,370) rotate(45)"><text x="0" y="0" class="text label">cb7cb9f</text></g>
<line x1="365.0" y1="350" x2="365.0" y2="355" class="tick"/>
<g transform="translate(650.0,370) rotate(45)"><text x="0" y="0" class="text label">current</text></g>
<line x1="650.0" y1="350" x2="650.0" y2="355" class="tick"/>
<line x1="80.0" y1="181.04833381676195" x2="80.0" y2="100.4809162084614" stroke="var(--c0)" stroke-width="2"/>
<line x1="75.0" y1="181.04833381676195" x2="85.0" y2="181.04833381676195" stroke="var(--c0)" stroke-width="2"/>
<line x1="75.0" y1="100.4809162084614" x2="85.0" y2="100.4809162084614" stroke="var(--c0)" stroke-width="2"/>
<circle cx="80.0" cy="140.7646250126117" r="5" fill="var(--c0)"/>
<line x1="365.0" y1="255.11688178016917" x2="365.0" y2="204.1679908839771" stroke="var(--c0)" stroke-width="2"/>
<line x1="360.0" y1="255.11688178016917" x2="370.0" y2="255.11688178016917" stroke="var(--c0)" stroke-width="2"/>
<line x1="360.0" y1="204.1679908839771" x2="370.0" y2="204.1679908839771" stroke="var(--c0)" stroke-width="2"/>
<circle cx="365.0" cy="229.64243633207315" r="5" fill="var(--c0)"/>
<line x1="650.0" y1="255.11688178016917" x2="650.0" y2="204.1679908839771" stroke="var(--c0)" stroke-width="2"/>
<line x1="645.0" y1="255.11688178016917" x2="655.0" y2="255.11688178016917" stroke="var(--c0)" stroke-width="2"/>
<line x1="645.0" y1="204.1679908839771" x2="655.0" y2="204.1679908839771" stroke="var(--c0)" stroke-width="2"/>
<circle cx="650.0" cy="229.64243633207315" r="5" fill="var(--c0)"/>
<rect x="660" y="50" width="20" height="12" fill="var(--c0)"/>
<text x="690" y="61" class="text legend">euler</text>
<line x1="80.0" y1="210.2233784424789" x2="80.0" y2="169.64707206908218" stroke="var(--c1)" stroke-width="2"/>
<line x1="75.0" y1="210.2233784424789" x2="85.0" y2="210.2233784424789" stroke="var(--c1)" stroke-width="2"/>
<line x1="75.0" y1="169.64707206908218" x2="85.0" y2="169.64707206908218" stroke="var(--c1)" stroke-width="2"/>
<circle cx="80.0" cy="189.93522525578055" r="5" fill="var(--c1)"/>
<line x1="365.0" y1="261.52272158971425" x2="365.0" y2="236.29613674753944" stroke="var(--c1)" stroke-width="2"/>
<line x1="360.0" y1="261.52272158971425" x2="370.0" y2="261.52272158971425" stroke="var(--c1)" stroke-width="2"/>
<line x1="360.0" y1="236.29613674753944" x2="370.0" y2="236.29613674753944" stroke="var(--c1)" stroke-width="2"/>
<circle cx="365.0" cy="248.90942916862684" r="5" fill="var(--c1)"/>
<line x1="650.0" y1="261.52272158971425" x2="650.0" y2="236.29613674753944" stroke="var(--c1)" stroke-width="2"/>
<line x1="645.0" y1="261.52272158971425" x2="655.0" y2="261.52272158971425" stroke="var(--c1)" stroke-width="2"/>
<line x1="645.0" y1="236.29613674753944" x2="655.0" y2="236.29613674753944" stroke="var(--c1)" stroke-width="2"/>
<circle cx="650.0" cy="248.90942916862684" r="5" fill="var(--c1)"/>
<rect x="660" y="75" width="20" height="12" fill="var(--c1)"/>
<text x="690" y="86" class="text legend">langevin</text>
<line x1="80.0" y1="252.1867760313798" x2="80.0" y2="181.77428871973163" stroke="var(--c2)" stroke-width="2"/>
<line x1="75.0" y1="252.1867760313798" x2="85.0" y2="252.1867760313798" stroke="var(--c2)" stroke-width="2"/>
<line x1="75.0" y1="181.77428871973163" x2="85.0" y2="181.77428871973163" stroke="var(--c2)" stroke-width="2"/>
<circle cx="80.0" cy="216.9805323755557" r="5" fill="var(--c2)"/>
<line x1="365.0" y1="228.96256455623865" x2="365.0" y2="157.5399185432139" stroke="var(--c2)" stroke-width="2"/>
<line x1="360.0" y1="228.96256455623865" x2="370.0" y2="228.96256455623865" stroke="var(--c2)" stroke-width="2"/>
<line x1="360.0" y1="157.5399185432139" x2="370.0" y2="157.5399185432139" stroke="var(--c2)" stroke-width="2"/>
<circle cx="365.0" cy="193.25124154972627" r="5" fill="var(--c2)"/>
<line x1="650.0" y1="228.96256455623865" x2="650.0" y2="157.5399185432139" stroke="var(--c2)" stroke-width="2"/>
<line x1="645.0" y1="228.96256455623865" x2="655.0" y2="228.96256455623865" stroke="var(--c2)" stroke-width="2"/>
<line x1="645.0" y1="157.5399185432139" x2="655.0" y2="157.5399185432139" stroke="var(--c2)" stroke-width="2"/>
<circle cx="650.0" cy="193.25124154972627" r="5" fill="var(--c2)"/>
<rect x="660" y="100" width="20" height="12" fill="var(--c2)"/>
<text x="690" y="111" class="text legend">linearfire</text>
<line x1="80.0" y1="227.56617395012944" x2="80.0" y2="139.04509141685648" stroke="var(--c3)" stroke-width="2"/>
<line x1="75.0" y1="227.56617395012944" x2="85.0" y2="227.56617395012944" stroke="var(--c3)" stroke-width="2"/>
<line x1="75.0" y1="139.04509141685648" x2="85.0" y2="139.04509141685648" stroke="var(--c3)" stroke-width="2"/>
<circle cx="80.0" cy="183.30563268349295" r="5" fill="var(--c3)"/>
<line x1="365.0" y1="243.8485072563463" x2="365.0" y2="167.26232283792666" stroke="var(--c3)" stroke-width="2"/>
<line x1="360.0" y1="243.8485072563463" x2="370.0" y2="243.8485072563463" stroke="var(--c3)" stroke-width="2"/>
<line x1="360.0" y1="167.26232283792666" x2="370.0" y2="167.26232283792666" stroke="var(--c3)" stroke-width="2"/>
<circle cx="365.0" cy="205.55541504713648" r="5" fill="var(--c3)"/>
<line x1="650.0" y1="243.8485072563463" x2="650.0" y2="167.26232283792666" stroke="var(--c3)" stroke-width="2"/>
<line x1="645.0" y1="243.8485072563463" x2="655.0" y2="243.8485072563463" stroke="var(--c3)" stroke-width="2"/>
<line x1="645.0" y1="167.26232283792666" x2="655.0" y2="167.26232283792666" stroke="var(--c3)" stroke-width="2"/>
<circle cx="650.0" cy="205.55541504713648" r="5" fill="var(--c3)"/>
<rect x="660" y="125" width="20" height="12" fill="var(--c3)"/>
<text x="690" y="136" class="text legend">lineargradientdescent</text>
<line x1="80.0" y1="138.26500566143062" x2="80.0" y2="85.32304121102379" stroke="var(--c4)" stroke-width="2"/>
<line x1="75.0" y1="138.26500566143062" x2="85.0" y2="138.26500566143062" stroke="var(--c4)" stroke-width="2"/>
<line x1="75.0" y1="85.32304121102379" x2="85.0" y2="85.32304121102379" stroke="var(--c4)" stroke-width="2"/>
<circle cx="80.0" cy="111.7940234362272" r="5" fill="var(--c4)"/>
<line x1="365.0" y1="125.73993326575942" x2="365.0" y2="77.27272727272731" stroke="var(--c4)" stroke-width="2"/>
<line x1="360.0" y1="125.73993326575942" x2="370.0" y2="125.73993326575942" stroke="var(--c4)" stroke-width="2"/>
<line x1="360.0" y1="77.27272727272731" x2="370.0" y2="77.27272727272731" stroke="var(--c4)" stroke-width="2"/>
<circle cx="365.0" cy="101.50633026924336" r="5" fill="var(--c4)"/>
<line x1="650.0" y1="125.73993326575942" x2="650.0" y2="77.27272727272731" stroke="var(--c4)" stroke-width="2"/>
<line x1="645.0" y1="125.73993326575942" x2="655.0" y2="125.73993326575942" stroke="var(--c4)" stroke-width="2"/>
<line x1="645.0" y1="77.27272727272731" x2="655.0" y2="77.27272727272731" stroke="var(--c4)" stroke-width="2"/>
<circle cx="650.0" cy="101.50633026924336" r="5" fill="var(--c4)"/>
<rect x="660" y="150" width="20" height="12" fill="var(--c4)"/>
<text x="690" y="161" class="text legend">optax</text>
<line x1="80.0" y1="254.85388840622062" x2="80.0" y2="156.9671784203788" stroke="var(--c5)" stroke-width="2"/>
<line x1="75.0" y1="254.85388840622062" x2="85.0" y2="254.85388840622062" stroke="var(--c5)" stroke-width="2"/>
<line x1="75.0" y1="156.9671784203788" x2="85.0" y2="156.9671784203788" stroke="var(--c5)" stroke-width="2"/>
<circle cx="80.0" cy="205.9105334132997" r="5" fill="var(--c5)"/>
<line x1="365.0" y1="220.6870825267403" x2="365.0" y2="172.94138772140786" stroke="var(--c5)" stroke-width="2"/>
<line x1="360.0" y1="220.6870825267403" x2="370.0" y2="220.6870825267403" stroke="var(--c5)" stroke-width="2"/>
<line x1="360.0" y1="172.94138772140786" x2="370.0" y2="172.94138772140786" stroke="var(--c5)" stroke-width="2"/>
<circle cx="365.0" cy="196.8142351240741" r="5" fill="var(--c5)"/>
<line x1="650.0" y1="220.6870825267403" x2="650.0" y2="172.94138772140786" stroke="var(--c5)" stroke-width="2"/>
<line x1="645.0" y1="220.6870825267403" x2="655.0" y2="220.6870825267403" stroke="var(--c5)" stroke-width="2"/>
<line x1="645.0" y1="172.94138772140786" x2="655.0" y2="172.94138772140786" stroke="var(--c5)" stroke-width="2"/>
<circle cx="650.0" cy="196.8142351240741" r="5" fill="var(--c5)"/>
<rect x="660" y="175" width="20" height="12" fill="var(--c5)"/>
<text x="690" y="186" class="text legend">verlet</text>
<line x1="80.0" y1="187.42934051961305" x2="80.0" y2="115.06888792190446" stroke="var(--c0)" stroke-width="2"/>
<line x1="75.0" y1="187.42934051961305" x2="85.0" y2="187.42934051961305" stroke="var(--c0)" stroke-width="2"/>
<line x1="75.0" y1="115.06888792190446" x2="85.0" y2="115.06888792190446" stroke="var(--c0)" stroke-width="2"/>
<circle cx="80.0" cy="151.24911422075874" r="5" fill="var(--c0)"/>
<line x1="365.0" y1="204.65017562533475" x2="365.0" y2="159.84377515327748" stroke="var(--c0)" stroke-width="2"/>
<line x1="360.0" y1="204.65017562533475" x2="370.0" y2="204.65017562533475" stroke="var(--c0)" stroke-width="2"/>
<line x1="360.0" y1="159.84377515327748" x2="370.0" y2="159.84377515327748" stroke="var(--c0)" stroke-width="2"/>
<circle cx="365.0" cy="182.24697538930613" r="5" fill="var(--c0)"/>
<line x1="650.0" y1="204.65017562533475" x2="650.0" y2="159.84377515327748" stroke="var(--c0)" stroke-width="2"/>
<line x1="645.0" y1="204.65017562533475" x2="655.0" y2="204.65017562533475" stroke="var(--c0)" stroke-width="2"/>
<line x1="645.0" y1="159.84377515327748" x2="655.0" y2="159.84377515327748" stroke="var(--c0)" stroke-width="2"/>
<circle cx="650.0" cy="182.24697538930613" r="5" fill="var(--c0)"/>
<rect x="660" y="200" width="20" height="12" fill="var(--c0)"/>
<text x="690" y="211" class="text legend">verlet_rescaling</text>
</svg>