<svg width="800" height="450" xmlns="http://www.w3.org/2000/svg">
<style>
  :root {
    --bg: #ffffff;
    --axis: #212121;
    --grid: #e0e0e0;
    --text: #212121;
    --c0: #007bff; --c1: #fd7e14; --c2: #28a745;
    --c3: #dc3545; --c4: #6f42c1; --c5: #17a2b8;
  }
  @media (prefers-color-scheme: dark) {
    :root {
      --bg: #292D35;
      --axis: #cdd2d5;
      --grid: #333b45;
      --text: #cdd2d5;
      --c0: #66b2ff; --c1: #ffb366; --c2: #71d18d;
      --c3: #ff8585; --c4: #b388ff; --c5: #7dd3fc;
    }
  }
  .text { fill: var(--text); font-family: -apple-system,BlinkMacSystemFont,Segoe UI,Helvetica,Arial,sans-serif; }
  .title { font-size: 20px; font-weight: bold; }
  .label { font-size: 14px; }
  .legend { font-size: 14px; }
  .axis { stroke: var(--axis); stroke-width: 2; }
  .grid { stroke: var(--grid); stroke-dasharray: 4,4; stroke-width: 1; }
  .tick { stroke: var(--axis); stroke-width: 2; }
</style>
<rect width="100%" height="100%" fill="var(--bg)"/>
<text x="400.0" y="25.0" text-anchor="middle" class="text title">compute_force in Collider (clumps on gpu - NVIDIA GeForce RTX 3050 Laptop GPU)</text>
<line x1="80" y1="50" x2="80" y2="350" class="axis"/>
<line x1="80" y1="350" x2="650" y2="350" class="axis"/>
<text x="70" y="355.0" text-anchor="end" class="text label">0.00</text>
<line x1="80" y1="350.0" x2="650" y2="350.0" class="grid"/>
<line x1="75" y1="350.0" x2="80" y2="350.0" class="tick"/>
<text x="70" y="280.0" text-anchor="end" class="text label">124.65</text>
<line x1="80" y1="275.0" x2="650" y2="275.0" class="grid"/>
<line x1="75" y1="275.0" x2="80" y2="275.0" class="tick"/>
<text x="70" y="205.0" text-anchor="end" class="text label">249.30</text>
<line x1="80" y1="200.0" x2="650" y2="200.0" class="grid"/>
<line x1="75" y1="200.0" x2="80" y2="200.0" class="tick"/>
<text x="70" y="129.99999999999997" text-anchor="end" class="text label">373.95</text>
<line x1="80" y1="124.99999999999997" x2="650" y2="124.99999999999997" class="grid"/>
<line x1="75" y1="124.99999999999997" x2="80" y2="124.99999999999997" class="tick"/>
<text x="70" y="55.0" text-anchor="end" class="text label">498.60</text>
<line x1="80" y1="50.0" x2="650" y2="50.0" class="grid"/>
<line x1="75" y1="50.0" x2="80" y2="50.0" class="tick"/>
<g transform="translate(80.0,370) rotate(45)"><text x="0" y="0" class="text label">01c54b2</text></g>
<line x1="80.0" y1="350" x2="80.0" y2="355" class="tick"/>
<g transform="translate(650.0,370) rotate(45)"><text x="0" y="0" class="text label">current</text></g>
<line x1="650.0" y1="350" x2="650.0" y2="355" class="tick"/>
<line x1="80.0" y1="348.2500535443143" x2="80.0" y2="348.1411740040911" stroke="var(--c0)" stroke-width="2"/>
<line x1="75.0" y1="348.2500535443143" x2="85.0" y2="348.2500535443143" stroke="var(--c0)" stroke-width="2"/>
<line x1="75.0" y1="348.1411740040911" x2="85.0" y2="348.1411740040911" stroke="var(--c0)" stroke-width="2"/>
<circle cx="80.0" cy="348.1956137742027" r="5" fill="var(--c0)"/>
<line x1="650.0" y1="335.59830630195654" x2="650.0" y2="333.8295092018556" stroke="var(--c0)" stroke-width="2"/>
<line x1="645.0" y1="335.59830630195654" x2="655.0" y2="335.59830630195654" stroke="var(--c0)" stroke-width="2"/>
<line x1="645.0" y1="333.8295092018556" x2="655.0" y2="333.8295092018556" stroke="var(--c0)" stroke-width="2"/>
<circle cx="650.0" cy="334.7139077519061" r="5" fill="var(--c0)"/>
<rect x="660" y="50" width="20" height="12" fill="var(--c0)"/>
<text x="690" y="61" class="text legend">celllist</text>
<line x1="80.0" y1="348.7064439518833" x2="80.0" y2="348.5233659311234" stroke="var(--c1)" stroke-width="2"/>
<line x1="75.0" y1="348.7064439518833" x2="85.0" y2="348.7064439518833" stroke="var(--c1)" stroke-width="2"/>
<line x1="75.0" y1="348.5233659311234" x2="85.0" y2="348.5233659311234" stroke="var(--c1)" stroke-width="2"/>
<circle cx="80.0" cy="348.61490494150337" r="5" fill="var(--c1)"/>
<line x1="650.0" y1="312.78560092746227" x2="650.0" y2="311.4111476710253" stroke="var(--c1)" stroke-width="2"/>
<line x1="645.0" y1="312.78560092746227" x2="655.0" y2="312.78560092746227" stroke="var(--c1)" stroke-width="2"/>
<line x1="645.0" y1="311.4111476710253" x2="655.0" y2="311.4111476710253" stroke="var(--c1)" stroke-width="2"/>
<circle cx="650.0" cy="312.0983742992438" r="5" fill="var(--c1)"/>
<rect x="660" y="75" width="20" height="12" fill="var(--c1)"/>
<text x="690" y="86" class="text legend">naive</text>
<line x1="80.0" y1="346.9184367351767" x2="80.0" y2="346.86186125801333" stroke="var(--c2)" stroke-width="2"/>
<line x1="75.0" y1="346.9184367351767" x2="85.0" y2="346.9184367351767" stroke="var(--c2)" stroke-width="2"/>
<line x1="75.0" y1="346.86186125801333" x2="85.0" y2="346.86186125801333" stroke="var(--c2)" stroke-width="2"/>
<circle cx="80.0" cy="346.89014899659503" r="5" fill="var(--c2)"/>
<line x1="650.0" y1="87.7338336274147" x2="650.0" y2="77.27272727272731" stroke="var(--c2)" stroke-width="2"/>
<line x1="645.0" y1="87.7338336274147" x2="655.0" y2="87.7338336274147" stroke="var(--c2)" stroke-width="2"/>
<line x1="645.0" y1="77.27272727272731" x2="655.0" y2="77.27272727272731" stroke="var(--c2)" stroke-width="2"/>
<circle cx="650.0" cy="82.50328045007103" r="5" fill="var(--c2)"/>
<rect x="660" y="100" width="20" height="12" fill="var(--c2)"/>
<text x="690" y="111" class="text legend">neighborlist</text>
</svg>