<svg width="800" height="450" xmlns="http://www.w3.org/2000/svg">
<style>
  :root {
    --bg: #ffffff;
    --axis: #212121;
    --grid: #e0e0e0;
    --text: #212121;
    --c0: #007bff; --c1: #fd7e14; --c2: #28a745;
    --c3: #dc3545; --c4: #6f42c1; --c5: #17a2b8;
  }
  @media (prefers-color-scheme: dark) {
    :root {
      --bg: #292D35;
      --axis: #cdd2d5;
      --grid: #333b45;
      --text: #cdd2d5;
      --c0: #66b2ff; --c1: #ffb366; --c2: #71d18d;
      --c3: #ff8585; --c4: #b388ff; --c5: #7dd3fc;
    }
  }
  .text { fill: var(--text); font-family: -apple-system,BlinkMacSystemFont,Segoe UI,Helvetica,Arial,sans-serif; }
  .title { font-size: 20px; font-weight: bold; }
  .label { font-size: 14px; }
  .legend { font-size: 14px; }
  .axis { stroke: var(--axis); stroke-width: 2; }
  .grid { stroke: var(--grid); stroke-dasharray: 4,4; stroke-width: 1; }
  .tick { stroke: var(--axis); stroke-width: 2; }
</style>
<rect width="100%" height="100%" fill="var(--bg)"/>
<text x="400.0" y="25.0" text-anchor="middle" class="text title">Linear Integrator - step_before_force in Integrator (clumps on gpu - NVIDIA GeForce RTX 5070 Ti Laptop GPU)</text>
<line x1="80" y1="50" x2="80" y2="350" class="axis"/>
<line x1="80" y1="350" x2="650" y2="350" class="axis"/>
<text x="70" y="355.0" text-anchor="end" class="text label">0.00</text>
<line x1="80" y1="350.0" x2="650" y2="350.0" class="grid"/>
<line x1="75" y1="350.0" x2="80" y2="350.0" class="tick"/>
<text x="70" y="280.0" text-anchor="end" class="text label">0.36</text>
<line x1="80" y1="275.0" x2="650" y2="275.0" class="grid"/>
<line x1="75" y1="275.0" x2="80" y2="275.0" class="tick"/>
<text x="70" y="205.0" text-anchor="end" class="text label">0.73</text>
<line x1="80" y1="200.0" x2="650" y2="200.0" class="grid"/>
<line x1="75" y1="200.0" x2="80" y2="200.0" class="tick"/>
<text x="70" y="130.0" text-anchor="end" class="text label">1.09</text>
<line x1="80" y1="125.0" x2="650" y2="125.0" class="grid"/>
<line x1="75" y1="125.0" x2="80" y2="125.0" class="tick"/>
<text x="70" y="55.0" text-anchor="end" class="text label">1.46</text>
<line x1="80" y1="50.0" x2="650" y2="50.0" class="grid"/>
<line x1="75" y1="50.0" x2="80" y2="50.0" class="tick"/>
<g transform="translate(80.0,370) rotate(45)"><text x="0" y="0" class="text label">6086975</text></g>
<line x1="80.0" y1="350" x2="80.0" y2="355" class="tick"/>
<g transform="translate(365.0,370) rotate(45)"><text x="0" y="0" class="text label">cb7cb9f</text></g>
<line x1="365.0" y1="350" x2="365.0" y2="355" class="tick"/>
<g transform="translate(650.0,370) rotate(45)"><text x="0" y="0" class="text label">current</text></g>
<line x1="650.0" y1="350" x2="650.0" y2="355" class="tick"/>
<line x1="80.0" y1="232.2435707209953" x2="80.0" y2="155.47236041353648" stroke="var(--c0)" stroke-width="2"/>
<line x1="75.0" y1="232.2435707209953" x2="85.0" y2="232.2435707209953" stroke="var(--c0)" stroke-width="2"/>
<line x1="75.0" y1="155.47236041353648" x2="85.0" y2="155.47236041353648" stroke="var(--c0)" stroke-width="2"/>
<circle cx="80.0" cy="193.8579655672659" r="5" fill="var(--c0)"/>
<line x1="365.0" y1="206.53896072584797" x2="365.0" y2="149.26252046110352" stroke="var(--c0)" stroke-width="2"/>
<line x1="360.0" y1="206.53896072584797" x2="370.0" y2="206.53896072584797" stroke="var(--c0)" stroke-width="2"/>
<line x1="360.0" y1="149.26252046110352" x2="370.0" y2="149.26252046110352" stroke="var(--c0)" stroke-width="2"/>
<circle cx="365.0" cy="177.90074059347575" r="5" fill="var(--c0)"/>
<line x1="650.0" y1="206.53896072584797" x2="650.0" y2="149.26252046110352" stroke="var(--c0)" stroke-width="2"/>
<line x1="645.0" y1="206.53896072584797" x2="655.0" y2="206.53896072584797" stroke="var(--c0)" stroke-width="2"/>
<line x1="645.0" y1="149.26252046110352" x2="655.0" y2="149.26252046110352" stroke="var(--c0)" stroke-width="2"/>
<circle cx="650.0" cy="177.90074059347575" r="5" fill="var(--c0)"/>
<rect x="660" y="50" width="20" height="12" fill="var(--c0)"/>
<text x="690" y="61" class="text legend">euler</text>
<line x1="80.0" y1="195.33170236186862" x2="80.0" y2="138.83032992279954" stroke="var(--c1)" stroke-width="2"/>
<line x1="75.0" y1="195.33170236186862" x2="85.0" y2="195.33170236186862" stroke="var(--c1)" stroke-width="2"/>
<line x1="75.0" y1="138.83032992279954" x2="85.0" y2="138.83032992279954" stroke="var(--c1)" stroke-width="2"/>
<circle cx="80.0" cy="167.08101614233408" r="5" fill="var(--c1)"/>
<line x1="365.0" y1="234.77433450216398" x2="365.0" y2="168.7317272398128" stroke="var(--c1)" stroke-width="2"/>
<line x1="360.0" y1="234.77433450216398" x2="370.0" y2="234.77433450216398" stroke="var(--c1)" stroke-width="2"/>
<line x1="360.0" y1="168.7317272398128" x2="370.0" y2="168.7317272398128" stroke="var(--c1)" stroke-width="2"/>
<circle cx="365.0" cy="201.7530308709884" r="5" fill="var(--c1)"/>
<line x1="650.0" y1="234.77433450216398" x2="650.0" y2="168.7317272398128" stroke="var(--c1)" stroke-width="2"/>
<line x1="645.0" y1="234.77433450216398" x2="655.0" y2="234.77433450216398" stroke="var(--c1)" stroke-width="2"/>
<line x1="645.0" y1="168.7317272398128" x2="655.0" y2="168.7317272398128" stroke="var(--c1)" stroke-width="2"/>
<circle cx="650.0" cy="201.7530308709884" r="5" fill="var(--c1)"/>
<rect x="660" y="75" width="20" height="12" fill="var(--c1)"/>
<text x="690" y="86" class="text legend">langevin</text>
<line x1="80.0" y1="213.61459259033924" x2="80.0" y2="144.87272274030775" stroke="var(--c2)" stroke-width="2"/>
<line x1="75.0" y1="213.61459259033924" x2="85.0" y2="213.61459259033924" stroke="var(--c2)" stroke-width="2"/>
<line x1="75.0" y1="144.87272274030775" x2="85.0" y2="144.87272274030775" stroke="var(--c2)" stroke-width="2"/>
<circle cx="80.0" cy="179.2436576653235" r="5" fill="var(--c2)"/>
<line x1="365.0" y1="131.9821159669292" x2="365.0" y2="77.27272727272731" stroke="var(--c2)" stroke-width="2"/>
<line x1="360.0" y1="131.9821159669292" x2="370.0" y2="131.9821159669292" stroke="var(--c2)" stroke-width="2"/>
<line x1="360.0" y1="77.27272727272731" x2="370.0" y2="77.27272727272731" stroke="var(--c2)" stroke-width="2"/>
<circle cx="365.0" cy="104.62742161982828" r="5" fill="var(--c2)"/>
<line x1="650.0" y1="131.9821159669292" x2="650.0" y2="77.27272727272731" stroke="var(--c2)" stroke-width="2"/>
<line x1="645.0" y1="131.9821159669292" x2="655.0" y2="131.9821159669292" stroke="var(--c2)" stroke-width="2"/>
<line x1="645.0" y1="77.27272727272731" x2="655.0" y2="77.27272727272731" stroke="var(--c2)" stroke-width="2"/>
<circle cx="650.0" cy="104.62742161982828" r="5" fill="var(--c2)"/>
<rect x="660" y="100" width="20" height="12" fill="var(--c2)"/>
<text x="690" y="111" class="text legend">linearfire</text>
<line x1="80.0" y1="190.24553280697236" x2="80.0" y2="109.71062806878334" stroke="var(--c3)" stroke-width="2"/>
<line x1="75.0" y1="190.24553280697236" x2="85.0" y2="190.24553280697236" stroke="var(--c3)" stroke-width="2"/>
<line x1="75.0" y1="109.71062806878334" x2="85.0" y2="109.71062806878334" stroke="var(--c3)" stroke-width="2"/>
<circle cx="80.0" cy="149.97808043787785" r="5" fill="var(--c3)"/>
<line x1="365.0" y1="214.78446522651765" x2="365.0" y2="181.7299808194089" stroke="var(--c3)" stroke-width="2"/>
<line x1="360.0" y1="214.78446522651765" x2="370.0" y2="214.78446522651765" stroke="var(--c3)" stroke-width="2"/>
<line x1="360.0" y1="181.7299808194089" x2="370.0" y2="181.7299808194089" stroke="var(--c3)" stroke-width="2"/>
<circle cx="365.0" cy="198.25722302296327" r="5" fill="var(--c3)"/>
<line x1="650.0" y1="214.78446522651765" x2="650.0" y2="181.7299808194089" stroke="var(--c3)" stroke-width="2"/>
<line x1="645.0" y1="214.78446522651765" x2="655.0" y2="214.78446522651765" stroke="var(--c3)" stroke-width="2"/>
<line x1="645.0" y1="181.7299808194089" x2="655.0" y2="181.7299808194089" stroke="var(--c3)" stroke-width="2"/>
<circle cx="650.0" cy="198.25722302296327" r="5" fill="var(--c3)"/>
<rect x="660" y="125" width="20" height="12" fill="var(--c3)"/>
<text x="690" y="136" class="text legend">lineargradientdescent</text>
<line x1="80.0" y1="163.25784387251062" x2="80.0" y2="88.43710898974678" stroke="var(--c4)" stroke-width="2"/>
<line x1="75.0" y1="163.25784387251062" x2="85.0" y2="163.25784387251062" stroke="var(--c4)" stroke-width="2"/>
<line x1="75.0" y1="88.43710898974678" x2="85.0" y2="88.43710898974678" stroke="var(--c4)" stroke-width="2"/>
<circle cx="80.0" cy="125.84747643112871" r="5" fill="var(--c4)"/>
<line x1="365.0" y1="171.0406074786097" x2="365.0" y2="119.90357320608149" stroke="var(--c4)" stroke-width="2"/>
<line x1="360.0" y1="171.0406074786097" x2="370.0" y2="171.0406074786097" stroke="var(--c4)" stroke-width="2"/>
<line x1="360.0" y1="119.90357320608149" x2="370.0" y2="119.90357320608149" stroke="var(--c4)" stroke-width="2"/>
<circle cx="365.0" cy="145.47209034234564" r="5" fill="var(--c4)"/>
<line x1="650.0" y1="171.0406074786097" x2="650.0" y2="119.90357320608149" stroke="var(--c4)" stroke-width="2"/>
<line x1="645.0" y1="171.0406074786097" x2="655.0" y2="171.0406074786097" stroke="var(--c4)" stroke-width="2"/>
<line x1="645.0" y1="119.90357320608149" x2="655.0" y2="119.90357320608149" stroke="var(--c4)" stroke-width="2"/>
<circle cx="650.0" cy="145.47209034234564" r="5" fill="var(--c4)"/>
<rect x="660" y="150" width="20" height="12" fill="var(--c4)"/>
<text x="690" y="161" class="text legend">optax</text>
<line x1="80.0" y1="202.61502456535257" x2="80.0" y2="99.35487117574579" stroke="var(--c5)" stroke-width="2"/>
<line x1="75.0" y1="202.61502456535257" x2="85.0" y2="202.61502456535257" stroke="var(--c5)" stroke-width="2"/>
<line x1="75.0" y1="99.35487117574579" x2="85.0" y2="99.35487117574579" stroke="var(--c5)" stroke-width="2"/>
<circle cx="80.0" cy="150.98494787054918" r="5" fill="var(--c5)"/>
<line x1="365.0" y1="245.30864589800555" x2="365.0" y2="183.99256777840537" stroke="var(--c5)" stroke-width="2"/>
<line x1="360.0" y1="245.30864589800555" x2="370.0" y2="245.30864589800555" stroke="var(--c5)" stroke-width="2"/>
<line x1="360.0" y1="183.99256777840537" x2="370.0" y2="183.99256777840537" stroke="var(--c5)" stroke-width="2"/>
<circle cx="365.0" cy="214.65060683820548" r="5" fill="var(--c5)"/>
<line x1="650.0" y1="245.30864589800555" x2="650.0" y2="183.99256777840537" stroke="var(--c5)" stroke-width="2"/>
<line x1="645.0" y1="245.30864589800555" x2="655.0" y2="245.30864589800555" stroke="var(--c5)" stroke-width="2"/>
<line x1="645.0" y1="183.99256777840537" x2="655.0" y2="183.99256777840537" stroke="var(--c5)" stroke-width="2"/>
<circle cx="650.0" cy="214.65060683820548" r="5" fill="var(--c5)"/>
<rect x="660" y="175" width="20" height="12" fill="var(--c5)"/>
<text x="690" y="186" class="text legend">verlet</text>
<line x1="80.0" y1="214.43278933864713" x2="80.0" y2="116.42315655367909" stroke="var(--c0)" stroke-width="2"/>
<line x1="75.0" y1="214.43278933864713" x2="85.0" y2="214.43278933864713" stroke="var(--c0)" stroke-width="2"/>
<line x1="75.0" y1="116.42315655367909" x2="85.0" y2="116.42315655367909" stroke="var(--c0)" stroke-width="2"/>
<circle cx="80.0" cy="165.4279729461631" r="5" fill="var(--c0)"/>
<line x1="365.0" y1="237.2838708105945" x2="365.0" y2="193.11545104938617" stroke="var(--c0)" stroke-width="2"/>
<line x1="360.0" y1="237.2838708105945" x2="370.0" y2="237.2838708105945" stroke="var(--c0)" stroke-width="2"/>
<line x1="360.0" y1="193.11545104938617" x2="370.0" y2="193.11545104938617" stroke="var(--c0)" stroke-width="2"/>
<circle cx="365.0" cy="215.19966092999033" r="5" fill="var(--c0)"/>
<line x1="650.0" y1="237.2838708105945" x2="650.0" y2="193.11545104938617" stroke="var(--c0)" stroke-width="2"/>
<line x1="645.0" y1="237.2838708105945" x2="655.0" y2="237.2838708105945" stroke="var(--c0)" stroke-width="2"/>
<line x1="645.0" y1="193.11545104938617" x2="655.0" y2="193.11545104938617" stroke="var(--c0)" stroke-width="2"/>
<circle cx="650.0" cy="215.19966092999033" r="5" fill="var(--c0)"/>
<rect x="660" y="200" width="20" height="12" fill="var(--c0)"/>
<text x="690" y="211" class="text legend">verlet_rescaling</text>
</svg>