<svg width="800" height="450" xmlns="http://www.w3.org/2000/svg">
<style>
  :root {
    --bg: #ffffff;
    --axis: #212121;
    --grid: #e0e0e0;
    --text: #212121;
    --c0: #007bff; --c1: #fd7e14; --c2: #28a745;
    --c3: #dc3545; --c4: #6f42c1; --c5: #17a2b8;
  }
  @media (prefers-color-scheme: dark) {
    :root {
      --bg: #292D35;
      --axis: #cdd2d5;
      --grid: #333b45;
      --text: #cdd2d5;
      --c0: #66b2ff; --c1: #ffb366; --c2: #71d18d;
      --c3: #ff8585; --c4: #b388ff; --c5: #7dd3fc;
    }
  }
  .text { fill: var(--text); font-family: -apple-system,BlinkMacSystemFont,Segoe UI,Helvetica,Arial,sans-serif; }
  .title { font-size: 20px; font-weight: bold; }
  .label { font-size: 14px; }
  .legend { font-size: 14px; }
  .axis { stroke: var(--axis); stroke-width: 2; }
  .grid { stroke: var(--grid); stroke-dasharray: 4,4; stroke-width: 1; }
  .tick { stroke: var(--axis); stroke-width: 2; }
</style>
<rect width="100%" height="100%" fill="var(--bg)"/>
<text x="400.0" y="25.0" text-anchor="middle" class="text title">Rotation Integrator - step_before_force in Integrator (clumps on gpu - NVIDIA GeForce RTX 5070 Ti Laptop GPU)</text>
<line x1="80" y1="50" x2="80" y2="350" class="axis"/>
<line x1="80" y1="350" x2="650" y2="350" class="axis"/>
<text x="70" y="355.0" text-anchor="end" class="text label">0.00</text>
<line x1="80" y1="350.0" x2="650" y2="350.0" class="grid"/>
<line x1="75" y1="350.0" x2="80" y2="350.0" class="tick"/>
<text x="70" y="280.0" text-anchor="end" class="text label">0.42</text>
<line x1="80" y1="275.0" x2="650" y2="275.0" class="grid"/>
<line x1="75" y1="275.0" x2="80" y2="275.0" class="tick"/>
<text x="70" y="205.0" text-anchor="end" class="text label">0.83</text>
<line x1="80" y1="200.0" x2="650" y2="200.0" class="grid"/>
<line x1="75" y1="200.0" x2="80" y2="200.0" class="tick"/>
<text x="70" y="130.0" text-anchor="end" class="text label">1.25</text>
<line x1="80" y1="125.0" x2="650" y2="125.0" class="grid"/>
<line x1="75" y1="125.0" x2="80" y2="125.0" class="tick"/>
<text x="70" y="55.0" text-anchor="end" class="text label">1.66</text>
<line x1="80" y1="50.0" x2="650" y2="50.0" class="grid"/>
<line x1="75" y1="50.0" x2="80" y2="50.0" class="tick"/>
<g transform="translate(80.0,370) rotate(45)"><text x="0" y="0" class="text label">6086975</text></g>
<line x1="80.0" y1="350" x2="80.0" y2="355" class="tick"/>
<g transform="translate(650.0,370) rotate(45)"><text x="0" y="0" class="text label">current</text></g>
<line x1="650.0" y1="350" x2="650.0" y2="355" class="tick"/>
<line x1="80.0" y1="236.27061852872595" x2="80.0" y2="153.50903158721826" stroke="var(--c0)" stroke-width="2"/>
<line x1="75.0" y1="236.27061852872595" x2="85.0" y2="236.27061852872595" stroke="var(--c0)" stroke-width="2"/>
<line x1="75.0" y1="153.50903158721826" x2="85.0" y2="153.50903158721826" stroke="var(--c0)" stroke-width="2"/>
<circle cx="80.0" cy="194.8898250579721" r="5" fill="var(--c0)"/>
<line x1="650.0" y1="236.27061852872595" x2="650.0" y2="153.50903158721826" stroke="var(--c0)" stroke-width="2"/>
<line x1="645.0" y1="236.27061852872595" x2="655.0" y2="236.27061852872595" stroke="var(--c0)" stroke-width="2"/>
<line x1="645.0" y1="153.50903158721826" x2="655.0" y2="153.50903158721826" stroke="var(--c0)" stroke-width="2"/>
<circle cx="650.0" cy="194.8898250579721" r="5" fill="var(--c0)"/>
<rect x="660" y="50" width="20" height="12" fill="var(--c0)"/>
<text x="690" y="61" class="text legend"></text>
<line x1="80.0" y1="157.9888949298422" x2="80.0" y2="90.43474247597413" stroke="var(--c1)" stroke-width="2"/>
<line x1="75.0" y1="157.9888949298422" x2="85.0" y2="157.9888949298422" stroke="var(--c1)" stroke-width="2"/>
<line x1="75.0" y1="90.43474247597413" x2="85.0" y2="90.43474247597413" stroke="var(--c1)" stroke-width="2"/>
<circle cx="80.0" cy="124.21181870290815" r="5" fill="var(--c1)"/>
<line x1="650.0" y1="121.89104810081466" x2="650.0" y2="77.27272727272731" stroke="var(--c1)" stroke-width="2"/>
<line x1="645.0" y1="121.89104810081466" x2="655.0" y2="121.89104810081466" stroke="var(--c1)" stroke-width="2"/>
<line x1="645.0" y1="77.27272727272731" x2="655.0" y2="77.27272727272731" stroke="var(--c1)" stroke-width="2"/>
<circle cx="650.0" cy="99.58188768677095" r="5" fill="var(--c1)"/>
<rect x="660" y="75" width="20" height="12" fill="var(--c1)"/>
<text x="690" y="86" class="text legend">rotationfire</text>
<line x1="80.0" y1="244.9106366285323" x2="80.0" y2="183.31818316030908" stroke="var(--c2)" stroke-width="2"/>
<line x1="75.0" y1="244.9106366285323" x2="85.0" y2="244.9106366285323" stroke="var(--c2)" stroke-width="2"/>
<line x1="75.0" y1="183.31818316030908" x2="85.0" y2="183.31818316030908" stroke="var(--c2)" stroke-width="2"/>
<circle cx="80.0" cy="214.11440989442067" r="5" fill="var(--c2)"/>
<line x1="650.0" y1="233.8449496440149" x2="650.0" y2="190.26422901879434" stroke="var(--c2)" stroke-width="2"/>
<line x1="645.0" y1="233.8449496440149" x2="655.0" y2="233.8449496440149" stroke="var(--c2)" stroke-width="2"/>
<line x1="645.0" y1="190.26422901879434" x2="655.0" y2="190.26422901879434" stroke="var(--c2)" stroke-width="2"/>
<circle cx="650.0" cy="212.0545893314046" r="5" fill="var(--c2)"/>
<rect x="660" y="100" width="20" height="12" fill="var(--c2)"/>
<text x="690" y="111" class="text legend">rotationgradientdescent</text>
<line x1="650.0" y1="223.7514552206822" x2="650.0" y2="170.09019479334108" stroke="var(--c3)" stroke-width="2"/>
<line x1="645.0" y1="223.7514552206822" x2="655.0" y2="223.7514552206822" stroke="var(--c3)" stroke-width="2"/>
<line x1="645.0" y1="170.09019479334108" x2="655.0" y2="170.09019479334108" stroke="var(--c3)" stroke-width="2"/>
<circle cx="650.0" cy="196.92082500701164" r="5" fill="var(--c3)"/>
<rect x="660" y="125" width="20" height="12" fill="var(--c3)"/>
<text x="690" y="136" class="text legend">spiral</text>
<line x1="80.0" y1="156.59184926519575" x2="80.0" y2="97.6269700986337" stroke="var(--c4)" stroke-width="2"/>
<line x1="75.0" y1="156.59184926519575" x2="85.0" y2="156.59184926519575" stroke="var(--c4)" stroke-width="2"/>
<line x1="75.0" y1="97.6269700986337" x2="85.0" y2="97.6269700986337" stroke="var(--c4)" stroke-width="2"/>
<circle cx="80.0" cy="127.10940968191471" r="5" fill="var(--c4)"/>
<line x1="650.0" y1="181.99634602293153" x2="650.0" y2="90.9747907764862" stroke="var(--c4)" stroke-width="2"/>
<line x1="645.0" y1="181.99634602293153" x2="655.0" y2="181.99634602293153" stroke="var(--c4)" stroke-width="2"/>
<line x1="645.0" y1="90.9747907764862" x2="655.0" y2="90.9747907764862" stroke="var(--c4)" stroke-width="2"/>
<circle cx="650.0" cy="136.48556839970888" r="5" fill="var(--c4)"/>
<rect x="660" y="150" width="20" height="12" fill="var(--c4)"/>
<text x="690" y="161" class="text legend">verletspiral</text>
</svg>