<svg width="800" height="450" xmlns="http://www.w3.org/2000/svg">
<style>
  :root {
    --bg: #ffffff;
    --axis: #212121;
    --grid: #e0e0e0;
    --text: #212121;
    --c0: #007bff; --c1: #fd7e14; --c2: #28a745;
    --c3: #dc3545; --c4: #6f42c1; --c5: #17a2b8;
  }
  @media (prefers-color-scheme: dark) {
    :root {
      --bg: #292D35;
      --axis: #cdd2d5;
      --grid: #333b45;
      --text: #cdd2d5;
      --c0: #66b2ff; --c1: #ffb366; --c2: #71d18d;
      --c3: #ff8585; --c4: #b388ff; --c5: #7dd3fc;
    }
  }
  .text { fill: var(--text); font-family: -apple-system,BlinkMacSystemFont,Segoe UI,Helvetica,Arial,sans-serif; }
  .title { font-size: 20px; font-weight: bold; }
  .label { font-size: 14px; }
  .legend { font-size: 14px; }
  .axis { stroke: var(--axis); stroke-width: 2; }
  .grid { stroke: var(--grid); stroke-dasharray: 4,4; stroke-width: 1; }
  .tick { stroke: var(--axis); stroke-width: 2; }
</style>
<rect width="100%" height="100%" fill="var(--bg)"/>
<text x="400.0" y="25.0" text-anchor="middle" class="text title">displacement in Domain (clumps on gpu - NVIDIA GeForce RTX 3050 Laptop GPU)</text>
<line x1="80" y1="50" x2="80" y2="350" class="axis"/>
<line x1="80" y1="350" x2="650" y2="350" class="axis"/>
<text x="70" y="355.0" text-anchor="end" class="text label">0.00</text>
<line x1="80" y1="350.0" x2="650" y2="350.0" class="grid"/>
<line x1="75" y1="350.0" x2="80" y2="350.0" class="tick"/>
<text x="70" y="280.0" text-anchor="end" class="text label">0.26</text>
<line x1="80" y1="275.0" x2="650" y2="275.0" class="grid"/>
<line x1="75" y1="275.0" x2="80" y2="275.0" class="tick"/>
<text x="70" y="205.0" text-anchor="end" class="text label">0.52</text>
<line x1="80" y1="200.0" x2="650" y2="200.0" class="grid"/>
<line x1="75" y1="200.0" x2="80" y2="200.0" class="tick"/>
<text x="70" y="130.0" text-anchor="end" class="text label">0.78</text>
<line x1="80" y1="125.0" x2="650" y2="125.0" class="grid"/>
<line x1="75" y1="125.0" x2="80" y2="125.0" class="tick"/>
<text x="70" y="55.0" text-anchor="end" class="text label">1.05</text>
<line x1="80" y1="50.0" x2="650" y2="50.0" class="grid"/>
<line x1="75" y1="50.0" x2="80" y2="50.0" class="tick"/>
<g transform="translate(80.0,370) rotate(45)"><text x="0" y="0" class="text label">01c54b2</text></g>
<line x1="80.0" y1="350" x2="80.0" y2="355" class="tick"/>
<g transform="translate(650.0,370) rotate(45)"><text x="0" y="0" class="text label">current</text></g>
<line x1="650.0" y1="350" x2="650.0" y2="355" class="tick"/>
<line x1="80.0" y1="171.7522722275641" x2="80.0" y2="150.77360984816755" stroke="var(--c0)" stroke-width="2"/>
<line x1="75.0" y1="171.7522722275641" x2="85.0" y2="171.7522722275641" stroke="var(--c0)" stroke-width="2"/>
<line x1="75.0" y1="150.77360984816755" x2="85.0" y2="150.77360984816755" stroke="var(--c0)" stroke-width="2"/>
<circle cx="80.0" cy="161.26294103786586" r="5" fill="var(--c0)"/>
<line x1="650.0" y1="129.94238532146042" x2="650.0" y2="77.27272727272731" stroke="var(--c0)" stroke-width="2"/>
<line x1="645.0" y1="129.94238532146042" x2="655.0" y2="129.94238532146042" stroke="var(--c0)" stroke-width="2"/>
<line x1="645.0" y1="77.27272727272731" x2="655.0" y2="77.27272727272731" stroke="var(--c0)" stroke-width="2"/>
<circle cx="650.0" cy="103.60755629709385" r="5" fill="var(--c0)"/>
<rect x="660" y="50" width="20" height="12" fill="var(--c0)"/>
<text x="690" y="61" class="text legend">free</text>
<line x1="80.0" y1="205.3605971789112" x2="80.0" y2="186.3694526261589" stroke="var(--c1)" stroke-width="2"/>
<line x1="75.0" y1="205.3605971789112" x2="85.0" y2="205.3605971789112" stroke="var(--c1)" stroke-width="2"/>
<line x1="75.0" y1="186.3694526261589" x2="85.0" y2="186.3694526261589" stroke="var(--c1)" stroke-width="2"/>
<circle cx="80.0" cy="195.86502490253505" r="5" fill="var(--c1)"/>
<line x1="650.0" y1="139.6168023797174" x2="650.0" y2="95.8756520405642" stroke="var(--c1)" stroke-width="2"/>
<line x1="645.0" y1="139.6168023797174" x2="655.0" y2="139.6168023797174" stroke="var(--c1)" stroke-width="2"/>
<line x1="645.0" y1="95.8756520405642" x2="655.0" y2="95.8756520405642" stroke="var(--c1)" stroke-width="2"/>
<circle cx="650.0" cy="117.7462272101408" r="5" fill="var(--c1)"/>
<rect x="660" y="75" width="20" height="12" fill="var(--c1)"/>
<text x="690" y="86" class="text legend">periodic</text>
<line x1="80.0" y1="208.67942606041333" x2="80.0" y2="180.82109114674776" stroke="var(--c2)" stroke-width="2"/>
<line x1="75.0" y1="208.67942606041333" x2="85.0" y2="208.67942606041333" stroke="var(--c2)" stroke-width="2"/>
<line x1="75.0" y1="180.82109114674776" x2="85.0" y2="180.82109114674776" stroke="var(--c2)" stroke-width="2"/>
<circle cx="80.0" cy="194.75025860358056" r="5" fill="var(--c2)"/>
<line x1="650.0" y1="136.80452839365793" x2="650.0" y2="109.53152982986933" stroke="var(--c2)" stroke-width="2"/>
<line x1="645.0" y1="136.80452839365793" x2="655.0" y2="136.80452839365793" stroke="var(--c2)" stroke-width="2"/>
<line x1="645.0" y1="109.53152982986933" x2="655.0" y2="109.53152982986933" stroke="var(--c2)" stroke-width="2"/>
<circle cx="650.0" cy="123.16802911176362" r="5" fill="var(--c2)"/>
<rect x="660" y="100" width="20" height="12" fill="var(--c2)"/>
<text x="690" y="111" class="text legend">reflect</text>
<line x1="80.0" y1="177.48011476558773" x2="80.0" y2="119.67583647255029" stroke="var(--c3)" stroke-width="2"/>
<line x1="75.0" y1="177.48011476558773" x2="85.0" y2="177.48011476558773" stroke="var(--c3)" stroke-width="2"/>
<line x1="75.0" y1="119.67583647255029" x2="85.0" y2="119.67583647255029" stroke="var(--c3)" stroke-width="2"/>
<circle cx="80.0" cy="148.577975619069" r="5" fill="var(--c3)"/>
<line x1="650.0" y1="142.63055363781154" x2="650.0" y2="90.65320867402255" stroke="var(--c3)" stroke-width="2"/>
<line x1="645.0" y1="142.63055363781154" x2="655.0" y2="142.63055363781154" stroke="var(--c3)" stroke-width="2"/>
<line x1="645.0" y1="90.65320867402255" x2="655.0" y2="90.65320867402255" stroke="var(--c3)" stroke-width="2"/>
<circle cx="650.0" cy="116.64188115591702" r="5" fill="var(--c3)"/>
<rect x="660" y="125" width="20" height="12" fill="var(--c3)"/>
<text x="690" y="136" class="text legend">reflectsphere</text>
</svg>