<svg width="800" height="450" xmlns="http://www.w3.org/2000/svg">
<style>
  :root {
    --bg: #ffffff;
    --axis: #212121;
    --grid: #e0e0e0;
    --text: #212121;
    --c0: #007bff; --c1: #fd7e14; --c2: #28a745;
    --c3: #dc3545; --c4: #6f42c1; --c5: #17a2b8;
  }
  @media (prefers-color-scheme: dark) {
    :root {
      --bg: #292D35;
      --axis: #cdd2d5;
      --grid: #333b45;
      --text: #cdd2d5;
      --c0: #66b2ff; --c1: #ffb366; --c2: #71d18d;
      --c3: #ff8585; --c4: #b388ff; --c5: #7dd3fc;
    }
  }
  .text { fill: var(--text); font-family: -apple-system,BlinkMacSystemFont,Segoe UI,Helvetica,Arial,sans-serif; }
  .title { font-size: 20px; font-weight: bold; }
  .label { font-size: 14px; }
  .legend { font-size: 14px; }
  .axis { stroke: var(--axis); stroke-width: 2; }
  .grid { stroke: var(--grid); stroke-dasharray: 4,4; stroke-width: 1; }
  .tick { stroke: var(--axis); stroke-width: 2; }
</style>
<rect width="100%" height="100%" fill="var(--bg)"/>
<text x="400.0" y="25.0" text-anchor="middle" class="text title">displacement in Domain (clumps on gpu - NVIDIA GeForce RTX 5070 Ti Laptop GPU)</text>
<line x1="80" y1="50" x2="80" y2="350" class="axis"/>
<line x1="80" y1="350" x2="650" y2="350" class="axis"/>
<text x="70" y="355.0" text-anchor="end" class="text label">0.00</text>
<line x1="80" y1="350.0" x2="650" y2="350.0" class="grid"/>
<line x1="75" y1="350.0" x2="80" y2="350.0" class="tick"/>
<text x="70" y="280.0" text-anchor="end" class="text label">0.15</text>
<line x1="80" y1="275.0" x2="650" y2="275.0" class="grid"/>
<line x1="75" y1="275.0" x2="80" y2="275.0" class="tick"/>
<text x="70" y="205.0" text-anchor="end" class="text label">0.30</text>
<line x1="80" y1="200.0" x2="650" y2="200.0" class="grid"/>
<line x1="75" y1="200.0" x2="80" y2="200.0" class="tick"/>
<text x="70" y="130.0" text-anchor="end" class="text label">0.45</text>
<line x1="80" y1="125.0" x2="650" y2="125.0" class="grid"/>
<line x1="75" y1="125.0" x2="80" y2="125.0" class="tick"/>
<text x="70" y="55.0" text-anchor="end" class="text label">0.60</text>
<line x1="80" y1="50.0" x2="650" y2="50.0" class="grid"/>
<line x1="75" y1="50.0" x2="80" y2="50.0" class="tick"/>
<g transform="translate(80.0,370) rotate(45)"><text x="0" y="0" class="text label">6086975</text></g>
<line x1="80.0" y1="350" x2="80.0" y2="355" class="tick"/>
<g transform="translate(365.0,370) rotate(45)"><text x="0" y="0" class="text label">cb7cb9f</text></g>
<line x1="365.0" y1="350" x2="365.0" y2="355" class="tick"/>
<g transform="translate(650.0,370) rotate(45)"><text x="0" y="0" class="text label">current</text></g>
<line x1="650.0" y1="350" x2="650.0" y2="355" class="tick"/>
<line x1="80.0" y1="350.0" x2="80.0" y2="282.71727535589173" stroke="var(--c0)" stroke-width="2"/>
<line x1="75.0" y1="350.0" x2="85.0" y2="350.0" stroke="var(--c0)" stroke-width="2"/>
<line x1="75.0" y1="282.71727535589173" x2="85.0" y2="282.71727535589173" stroke="var(--c0)" stroke-width="2"/>
<circle cx="80.0" cy="318.10584852186906" r="5" fill="var(--c0)"/>
<line x1="365.0" y1="345.5713158462769" x2="365.0" y2="274.287100767995" stroke="var(--c0)" stroke-width="2"/>
<line x1="360.0" y1="345.5713158462769" x2="370.0" y2="345.5713158462769" stroke="var(--c0)" stroke-width="2"/>
<line x1="360.0" y1="274.287100767995" x2="370.0" y2="274.287100767995" stroke="var(--c0)" stroke-width="2"/>
<circle cx="365.0" cy="309.929208307136" r="5" fill="var(--c0)"/>
<line x1="650.0" y1="345.5713158462769" x2="650.0" y2="274.287100767995" stroke="var(--c0)" stroke-width="2"/>
<line x1="645.0" y1="345.5713158462769" x2="655.0" y2="345.5713158462769" stroke="var(--c0)" stroke-width="2"/>
<line x1="645.0" y1="274.287100767995" x2="655.0" y2="274.287100767995" stroke="var(--c0)" stroke-width="2"/>
<circle cx="650.0" cy="309.929208307136" r="5" fill="var(--c0)"/>
<rect x="660" y="50" width="20" height="12" fill="var(--c0)"/>
<text x="690" y="61" class="text legend">free</text>
<line x1="80.0" y1="338.75161663762134" x2="80.0" y2="290.0896929827547" stroke="var(--c1)" stroke-width="2"/>
<line x1="75.0" y1="338.75161663762134" x2="85.0" y2="338.75161663762134" stroke="var(--c1)" stroke-width="2"/>
<line x1="75.0" y1="290.0896929827547" x2="85.0" y2="290.0896929827547" stroke="var(--c1)" stroke-width="2"/>
<circle cx="80.0" cy="314.420654810188" r="5" fill="var(--c1)"/>
<line x1="365.0" y1="321.39086375189913" x2="365.0" y2="267.68386131465786" stroke="var(--c1)" stroke-width="2"/>
<line x1="360.0" y1="321.39086375189913" x2="370.0" y2="321.39086375189913" stroke="var(--c1)" stroke-width="2"/>
<line x1="360.0" y1="267.68386131465786" x2="370.0" y2="267.68386131465786" stroke="var(--c1)" stroke-width="2"/>
<circle cx="365.0" cy="294.5373625332785" r="5" fill="var(--c1)"/>
<line x1="650.0" y1="321.39086375189913" x2="650.0" y2="267.68386131465786" stroke="var(--c1)" stroke-width="2"/>
<line x1="645.0" y1="321.39086375189913" x2="655.0" y2="321.39086375189913" stroke="var(--c1)" stroke-width="2"/>
<line x1="645.0" y1="267.68386131465786" x2="655.0" y2="267.68386131465786" stroke="var(--c1)" stroke-width="2"/>
<circle cx="650.0" cy="294.5373625332785" r="5" fill="var(--c1)"/>
<rect x="660" y="75" width="20" height="12" fill="var(--c1)"/>
<text x="690" y="86" class="text legend">periodic</text>
<line x1="80.0" y1="277.4184493819236" x2="80.0" y2="109.41949069617044" stroke="var(--c2)" stroke-width="2"/>
<line x1="75.0" y1="277.4184493819236" x2="85.0" y2="277.4184493819236" stroke="var(--c2)" stroke-width="2"/>
<line x1="75.0" y1="109.41949069617044" x2="85.0" y2="109.41949069617044" stroke="var(--c2)" stroke-width="2"/>
<circle cx="80.0" cy="193.41897003904703" r="5" fill="var(--c2)"/>
<line x1="365.0" y1="350.0" x2="365.0" y2="207.71829562253615" stroke="var(--c2)" stroke-width="2"/>
<line x1="360.0" y1="350.0" x2="370.0" y2="350.0" stroke="var(--c2)" stroke-width="2"/>
<line x1="360.0" y1="207.71829562253615" x2="370.0" y2="207.71829562253615" stroke="var(--c2)" stroke-width="2"/>
<circle cx="365.0" cy="283.2705122024712" r="5" fill="var(--c2)"/>
<line x1="650.0" y1="350.0" x2="650.0" y2="207.71829562253615" stroke="var(--c2)" stroke-width="2"/>
<line x1="645.0" y1="350.0" x2="655.0" y2="350.0" stroke="var(--c2)" stroke-width="2"/>
<line x1="645.0" y1="207.71829562253615" x2="655.0" y2="207.71829562253615" stroke="var(--c2)" stroke-width="2"/>
<circle cx="650.0" cy="283.2705122024712" r="5" fill="var(--c2)"/>
<rect x="660" y="100" width="20" height="12" fill="var(--c2)"/>
<text x="690" y="111" class="text legend">reflect</text>
<line x1="80.0" y1="350.0" x2="80.0" y2="77.27272727272731" stroke="var(--c3)" stroke-width="2"/>
<line x1="75.0" y1="350.0" x2="85.0" y2="350.0" stroke="var(--c3)" stroke-width="2"/>
<line x1="75.0" y1="77.27272727272731" x2="85.0" y2="77.27272727272731" stroke="var(--c3)" stroke-width="2"/>
<circle cx="80.0" cy="237.10645472577568" r="5" fill="var(--c3)"/>
<line x1="365.0" y1="303.01263105424994" x2="365.0" y2="213.01391626097885" stroke="var(--c3)" stroke-width="2"/>
<line x1="360.0" y1="303.01263105424994" x2="370.0" y2="303.01263105424994" stroke="var(--c3)" stroke-width="2"/>
<line x1="360.0" y1="213.01391626097885" x2="370.0" y2="213.01391626097885" stroke="var(--c3)" stroke-width="2"/>
<circle cx="365.0" cy="258.0132736576144" r="5" fill="var(--c3)"/>
<line x1="650.0" y1="303.01263105424994" x2="650.0" y2="213.01391626097885" stroke="var(--c3)" stroke-width="2"/>
<line x1="645.0" y1="303.01263105424994" x2="655.0" y2="303.01263105424994" stroke="var(--c3)" stroke-width="2"/>
<line x1="645.0" y1="213.01391626097885" x2="655.0" y2="213.01391626097885" stroke="var(--c3)" stroke-width="2"/>
<circle cx="650.0" cy="258.0132736576144" r="5" fill="var(--c3)"/>
<rect x="660" y="125" width="20" height="12" fill="var(--c3)"/>
<text x="690" y="136" class="text legend">reflectsphere</text>
</svg>