<svg width="800" height="450" xmlns="http://www.w3.org/2000/svg">
<style>
  :root {
    --bg: #ffffff;
    --axis: #212121;
    --grid: #e0e0e0;
    --text: #212121;
    --c0: #007bff; --c1: #fd7e14; --c2: #28a745;
    --c3: #dc3545; --c4: #6f42c1; --c5: #17a2b8;
  }
  @media (prefers-color-scheme: dark) {
    :root {
      --bg: #292D35;
      --axis: #cdd2d5;
      --grid: #333b45;
      --text: #cdd2d5;
      --c0: #66b2ff; --c1: #ffb366; --c2: #71d18d;
      --c3: #ff8585; --c4: #b388ff; --c5: #7dd3fc;
    }
  }
  .text { fill: var(--text); font-family: -apple-system,BlinkMacSystemFont,Segoe UI,Helvetica,Arial,sans-serif; }
  .title { font-size: 20px; font-weight: bold; }
  .label { font-size: 14px; }
  .legend { font-size: 14px; }
  .axis { stroke: var(--axis); stroke-width: 2; }
  .grid { stroke: var(--grid); stroke-dasharray: 4,4; stroke-width: 1; }
  .tick { stroke: var(--axis); stroke-width: 2; }
</style>
<rect width="100%" height="100%" fill="var(--bg)"/>
<text x="400.0" y="25.0" text-anchor="middle" class="text title">apply in Domain (clumps on gpu - NVIDIA GeForce RTX 3050 Laptop GPU)</text>
<line x1="80" y1="50" x2="80" y2="350" class="axis"/>
<line x1="80" y1="350" x2="650" y2="350" class="axis"/>
<text x="70" y="355.0" text-anchor="end" class="text label">0.00</text>
<line x1="80" y1="350.0" x2="650" y2="350.0" class="grid"/>
<line x1="75" y1="350.0" x2="80" y2="350.0" class="tick"/>
<text x="70" y="280.0" text-anchor="end" class="text label">3.40</text>
<line x1="80" y1="275.0" x2="650" y2="275.0" class="grid"/>
<line x1="75" y1="275.0" x2="80" y2="275.0" class="tick"/>
<text x="70" y="205.0" text-anchor="end" class="text label">6.81</text>
<line x1="80" y1="200.0" x2="650" y2="200.0" class="grid"/>
<line x1="75" y1="200.0" x2="80" y2="200.0" class="tick"/>
<text x="70" y="130.0" text-anchor="end" class="text label">10.21</text>
<line x1="80" y1="125.0" x2="650" y2="125.0" class="grid"/>
<line x1="75" y1="125.0" x2="80" y2="125.0" class="tick"/>
<text x="70" y="55.0" text-anchor="end" class="text label">13.61</text>
<line x1="80" y1="50.0" x2="650" y2="50.0" class="grid"/>
<line x1="75" y1="50.0" x2="80" y2="50.0" class="tick"/>
<g transform="translate(80.0,370) rotate(45)"><text x="0" y="0" class="text label">01c54b2</text></g>
<line x1="80.0" y1="350" x2="80.0" y2="355" class="tick"/>
<g transform="translate(650.0,370) rotate(45)"><text x="0" y="0" class="text label">current</text></g>
<line x1="650.0" y1="350" x2="650.0" y2="355" class="tick"/>
<line x1="80.0" y1="303.58208517201894" x2="80.0" y2="300.8029323252923" stroke="var(--c0)" stroke-width="2"/>
<line x1="75.0" y1="303.58208517201894" x2="85.0" y2="303.58208517201894" stroke="var(--c0)" stroke-width="2"/>
<line x1="75.0" y1="300.8029323252923" x2="85.0" y2="300.8029323252923" stroke="var(--c0)" stroke-width="2"/>
<circle cx="80.0" cy="302.1925087486556" r="5" fill="var(--c0)"/>
<line x1="650.0" y1="234.92611961457797" x2="650.0" y2="232.08873180899877" stroke="var(--c0)" stroke-width="2"/>
<line x1="645.0" y1="234.92611961457797" x2="655.0" y2="234.92611961457797" stroke="var(--c0)" stroke-width="2"/>
<line x1="645.0" y1="232.08873180899877" x2="655.0" y2="232.08873180899877" stroke="var(--c0)" stroke-width="2"/>
<circle cx="650.0" cy="233.50742571178836" r="5" fill="var(--c0)"/>
<rect x="660" y="50" width="20" height="12" fill="var(--c0)"/>
<text x="690" y="61" class="text legend">free</text>
<line x1="80.0" y1="303.169252769236" x2="80.0" y2="300.2408869452569" stroke="var(--c1)" stroke-width="2"/>
<line x1="75.0" y1="303.169252769236" x2="85.0" y2="303.169252769236" stroke="var(--c1)" stroke-width="2"/>
<line x1="75.0" y1="300.2408869452569" x2="85.0" y2="300.2408869452569" stroke="var(--c1)" stroke-width="2"/>
<circle cx="80.0" cy="301.70506985724643" r="5" fill="var(--c1)"/>
<line x1="650.0" y1="248.28169424273733" x2="650.0" y2="243.77424651343316" stroke="var(--c1)" stroke-width="2"/>
<line x1="645.0" y1="248.28169424273733" x2="655.0" y2="248.28169424273733" stroke="var(--c1)" stroke-width="2"/>
<line x1="645.0" y1="243.77424651343316" x2="655.0" y2="243.77424651343316" stroke="var(--c1)" stroke-width="2"/>
<circle cx="650.0" cy="246.02797037808523" r="5" fill="var(--c1)"/>
<rect x="660" y="75" width="20" height="12" fill="var(--c1)"/>
<text x="690" y="86" class="text legend">periodic</text>
<line x1="80.0" y1="302.4580371870645" x2="80.0" y2="289.63141477737327" stroke="var(--c2)" stroke-width="2"/>
<line x1="75.0" y1="302.4580371870645" x2="85.0" y2="302.4580371870645" stroke="var(--c2)" stroke-width="2"/>
<line x1="75.0" y1="289.63141477737327" x2="85.0" y2="289.63141477737327" stroke="var(--c2)" stroke-width="2"/>
<circle cx="80.0" cy="296.0447259822189" r="5" fill="var(--c2)"/>
<line x1="650.0" y1="81.39722938157053" x2="650.0" y2="77.27272727272731" stroke="var(--c2)" stroke-width="2"/>
<line x1="645.0" y1="81.39722938157053" x2="655.0" y2="81.39722938157053" stroke="var(--c2)" stroke-width="2"/>
<line x1="645.0" y1="77.27272727272731" x2="655.0" y2="77.27272727272731" stroke="var(--c2)" stroke-width="2"/>
<circle cx="650.0" cy="79.33497832714892" r="5" fill="var(--c2)"/>
<rect x="660" y="100" width="20" height="12" fill="var(--c2)"/>
<text x="690" y="111" class="text legend">reflect</text>
<line x1="80.0" y1="303.5423385761665" x2="80.0" y2="299.3137579156619" stroke="var(--c3)" stroke-width="2"/>
<line x1="75.0" y1="303.5423385761665" x2="85.0" y2="303.5423385761665" stroke="var(--c3)" stroke-width="2"/>
<line x1="75.0" y1="299.3137579156619" x2="85.0" y2="299.3137579156619" stroke="var(--c3)" stroke-width="2"/>
<circle cx="80.0" cy="301.4280482459142" r="5" fill="var(--c3)"/>
<line x1="650.0" y1="255.39058092109934" x2="650.0" y2="249.3648443530295" stroke="var(--c3)" stroke-width="2"/>
<line x1="645.0" y1="255.39058092109934" x2="655.0" y2="255.39058092109934" stroke="var(--c3)" stroke-width="2"/>
<line x1="645.0" y1="249.3648443530295" x2="655.0" y2="249.3648443530295" stroke="var(--c3)" stroke-width="2"/>
<circle cx="650.0" cy="252.37771263706443" r="5" fill="var(--c3)"/>
<rect x="660" y="125" width="20" height="12" fill="var(--c3)"/>
<text x="690" y="136" class="text legend">reflectsphere</text>
</svg>