<svg width="800" height="450" xmlns="http://www.w3.org/2000/svg">
<style>
  :root {
    --bg: #ffffff;
    --axis: #212121;
    --grid: #e0e0e0;
    --text: #212121;
    --c0: #007bff; --c1: #fd7e14; --c2: #28a745;
    --c3: #dc3545; --c4: #6f42c1; --c5: #17a2b8;
  }
  @media (prefers-color-scheme: dark) {
    :root {
      --bg: #292D35;
      --axis: #cdd2d5;
      --grid: #333b45;
      --text: #cdd2d5;
      --c0: #66b2ff; --c1: #ffb366; --c2: #71d18d;
      --c3: #ff8585; --c4: #b388ff; --c5: #7dd3fc;
    }
  }
  .text { fill: var(--text); font-family: -apple-system,BlinkMacSystemFont,Segoe UI,Helvetica,Arial,sans-serif; }
  .title { font-size: 20px; font-weight: bold; }
  .label { font-size: 14px; }
  .legend { font-size: 14px; }
  .axis { stroke: var(--axis); stroke-width: 2; }
  .grid { stroke: var(--grid); stroke-dasharray: 4,4; stroke-width: 1; }
  .tick { stroke: var(--axis); stroke-width: 2; }
</style>
<rect width="100%" height="100%" fill="var(--bg)"/>
<text x="400.0" y="25.0" text-anchor="middle" class="text title">shift in Domain (deformable on gpu - NVIDIA GeForce RTX 3050 Laptop GPU)</text>
<line x1="80" y1="50" x2="80" y2="350" class="axis"/>
<line x1="80" y1="350" x2="650" y2="350" class="axis"/>
<text x="70" y="355.0" text-anchor="end" class="text label">0.00</text>
<line x1="80" y1="350.0" x2="650" y2="350.0" class="grid"/>
<line x1="75" y1="350.0" x2="80" y2="350.0" class="tick"/>
<text x="70" y="280.0" text-anchor="end" class="text label">1.34</text>
<line x1="80" y1="275.0" x2="650" y2="275.0" class="grid"/>
<line x1="75" y1="275.0" x2="80" y2="275.0" class="tick"/>
<text x="70" y="205.0" text-anchor="end" class="text label">2.69</text>
<line x1="80" y1="200.0" x2="650" y2="200.0" class="grid"/>
<line x1="75" y1="200.0" x2="80" y2="200.0" class="tick"/>
<text x="70" y="130.00000000000003" text-anchor="end" class="text label">4.03</text>
<line x1="80" y1="125.00000000000003" x2="650" y2="125.00000000000003" class="grid"/>
<line x1="75" y1="125.00000000000003" x2="80" y2="125.00000000000003" class="tick"/>
<text x="70" y="55.0" text-anchor="end" class="text label">5.38</text>
<line x1="80" y1="50.0" x2="650" y2="50.0" class="grid"/>
<line x1="75" y1="50.0" x2="80" y2="50.0" class="tick"/>
<g transform="translate(80.0,370) rotate(45)"><text x="0" y="0" class="text label">01c54b2</text></g>
<line x1="80.0" y1="350" x2="80.0" y2="355" class="tick"/>
<g transform="translate(650.0,370) rotate(45)"><text x="0" y="0" class="text label">current</text></g>
<line x1="650.0" y1="350" x2="650.0" y2="355" class="tick"/>
<line x1="80.0" y1="230.1757493596174" x2="80.0" y2="199.6677147981267" stroke="var(--c0)" stroke-width="2"/>
<line x1="75.0" y1="230.1757493596174" x2="85.0" y2="230.1757493596174" stroke="var(--c0)" stroke-width="2"/>
<line x1="75.0" y1="199.6677147981267" x2="85.0" y2="199.6677147981267" stroke="var(--c0)" stroke-width="2"/>
<circle cx="80.0" cy="214.92173207887205" r="5" fill="var(--c0)"/>
<line x1="650.0" y1="104.42376244094154" x2="650.0" y2="94.4613530200501" stroke="var(--c0)" stroke-width="2"/>
<line x1="645.0" y1="104.42376244094154" x2="655.0" y2="104.42376244094154" stroke="var(--c0)" stroke-width="2"/>
<line x1="645.0" y1="94.4613530200501" x2="655.0" y2="94.4613530200501" stroke="var(--c0)" stroke-width="2"/>
<circle cx="650.0" cy="99.44255773049582" r="5" fill="var(--c0)"/>
<rect x="660" y="50" width="20" height="12" fill="var(--c0)"/>
<text x="690" y="61" class="text legend">free</text>
<line x1="80.0" y1="232.11722909506955" x2="80.0" y2="228.13327916612477" stroke="var(--c1)" stroke-width="2"/>
<line x1="75.0" y1="232.11722909506955" x2="85.0" y2="232.11722909506955" stroke="var(--c1)" stroke-width="2"/>
<line x1="75.0" y1="228.13327916612477" x2="85.0" y2="228.13327916612477" stroke="var(--c1)" stroke-width="2"/>
<circle cx="80.0" cy="230.12525413059717" r="5" fill="var(--c1)"/>
<line x1="650.0" y1="94.6471886329793" x2="650.0" y2="77.27272727272731" stroke="var(--c1)" stroke-width="2"/>
<line x1="645.0" y1="94.6471886329793" x2="655.0" y2="94.6471886329793" stroke="var(--c1)" stroke-width="2"/>
<line x1="645.0" y1="77.27272727272731" x2="655.0" y2="77.27272727272731" stroke="var(--c1)" stroke-width="2"/>
<circle cx="650.0" cy="85.95995795285324" r="5" fill="var(--c1)"/>
<rect x="660" y="75" width="20" height="12" fill="var(--c1)"/>
<text x="690" y="86" class="text legend">periodic</text>
<line x1="80.0" y1="229.45308935024042" x2="80.0" y2="222.0422488465952" stroke="var(--c2)" stroke-width="2"/>
<line x1="75.0" y1="229.45308935024042" x2="85.0" y2="229.45308935024042" stroke="var(--c2)" stroke-width="2"/>
<line x1="75.0" y1="222.0422488465952" x2="85.0" y2="222.0422488465952" stroke="var(--c2)" stroke-width="2"/>
<circle cx="80.0" cy="225.74766909841782" r="5" fill="var(--c2)"/>
<line x1="650.0" y1="118.25339280405575" x2="650.0" y2="97.25846855481163" stroke="var(--c2)" stroke-width="2"/>
<line x1="645.0" y1="118.25339280405575" x2="655.0" y2="118.25339280405575" stroke="var(--c2)" stroke-width="2"/>
<line x1="645.0" y1="97.25846855481163" x2="655.0" y2="97.25846855481163" stroke="var(--c2)" stroke-width="2"/>
<circle cx="650.0" cy="107.75593067943367" r="5" fill="var(--c2)"/>
<rect x="660" y="100" width="20" height="12" fill="var(--c2)"/>
<text x="690" y="111" class="text legend">reflect</text>
<line x1="80.0" y1="228.82791200255113" x2="80.0" y2="207.84602868162108" stroke="var(--c3)" stroke-width="2"/>
<line x1="75.0" y1="228.82791200255113" x2="85.0" y2="228.82791200255113" stroke="var(--c3)" stroke-width="2"/>
<line x1="75.0" y1="207.84602868162108" x2="85.0" y2="207.84602868162108" stroke="var(--c3)" stroke-width="2"/>
<circle cx="80.0" cy="218.3369703420861" r="5" fill="var(--c3)"/>
<line x1="650.0" y1="120.24617097822977" x2="650.0" y2="105.25735676209973" stroke="var(--c3)" stroke-width="2"/>
<line x1="645.0" y1="120.24617097822977" x2="655.0" y2="120.24617097822977" stroke="var(--c3)" stroke-width="2"/>
<line x1="645.0" y1="105.25735676209973" x2="655.0" y2="105.25735676209973" stroke="var(--c3)" stroke-width="2"/>
<circle cx="650.0" cy="112.75176387016475" r="5" fill="var(--c3)"/>
<rect x="660" y="125" width="20" height="12" fill="var(--c3)"/>
<text x="690" y="136" class="text legend">reflectsphere</text>
</svg>