<svg width="800" height="450" xmlns="http://www.w3.org/2000/svg">
<style>
  :root {
    --bg: #ffffff;
    --axis: #212121;
    --grid: #e0e0e0;
    --text: #212121;
    --c0: #007bff; --c1: #fd7e14; --c2: #28a745;
    --c3: #dc3545; --c4: #6f42c1; --c5: #17a2b8;
  }
  @media (prefers-color-scheme: dark) {
    :root {
      --bg: #292D35;
      --axis: #cdd2d5;
      --grid: #333b45;
      --text: #cdd2d5;
      --c0: #66b2ff; --c1: #ffb366; --c2: #71d18d;
      --c3: #ff8585; --c4: #b388ff; --c5: #7dd3fc;
    }
  }
  .text { fill: var(--text); font-family: -apple-system,BlinkMacSystemFont,Segoe UI,Helvetica,Arial,sans-serif; }
  .title { font-size: 20px; font-weight: bold; }
  .label { font-size: 14px; }
  .legend { font-size: 14px; }
  .axis { stroke: var(--axis); stroke-width: 2; }
  .grid { stroke: var(--grid); stroke-dasharray: 4,4; stroke-width: 1; }
  .tick { stroke: var(--axis); stroke-width: 2; }
</style>
<rect width="100%" height="100%" fill="var(--bg)"/>
<text x="400.0" y="25.0" text-anchor="middle" class="text title">compute_force in Collider (deformable on gpu - NVIDIA GeForce RTX 3050 Laptop GPU)</text>
<line x1="80" y1="50" x2="80" y2="350" class="axis"/>
<line x1="80" y1="350" x2="650" y2="350" class="axis"/>
<text x="70" y="355.0" text-anchor="end" class="text label">0.00</text>
<line x1="80" y1="350.0" x2="650" y2="350.0" class="grid"/>
<line x1="75" y1="350.0" x2="80" y2="350.0" class="tick"/>
<text x="70" y="280.0" text-anchor="end" class="text label">121.67</text>
<line x1="80" y1="275.0" x2="650" y2="275.0" class="grid"/>
<line x1="75" y1="275.0" x2="80" y2="275.0" class="tick"/>
<text x="70" y="205.0" text-anchor="end" class="text label">243.35</text>
<line x1="80" y1="200.0" x2="650" y2="200.0" class="grid"/>
<line x1="75" y1="200.0" x2="80" y2="200.0" class="tick"/>
<text x="70" y="129.99999999999997" text-anchor="end" class="text label">365.02</text>
<line x1="80" y1="124.99999999999997" x2="650" y2="124.99999999999997" class="grid"/>
<line x1="75" y1="124.99999999999997" x2="80" y2="124.99999999999997" class="tick"/>
<text x="70" y="55.0" text-anchor="end" class="text label">486.69</text>
<line x1="80" y1="50.0" x2="650" y2="50.0" class="grid"/>
<line x1="75" y1="50.0" x2="80" y2="50.0" class="tick"/>
<g transform="translate(80.0,370) rotate(45)"><text x="0" y="0" class="text label">01c54b2</text></g>
<line x1="80.0" y1="350" x2="80.0" y2="355" class="tick"/>
<g transform="translate(650.0,370) rotate(45)"><text x="0" y="0" class="text label">current</text></g>
<line x1="650.0" y1="350" x2="650.0" y2="355" class="tick"/>
<line x1="80.0" y1="348.14926131130545" x2="80.0" y2="348.0644493959769" stroke="var(--c0)" stroke-width="2"/>
<line x1="75.0" y1="348.14926131130545" x2="85.0" y2="348.14926131130545" stroke="var(--c0)" stroke-width="2"/>
<line x1="75.0" y1="348.0644493959769" x2="85.0" y2="348.0644493959769" stroke="var(--c0)" stroke-width="2"/>
<circle cx="80.0" cy="348.1068553536412" r="5" fill="var(--c0)"/>
<line x1="650.0" y1="336.8651692174335" x2="650.0" y2="336.7269243944687" stroke="var(--c0)" stroke-width="2"/>
<line x1="645.0" y1="336.8651692174335" x2="655.0" y2="336.8651692174335" stroke="var(--c0)" stroke-width="2"/>
<line x1="645.0" y1="336.7269243944687" x2="655.0" y2="336.7269243944687" stroke="var(--c0)" stroke-width="2"/>
<circle cx="650.0" cy="336.7960468059511" r="5" fill="var(--c0)"/>
<rect x="660" y="50" width="20" height="12" fill="var(--c0)"/>
<text x="690" y="61" class="text legend">celllist</text>
<line x1="80.0" y1="348.64818390334113" x2="80.0" y2="348.6181623399924" stroke="var(--c1)" stroke-width="2"/>
<line x1="75.0" y1="348.64818390334113" x2="85.0" y2="348.64818390334113" stroke="var(--c1)" stroke-width="2"/>
<line x1="75.0" y1="348.6181623399924" x2="85.0" y2="348.6181623399924" stroke="var(--c1)" stroke-width="2"/>
<circle cx="80.0" cy="348.6331731216668" r="5" fill="var(--c1)"/>
<line x1="650.0" y1="313.1406771722672" x2="650.0" y2="310.98307745081866" stroke="var(--c1)" stroke-width="2"/>
<line x1="645.0" y1="313.1406771722672" x2="655.0" y2="313.1406771722672" stroke="var(--c1)" stroke-width="2"/>
<line x1="645.0" y1="310.98307745081866" x2="655.0" y2="310.98307745081866" stroke="var(--c1)" stroke-width="2"/>
<circle cx="650.0" cy="312.0618773115429" r="5" fill="var(--c1)"/>
<rect x="660" y="75" width="20" height="12" fill="var(--c1)"/>
<text x="690" y="86" class="text legend">naive</text>
<line x1="80.0" y1="346.82997122817284" x2="80.0" y2="346.8060317579495" stroke="var(--c2)" stroke-width="2"/>
<line x1="75.0" y1="346.82997122817284" x2="85.0" y2="346.82997122817284" stroke="var(--c2)" stroke-width="2"/>
<line x1="75.0" y1="346.8060317579495" x2="85.0" y2="346.8060317579495" stroke="var(--c2)" stroke-width="2"/>
<circle cx="80.0" cy="346.81800149306116" r="5" fill="var(--c2)"/>
<line x1="650.0" y1="77.97132856077246" x2="650.0" y2="77.27272727272731" stroke="var(--c2)" stroke-width="2"/>
<line x1="645.0" y1="77.97132856077246" x2="655.0" y2="77.97132856077246" stroke="var(--c2)" stroke-width="2"/>
<line x1="645.0" y1="77.27272727272731" x2="655.0" y2="77.27272727272731" stroke="var(--c2)" stroke-width="2"/>
<circle cx="650.0" cy="77.62202791674986" r="5" fill="var(--c2)"/>
<rect x="660" y="100" width="20" height="12" fill="var(--c2)"/>
<text x="690" y="111" class="text legend">neighborlist</text>
</svg>