<svg width="800" height="450" xmlns="http://www.w3.org/2000/svg">
<style>
  :root {
    --bg: #ffffff;
    --axis: #212121;
    --grid: #e0e0e0;
    --text: #212121;
    --c0: #007bff; --c1: #fd7e14; --c2: #28a745;
    --c3: #dc3545; --c4: #6f42c1; --c5: #17a2b8;
  }
  @media (prefers-color-scheme: dark) {
    :root {
      --bg: #292D35;
      --axis: #cdd2d5;
      --grid: #333b45;
      --text: #cdd2d5;
      --c0: #66b2ff; --c1: #ffb366; --c2: #71d18d;
      --c3: #ff8585; --c4: #b388ff; --c5: #7dd3fc;
    }
  }
  .text { fill: var(--text); font-family: -apple-system,BlinkMacSystemFont,Segoe UI,Helvetica,Arial,sans-serif; }
  .title { font-size: 20px; font-weight: bold; }
  .label { font-size: 14px; }
  .legend { font-size: 14px; }
  .axis { stroke: var(--axis); stroke-width: 2; }
  .grid { stroke: var(--grid); stroke-dasharray: 4,4; stroke-width: 1; }
  .tick { stroke: var(--axis); stroke-width: 2; }
</style>
<rect width="100%" height="100%" fill="var(--bg)"/>
<text x="400.0" y="25.0" text-anchor="middle" class="text title">step_before_force in Integrator (deformable on gpu - NVIDIA GeForce RTX 3050 Laptop GPU)</text>
<line x1="80" y1="50" x2="80" y2="350" class="axis"/>
<line x1="80" y1="350" x2="650" y2="350" class="axis"/>
<text x="70" y="355.0" text-anchor="end" class="text label">0.00</text>
<line x1="80" y1="350.0" x2="650" y2="350.0" class="grid"/>
<line x1="75" y1="350.0" x2="80" y2="350.0" class="tick"/>
<text x="70" y="280.0" text-anchor="end" class="text label">1.28</text>
<line x1="80" y1="275.0" x2="650" y2="275.0" class="grid"/>
<line x1="75" y1="275.0" x2="80" y2="275.0" class="tick"/>
<text x="70" y="205.0" text-anchor="end" class="text label">2.55</text>
<line x1="80" y1="200.0" x2="650" y2="200.0" class="grid"/>
<line x1="75" y1="200.0" x2="80" y2="200.0" class="tick"/>
<text x="70" y="130.0" text-anchor="end" class="text label">3.83</text>
<line x1="80" y1="125.0" x2="650" y2="125.0" class="grid"/>
<line x1="75" y1="125.0" x2="80" y2="125.0" class="tick"/>
<text x="70" y="55.0" text-anchor="end" class="text label">5.11</text>
<line x1="80" y1="50.0" x2="650" y2="50.0" class="grid"/>
<line x1="75" y1="50.0" x2="80" y2="50.0" class="tick"/>
<g transform="translate(80.0,370) rotate(45)"><text x="0" y="0" class="text label">01c54b2</text></g>
<line x1="80.0" y1="350" x2="80.0" y2="355" class="tick"/>
<g transform="translate(650.0,370) rotate(45)"><text x="0" y="0" class="text label">current</text></g>
<line x1="650.0" y1="350" x2="650.0" y2="355" class="tick"/>
<line x1="80.0" y1="226.04652289538654" x2="80.0" y2="220.1905002362277" stroke="var(--c0)" stroke-width="2"/>
<line x1="75.0" y1="226.04652289538654" x2="85.0" y2="226.04652289538654" stroke="var(--c0)" stroke-width="2"/>
<line x1="75.0" y1="220.1905002362277" x2="85.0" y2="220.1905002362277" stroke="var(--c0)" stroke-width="2"/>
<circle cx="80.0" cy="223.11851156580713" r="5" fill="var(--c0)"/>
<line x1="650.0" y1="106.35525110611368" x2="650.0" y2="86.97569673357089" stroke="var(--c0)" stroke-width="2"/>
<line x1="645.0" y1="106.35525110611368" x2="655.0" y2="106.35525110611368" stroke="var(--c0)" stroke-width="2"/>
<line x1="645.0" y1="86.97569673357089" x2="655.0" y2="86.97569673357089" stroke="var(--c0)" stroke-width="2"/>
<circle cx="650.0" cy="96.6654739198423" r="5" fill="var(--c0)"/>
<rect x="660" y="50" width="20" height="12" fill="var(--c0)"/>
<text x="690" y="61" class="text legend">euler</text>
<line x1="80.0" y1="224.97382056124434" x2="80.0" y2="219.95800613983332" stroke="var(--c1)" stroke-width="2"/>
<line x1="75.0" y1="224.97382056124434" x2="85.0" y2="224.97382056124434" stroke="var(--c1)" stroke-width="2"/>
<line x1="75.0" y1="219.95800613983332" x2="85.0" y2="219.95800613983332" stroke="var(--c1)" stroke-width="2"/>
<circle cx="80.0" cy="222.46591335053884" r="5" fill="var(--c1)"/>
<line x1="650.0" y1="92.53087905659197" x2="650.0" y2="77.27272727272731" stroke="var(--c1)" stroke-width="2"/>
<line x1="645.0" y1="92.53087905659197" x2="655.0" y2="92.53087905659197" stroke="var(--c1)" stroke-width="2"/>
<line x1="645.0" y1="77.27272727272731" x2="655.0" y2="77.27272727272731" stroke="var(--c1)" stroke-width="2"/>
<circle cx="650.0" cy="84.90180316465961" r="5" fill="var(--c1)"/>
<rect x="660" y="75" width="20" height="12" fill="var(--c1)"/>
<text x="690" y="86" class="text legend">verlet</text>
</svg>