<svg width="800" height="450" xmlns="http://www.w3.org/2000/svg">
<style>
  :root {
    --bg: #ffffff;
    --axis: #212121;
    --grid: #e0e0e0;
    --text: #212121;
    --c0: #007bff; --c1: #fd7e14; --c2: #28a745;
    --c3: #dc3545; --c4: #6f42c1; --c5: #17a2b8;
  }
  @media (prefers-color-scheme: dark) {
    :root {
      --bg: #292D35;
      --axis: #cdd2d5;
      --grid: #333b45;
      --text: #cdd2d5;
      --c0: #66b2ff; --c1: #ffb366; --c2: #71d18d;
      --c3: #ff8585; --c4: #b388ff; --c5: #7dd3fc;
    }
  }
  .text { fill: var(--text); font-family: -apple-system,BlinkMacSystemFont,Segoe UI,Helvetica,Arial,sans-serif; }
  .title { font-size: 20px; font-weight: bold; }
  .label { font-size: 14px; }
  .legend { font-size: 14px; }
  .axis { stroke: var(--axis); stroke-width: 2; }
  .grid { stroke: var(--grid); stroke-dasharray: 4,4; stroke-width: 1; }
  .tick { stroke: var(--axis); stroke-width: 2; }
</style>
<rect width="100%" height="100%" fill="var(--bg)"/>
<text x="400.0" y="25.0" text-anchor="middle" class="text title">displacement in Domain (deformable on gpu - NVIDIA GeForce RTX 3050 Laptop GPU)</text>
<line x1="80" y1="50" x2="80" y2="350" class="axis"/>
<line x1="80" y1="350" x2="650" y2="350" class="axis"/>
<text x="70" y="355.0" text-anchor="end" class="text label">0.00</text>
<line x1="80" y1="350.0" x2="650" y2="350.0" class="grid"/>
<line x1="75" y1="350.0" x2="80" y2="350.0" class="tick"/>
<text x="70" y="280.0" text-anchor="end" class="text label">0.28</text>
<line x1="80" y1="275.0" x2="650" y2="275.0" class="grid"/>
<line x1="75" y1="275.0" x2="80" y2="275.0" class="tick"/>
<text x="70" y="205.0" text-anchor="end" class="text label">0.56</text>
<line x1="80" y1="200.0" x2="650" y2="200.0" class="grid"/>
<line x1="75" y1="200.0" x2="80" y2="200.0" class="tick"/>
<text x="70" y="130.0" text-anchor="end" class="text label">0.84</text>
<line x1="80" y1="125.0" x2="650" y2="125.0" class="grid"/>
<line x1="75" y1="125.0" x2="80" y2="125.0" class="tick"/>
<text x="70" y="55.0" text-anchor="end" class="text label">1.12</text>
<line x1="80" y1="50.0" x2="650" y2="50.0" class="grid"/>
<line x1="75" y1="50.0" x2="80" y2="50.0" class="tick"/>
<g transform="translate(80.0,370) rotate(45)"><text x="0" y="0" class="text label">01c54b2</text></g>
<line x1="80.0" y1="350" x2="80.0" y2="355" class="tick"/>
<g transform="translate(650.0,370) rotate(45)"><text x="0" y="0" class="text label">current</text></g>
<line x1="650.0" y1="350" x2="650.0" y2="355" class="tick"/>
<line x1="80.0" y1="215.67317562188407" x2="80.0" y2="209.37031685106257" stroke="var(--c0)" stroke-width="2"/>
<line x1="75.0" y1="215.67317562188407" x2="85.0" y2="215.67317562188407" stroke="var(--c0)" stroke-width="2"/>
<line x1="75.0" y1="209.37031685106257" x2="85.0" y2="209.37031685106257" stroke="var(--c0)" stroke-width="2"/>
<circle cx="80.0" cy="212.52174623647332" r="5" fill="var(--c0)"/>
<line x1="650.0" y1="122.56425561311346" x2="650.0" y2="117.44568026596514" stroke="var(--c0)" stroke-width="2"/>
<line x1="645.0" y1="122.56425561311346" x2="655.0" y2="122.56425561311346" stroke="var(--c0)" stroke-width="2"/>
<line x1="645.0" y1="117.44568026596514" x2="655.0" y2="117.44568026596514" stroke="var(--c0)" stroke-width="2"/>
<circle cx="650.0" cy="120.00496793953928" r="5" fill="var(--c0)"/>
<rect x="660" y="50" width="20" height="12" fill="var(--c0)"/>
<text x="690" y="61" class="text legend">free</text>
<line x1="80.0" y1="213.2350158057885" x2="80.0" y2="192.55797359244212" stroke="var(--c1)" stroke-width="2"/>
<line x1="75.0" y1="213.2350158057885" x2="85.0" y2="213.2350158057885" stroke="var(--c1)" stroke-width="2"/>
<line x1="75.0" y1="192.55797359244212" x2="85.0" y2="192.55797359244212" stroke="var(--c1)" stroke-width="2"/>
<circle cx="80.0" cy="202.89649469911532" r="5" fill="var(--c1)"/>
<line x1="650.0" y1="163.1856228791337" x2="650.0" y2="77.27272727272731" stroke="var(--c1)" stroke-width="2"/>
<line x1="645.0" y1="163.1856228791337" x2="655.0" y2="163.1856228791337" stroke="var(--c1)" stroke-width="2"/>
<line x1="645.0" y1="77.27272727272731" x2="655.0" y2="77.27272727272731" stroke="var(--c1)" stroke-width="2"/>
<circle cx="650.0" cy="120.2291750759305" r="5" fill="var(--c1)"/>
<rect x="660" y="75" width="20" height="12" fill="var(--c1)"/>
<text x="690" y="86" class="text legend">periodic</text>
<line x1="80.0" y1="194.19688498490947" x2="80.0" y2="182.0114632866865" stroke="var(--c2)" stroke-width="2"/>
<line x1="75.0" y1="194.19688498490947" x2="85.0" y2="194.19688498490947" stroke="var(--c2)" stroke-width="2"/>
<line x1="75.0" y1="182.0114632866865" x2="85.0" y2="182.0114632866865" stroke="var(--c2)" stroke-width="2"/>
<circle cx="80.0" cy="188.104174135798" r="5" fill="var(--c2)"/>
<line x1="650.0" y1="150.342968134902" x2="650.0" y2="125.69943573639267" stroke="var(--c2)" stroke-width="2"/>
<line x1="645.0" y1="150.342968134902" x2="655.0" y2="150.342968134902" stroke="var(--c2)" stroke-width="2"/>
<line x1="645.0" y1="125.69943573639267" x2="655.0" y2="125.69943573639267" stroke="var(--c2)" stroke-width="2"/>
<circle cx="650.0" cy="138.02120193564735" r="5" fill="var(--c2)"/>
<rect x="660" y="100" width="20" height="12" fill="var(--c2)"/>
<text x="690" y="111" class="text legend">reflect</text>
<line x1="80.0" y1="207.1396541512897" x2="80.0" y2="194.3254948512528" stroke="var(--c3)" stroke-width="2"/>
<line x1="75.0" y1="207.1396541512897" x2="85.0" y2="207.1396541512897" stroke="var(--c3)" stroke-width="2"/>
<line x1="75.0" y1="194.3254948512528" x2="85.0" y2="194.3254948512528" stroke="var(--c3)" stroke-width="2"/>
<circle cx="80.0" cy="200.73257450127124" r="5" fill="var(--c3)"/>
<line x1="650.0" y1="150.37597596857512" x2="650.0" y2="121.78603441802733" stroke="var(--c3)" stroke-width="2"/>
<line x1="645.0" y1="150.37597596857512" x2="655.0" y2="150.37597596857512" stroke="var(--c3)" stroke-width="2"/>
<line x1="645.0" y1="121.78603441802733" x2="655.0" y2="121.78603441802733" stroke="var(--c3)" stroke-width="2"/>
<circle cx="650.0" cy="136.0810051933012" r="5" fill="var(--c3)"/>
<rect x="660" y="125" width="20" height="12" fill="var(--c3)"/>
<text x="690" y="136" class="text legend">reflectsphere</text>
</svg>