<svg width="800" height="450" xmlns="http://www.w3.org/2000/svg">
<style>
  :root {
    --bg: #ffffff;
    --axis: #212121;
    --grid: #e0e0e0;
    --text: #212121;
    --c0: #007bff; --c1: #fd7e14; --c2: #28a745;
    --c3: #dc3545; --c4: #6f42c1; --c5: #17a2b8;
  }
  @media (prefers-color-scheme: dark) {
    :root {
      --bg: #292D35;
      --axis: #cdd2d5;
      --grid: #333b45;
      --text: #cdd2d5;
      --c0: #66b2ff; --c1: #ffb366; --c2: #71d18d;
      --c3: #ff8585; --c4: #b388ff; --c5: #7dd3fc;
    }
  }
  .text { fill: var(--text); font-family: -apple-system,BlinkMacSystemFont,Segoe UI,Helvetica,Arial,sans-serif; }
  .title { font-size: 20px; font-weight: bold; }
  .label { font-size: 14px; }
  .legend { font-size: 14px; }
  .axis { stroke: var(--axis); stroke-width: 2; }
  .grid { stroke: var(--grid); stroke-dasharray: 4,4; stroke-width: 1; }
  .tick { stroke: var(--axis); stroke-width: 2; }
</style>
<rect width="100%" height="100%" fill="var(--bg)"/>
<text x="400.0" y="25.0" text-anchor="middle" class="text title">step_before_force in Integrator (mixed on gpu - NVIDIA GeForce RTX 3050 Laptop GPU)</text>
<line x1="80" y1="50" x2="80" y2="350" class="axis"/>
<line x1="80" y1="350" x2="650" y2="350" class="axis"/>
<text x="70" y="355.0" text-anchor="end" class="text label">0.00</text>
<line x1="80" y1="350.0" x2="650" y2="350.0" class="grid"/>
<line x1="75" y1="350.0" x2="80" y2="350.0" class="tick"/>
<text x="70" y="280.0" text-anchor="end" class="text label">1.32</text>
<line x1="80" y1="275.0" x2="650" y2="275.0" class="grid"/>
<line x1="75" y1="275.0" x2="80" y2="275.0" class="tick"/>
<text x="70" y="205.0" text-anchor="end" class="text label">2.64</text>
<line x1="80" y1="200.0" x2="650" y2="200.0" class="grid"/>
<line x1="75" y1="200.0" x2="80" y2="200.0" class="tick"/>
<text x="70" y="130.0" text-anchor="end" class="text label">3.96</text>
<line x1="80" y1="125.0" x2="650" y2="125.0" class="grid"/>
<line x1="75" y1="125.0" x2="80" y2="125.0" class="tick"/>
<text x="70" y="55.0" text-anchor="end" class="text label">5.28</text>
<line x1="80" y1="50.0" x2="650" y2="50.0" class="grid"/>
<line x1="75" y1="50.0" x2="80" y2="50.0" class="tick"/>
<g transform="translate(80.0,370) rotate(45)"><text x="0" y="0" class="text label">01c54b2</text></g>
<line x1="80.0" y1="350" x2="80.0" y2="355" class="tick"/>
<g transform="translate(650.0,370) rotate(45)"><text x="0" y="0" class="text label">current</text></g>
<line x1="650.0" y1="350" x2="650.0" y2="355" class="tick"/>
<line x1="80.0" y1="227.80040428227957" x2="80.0" y2="224.6150161414747" stroke="var(--c0)" stroke-width="2"/>
<line x1="75.0" y1="227.80040428227957" x2="85.0" y2="227.80040428227957" stroke="var(--c0)" stroke-width="2"/>
<line x1="75.0" y1="224.6150161414747" x2="85.0" y2="224.6150161414747" stroke="var(--c0)" stroke-width="2"/>
<circle cx="80.0" cy="226.20771021187716" r="5" fill="var(--c0)"/>
<line x1="650.0" y1="109.77679388115004" x2="650.0" y2="77.27272727272731" stroke="var(--c0)" stroke-width="2"/>
<line x1="645.0" y1="109.77679388115004" x2="655.0" y2="109.77679388115004" stroke="var(--c0)" stroke-width="2"/>
<line x1="645.0" y1="77.27272727272731" x2="655.0" y2="77.27272727272731" stroke="var(--c0)" stroke-width="2"/>
<circle cx="650.0" cy="93.52476057693872" r="5" fill="var(--c0)"/>
<rect x="660" y="50" width="20" height="12" fill="var(--c0)"/>
<text x="690" y="61" class="text legend">euler</text>
<line x1="80.0" y1="230.52404457217975" x2="80.0" y2="227.1056366513121" stroke="var(--c1)" stroke-width="2"/>
<line x1="75.0" y1="230.52404457217975" x2="85.0" y2="230.52404457217975" stroke="var(--c1)" stroke-width="2"/>
<line x1="75.0" y1="227.1056366513121" x2="85.0" y2="227.1056366513121" stroke="var(--c1)" stroke-width="2"/>
<circle cx="80.0" cy="228.81484061174592" r="5" fill="var(--c1)"/>
<line x1="650.0" y1="104.81423573883441" x2="650.0" y2="77.4713155176239" stroke="var(--c1)" stroke-width="2"/>
<line x1="645.0" y1="104.81423573883441" x2="655.0" y2="104.81423573883441" stroke="var(--c1)" stroke-width="2"/>
<line x1="645.0" y1="77.4713155176239" x2="655.0" y2="77.4713155176239" stroke="var(--c1)" stroke-width="2"/>
<circle cx="650.0" cy="91.14277562822917" r="5" fill="var(--c1)"/>
<rect x="660" y="75" width="20" height="12" fill="var(--c1)"/>
<text x="690" y="86" class="text legend">verlet</text>
</svg>