<svg width="800" height="450" xmlns="http://www.w3.org/2000/svg">
<style>
  :root {
    --bg: #ffffff;
    --axis: #212121;
    --grid: #e0e0e0;
    --text: #212121;
    --c0: #007bff; --c1: #fd7e14; --c2: #28a745;
    --c3: #dc3545; --c4: #6f42c1; --c5: #17a2b8;
  }
  @media (prefers-color-scheme: dark) {
    :root {
      --bg: #292D35;
      --axis: #cdd2d5;
      --grid: #333b45;
      --text: #cdd2d5;
      --c0: #66b2ff; --c1: #ffb366; --c2: #71d18d;
      --c3: #ff8585; --c4: #b388ff; --c5: #7dd3fc;
    }
  }
  .text { fill: var(--text); font-family: -apple-system,BlinkMacSystemFont,Segoe UI,Helvetica,Arial,sans-serif; }
  .title { font-size: 20px; font-weight: bold; }
  .label { font-size: 14px; }
  .legend { font-size: 14px; }
  .axis { stroke: var(--axis); stroke-width: 2; }
  .grid { stroke: var(--grid); stroke-dasharray: 4,4; stroke-width: 1; }
  .tick { stroke: var(--axis); stroke-width: 2; }
</style>
<rect width="100%" height="100%" fill="var(--bg)"/>
<text x="400.0" y="25.0" text-anchor="middle" class="text title">displacement in Domain (mixed on gpu - NVIDIA GeForce RTX 3050 Laptop GPU)</text>
<line x1="80" y1="50" x2="80" y2="350" class="axis"/>
<line x1="80" y1="350" x2="650" y2="350" class="axis"/>
<text x="70" y="355.0" text-anchor="end" class="text label">0.00</text>
<line x1="80" y1="350.0" x2="650" y2="350.0" class="grid"/>
<line x1="75" y1="350.0" x2="80" y2="350.0" class="tick"/>
<text x="70" y="280.0" text-anchor="end" class="text label">0.40</text>
<line x1="80" y1="275.0" x2="650" y2="275.0" class="grid"/>
<line x1="75" y1="275.0" x2="80" y2="275.0" class="tick"/>
<text x="70" y="205.0" text-anchor="end" class="text label">0.79</text>
<line x1="80" y1="200.0" x2="650" y2="200.0" class="grid"/>
<line x1="75" y1="200.0" x2="80" y2="200.0" class="tick"/>
<text x="70" y="129.99999999999997" text-anchor="end" class="text label">1.19</text>
<line x1="80" y1="124.99999999999997" x2="650" y2="124.99999999999997" class="grid"/>
<line x1="75" y1="124.99999999999997" x2="80" y2="124.99999999999997" class="tick"/>
<text x="70" y="55.0" text-anchor="end" class="text label">1.59</text>
<line x1="80" y1="50.0" x2="650" y2="50.0" class="grid"/>
<line x1="75" y1="50.0" x2="80" y2="50.0" class="tick"/>
<g transform="translate(80.0,370) rotate(45)"><text x="0" y="0" class="text label">01c54b2</text></g>
<line x1="80.0" y1="350" x2="80.0" y2="355" class="tick"/>
<g transform="translate(650.0,370) rotate(45)"><text x="0" y="0" class="text label">current</text></g>
<line x1="650.0" y1="350" x2="650.0" y2="355" class="tick"/>
<line x1="80.0" y1="247.69236505793236" x2="80.0" y2="237.08936595663423" stroke="var(--c0)" stroke-width="2"/>
<line x1="75.0" y1="247.69236505793236" x2="85.0" y2="247.69236505793236" stroke="var(--c0)" stroke-width="2"/>
<line x1="75.0" y1="237.08936595663423" x2="85.0" y2="237.08936595663423" stroke="var(--c0)" stroke-width="2"/>
<circle cx="80.0" cy="242.3908655072833" r="5" fill="var(--c0)"/>
<line x1="650.0" y1="193.63384941445818" x2="650.0" y2="180.17728056817532" stroke="var(--c0)" stroke-width="2"/>
<line x1="645.0" y1="193.63384941445818" x2="655.0" y2="193.63384941445818" stroke="var(--c0)" stroke-width="2"/>
<line x1="645.0" y1="180.17728056817532" x2="655.0" y2="180.17728056817532" stroke="var(--c0)" stroke-width="2"/>
<circle cx="650.0" cy="186.90556499131677" r="5" fill="var(--c0)"/>
<rect x="660" y="50" width="20" height="12" fill="var(--c0)"/>
<text x="690" y="61" class="text legend">free</text>
<line x1="80.0" y1="253.82362232224486" x2="80.0" y2="246.24590096247226" stroke="var(--c1)" stroke-width="2"/>
<line x1="75.0" y1="253.82362232224486" x2="85.0" y2="253.82362232224486" stroke="var(--c1)" stroke-width="2"/>
<line x1="75.0" y1="246.24590096247226" x2="85.0" y2="246.24590096247226" stroke="var(--c1)" stroke-width="2"/>
<circle cx="80.0" cy="250.03476164235855" r="5" fill="var(--c1)"/>
<line x1="650.0" y1="207.6268102507873" x2="650.0" y2="197.54560752180745" stroke="var(--c1)" stroke-width="2"/>
<line x1="645.0" y1="207.6268102507873" x2="655.0" y2="207.6268102507873" stroke="var(--c1)" stroke-width="2"/>
<line x1="645.0" y1="197.54560752180745" x2="655.0" y2="197.54560752180745" stroke="var(--c1)" stroke-width="2"/>
<circle cx="650.0" cy="202.58620888629738" r="5" fill="var(--c1)"/>
<rect x="660" y="75" width="20" height="12" fill="var(--c1)"/>
<text x="690" y="86" class="text legend">periodic</text>
<line x1="80.0" y1="238.23610117085508" x2="80.0" y2="234.52682195916105" stroke="var(--c2)" stroke-width="2"/>
<line x1="75.0" y1="238.23610117085508" x2="85.0" y2="238.23610117085508" stroke="var(--c2)" stroke-width="2"/>
<line x1="75.0" y1="234.52682195916105" x2="85.0" y2="234.52682195916105" stroke="var(--c2)" stroke-width="2"/>
<circle cx="80.0" cy="236.38146156500807" r="5" fill="var(--c2)"/>
<line x1="650.0" y1="254.7958600366498" x2="650.0" y2="77.27272727272731" stroke="var(--c2)" stroke-width="2"/>
<line x1="645.0" y1="254.7958600366498" x2="655.0" y2="254.7958600366498" stroke="var(--c2)" stroke-width="2"/>
<line x1="645.0" y1="77.27272727272731" x2="655.0" y2="77.27272727272731" stroke="var(--c2)" stroke-width="2"/>
<circle cx="650.0" cy="166.03429365468853" r="5" fill="var(--c2)"/>
<rect x="660" y="100" width="20" height="12" fill="var(--c2)"/>
<text x="690" y="111" class="text legend">reflect</text>
<line x1="80.0" y1="252.85412101217443" x2="80.0" y2="235.78702352811797" stroke="var(--c3)" stroke-width="2"/>
<line x1="75.0" y1="252.85412101217443" x2="85.0" y2="252.85412101217443" stroke="var(--c3)" stroke-width="2"/>
<line x1="75.0" y1="235.78702352811797" x2="85.0" y2="235.78702352811797" stroke="var(--c3)" stroke-width="2"/>
<circle cx="80.0" cy="244.32057227014622" r="5" fill="var(--c3)"/>
<line x1="650.0" y1="212.82942801704445" x2="650.0" y2="197.01345471421692" stroke="var(--c3)" stroke-width="2"/>
<line x1="645.0" y1="212.82942801704445" x2="655.0" y2="212.82942801704445" stroke="var(--c3)" stroke-width="2"/>
<line x1="645.0" y1="197.01345471421692" x2="655.0" y2="197.01345471421692" stroke="var(--c3)" stroke-width="2"/>
<circle cx="650.0" cy="204.92144136563067" r="5" fill="var(--c3)"/>
<rect x="660" y="125" width="20" height="12" fill="var(--c3)"/>
<text x="690" y="136" class="text legend">reflectsphere</text>
</svg>