<svg width="800" height="450" xmlns="http://www.w3.org/2000/svg">
<style>
  :root {
    --bg: #ffffff;
    --axis: #212121;
    --grid: #e0e0e0;
    --text: #212121;
    --c0: #007bff; --c1: #fd7e14; --c2: #28a745;
    --c3: #dc3545; --c4: #6f42c1; --c5: #17a2b8;
  }
  @media (prefers-color-scheme: dark) {
    :root {
      --bg: #292D35;
      --axis: #cdd2d5;
      --grid: #333b45;
      --text: #cdd2d5;
      --c0: #66b2ff; --c1: #ffb366; --c2: #71d18d;
      --c3: #ff8585; --c4: #b388ff; --c5: #7dd3fc;
    }
  }
  .text { fill: var(--text); font-family: -apple-system,BlinkMacSystemFont,Segoe UI,Helvetica,Arial,sans-serif; }
  .title { font-size: 20px; font-weight: bold; }
  .label { font-size: 14px; }
  .legend { font-size: 14px; }
  .axis { stroke: var(--axis); stroke-width: 2; }
  .grid { stroke: var(--grid); stroke-dasharray: 4,4; stroke-width: 1; }
  .tick { stroke: var(--axis); stroke-width: 2; }
</style>
<rect width="100%" height="100%" fill="var(--bg)"/>
<text x="400.0" y="25.0" text-anchor="middle" class="text title">apply in Domain (mixed on gpu - NVIDIA GeForce RTX 3050 Laptop GPU)</text>
<line x1="80" y1="50" x2="80" y2="350" class="axis"/>
<line x1="80" y1="350" x2="650" y2="350" class="axis"/>
<text x="70" y="355.0" text-anchor="end" class="text label">0.00</text>
<line x1="80" y1="350.0" x2="650" y2="350.0" class="grid"/>
<line x1="75" y1="350.0" x2="80" y2="350.0" class="tick"/>
<text x="70" y="280.0" text-anchor="end" class="text label">3.24</text>
<line x1="80" y1="275.0" x2="650" y2="275.0" class="grid"/>
<line x1="75" y1="275.0" x2="80" y2="275.0" class="tick"/>
<text x="70" y="205.0" text-anchor="end" class="text label">6.47</text>
<line x1="80" y1="200.0" x2="650" y2="200.0" class="grid"/>
<line x1="75" y1="200.0" x2="80" y2="200.0" class="tick"/>
<text x="70" y="130.0" text-anchor="end" class="text label">9.71</text>
<line x1="80" y1="125.0" x2="650" y2="125.0" class="grid"/>
<line x1="75" y1="125.0" x2="80" y2="125.0" class="tick"/>
<text x="70" y="55.0" text-anchor="end" class="text label">12.95</text>
<line x1="80" y1="50.0" x2="650" y2="50.0" class="grid"/>
<line x1="75" y1="50.0" x2="80" y2="50.0" class="tick"/>
<g transform="translate(80.0,370) rotate(45)"><text x="0" y="0" class="text label">01c54b2</text></g>
<line x1="80.0" y1="350" x2="80.0" y2="355" class="tick"/>
<g transform="translate(650.0,370) rotate(45)"><text x="0" y="0" class="text label">current</text></g>
<line x1="650.0" y1="350" x2="650.0" y2="355" class="tick"/>
<line x1="80.0" y1="300.57957416404264" x2="80.0" y2="300.0375555502409" stroke="var(--c0)" stroke-width="2"/>
<line x1="75.0" y1="300.57957416404264" x2="85.0" y2="300.57957416404264" stroke="var(--c0)" stroke-width="2"/>
<line x1="75.0" y1="300.0375555502409" x2="85.0" y2="300.0375555502409" stroke="var(--c0)" stroke-width="2"/>
<circle cx="80.0" cy="300.30856485714173" r="5" fill="var(--c0)"/>
<line x1="650.0" y1="234.05894521042603" x2="650.0" y2="228.2905880999027" stroke="var(--c0)" stroke-width="2"/>
<line x1="645.0" y1="234.05894521042603" x2="655.0" y2="234.05894521042603" stroke="var(--c0)" stroke-width="2"/>
<line x1="645.0" y1="228.2905880999027" x2="655.0" y2="228.2905880999027" stroke="var(--c0)" stroke-width="2"/>
<circle cx="650.0" cy="231.17476665516438" r="5" fill="var(--c0)"/>
<rect x="660" y="50" width="20" height="12" fill="var(--c0)"/>
<text x="690" y="61" class="text legend">free</text>
<line x1="80.0" y1="300.5229856216773" x2="80.0" y2="299.3071893998811" stroke="var(--c1)" stroke-width="2"/>
<line x1="75.0" y1="300.5229856216773" x2="85.0" y2="300.5229856216773" stroke="var(--c1)" stroke-width="2"/>
<line x1="75.0" y1="299.3071893998811" x2="85.0" y2="299.3071893998811" stroke="var(--c1)" stroke-width="2"/>
<circle cx="80.0" cy="299.9150875107792" r="5" fill="var(--c1)"/>
<line x1="650.0" y1="247.30588270823878" x2="650.0" y2="239.3155562674839" stroke="var(--c1)" stroke-width="2"/>
<line x1="645.0" y1="247.30588270823878" x2="655.0" y2="247.30588270823878" stroke="var(--c1)" stroke-width="2"/>
<line x1="645.0" y1="239.3155562674839" x2="655.0" y2="239.3155562674839" stroke="var(--c1)" stroke-width="2"/>
<circle cx="650.0" cy="243.31071948786135" r="5" fill="var(--c1)"/>
<rect x="660" y="75" width="20" height="12" fill="var(--c1)"/>
<text x="690" y="86" class="text legend">periodic</text>
<line x1="80.0" y1="295.5835338158124" x2="80.0" y2="293.9771696128619" stroke="var(--c2)" stroke-width="2"/>
<line x1="75.0" y1="295.5835338158124" x2="85.0" y2="295.5835338158124" stroke="var(--c2)" stroke-width="2"/>
<line x1="75.0" y1="293.9771696128619" x2="85.0" y2="293.9771696128619" stroke="var(--c2)" stroke-width="2"/>
<circle cx="80.0" cy="294.7803517143372" r="5" fill="var(--c2)"/>
<line x1="650.0" y1="89.14771522810491" x2="650.0" y2="77.27272727272731" stroke="var(--c2)" stroke-width="2"/>
<line x1="645.0" y1="89.14771522810491" x2="655.0" y2="89.14771522810491" stroke="var(--c2)" stroke-width="2"/>
<line x1="645.0" y1="77.27272727272731" x2="655.0" y2="77.27272727272731" stroke="var(--c2)" stroke-width="2"/>
<circle cx="650.0" cy="83.21022125041611" r="5" fill="var(--c2)"/>
<rect x="660" y="100" width="20" height="12" fill="var(--c2)"/>
<text x="690" y="111" class="text legend">reflect</text>
<line x1="80.0" y1="301.58632684898305" x2="80.0" y2="299.2646174889828" stroke="var(--c3)" stroke-width="2"/>
<line x1="75.0" y1="301.58632684898305" x2="85.0" y2="301.58632684898305" stroke="var(--c3)" stroke-width="2"/>
<line x1="75.0" y1="299.2646174889828" x2="85.0" y2="299.2646174889828" stroke="var(--c3)" stroke-width="2"/>
<circle cx="80.0" cy="300.42547216898294" r="5" fill="var(--c3)"/>
<line x1="650.0" y1="251.43165519043697" x2="650.0" y2="245.68336151024994" stroke="var(--c3)" stroke-width="2"/>
<line x1="645.0" y1="251.43165519043697" x2="655.0" y2="251.43165519043697" stroke="var(--c3)" stroke-width="2"/>
<line x1="645.0" y1="245.68336151024994" x2="655.0" y2="245.68336151024994" stroke="var(--c3)" stroke-width="2"/>
<circle cx="650.0" cy="248.55750835034345" r="5" fill="var(--c3)"/>
<rect x="660" y="125" width="20" height="12" fill="var(--c3)"/>
<text x="690" y="136" class="text legend">reflectsphere</text>
</svg>