<svg width="800" height="450" xmlns="http://www.w3.org/2000/svg">
<style>
  :root {
    --bg: #ffffff;
    --axis: #212121;
    --grid: #e0e0e0;
    --text: #212121;
    --c0: #007bff; --c1: #fd7e14; --c2: #28a745;
    --c3: #dc3545; --c4: #6f42c1; --c5: #17a2b8;
  }
  @media (prefers-color-scheme: dark) {
    :root {
      --bg: #292D35;
      --axis: #cdd2d5;
      --grid: #333b45;
      --text: #cdd2d5;
      --c0: #66b2ff; --c1: #ffb366; --c2: #71d18d;
      --c3: #ff8585; --c4: #b388ff; --c5: #7dd3fc;
    }
  }
  .text { fill: var(--text); font-family: -apple-system,BlinkMacSystemFont,Segoe UI,Helvetica,Arial,sans-serif; }
  .title { font-size: 20px; font-weight: bold; }
  .label { font-size: 14px; }
  .legend { font-size: 14px; }
  .axis { stroke: var(--axis); stroke-width: 2; }
  .grid { stroke: var(--grid); stroke-dasharray: 4,4; stroke-width: 1; }
  .tick { stroke: var(--axis); stroke-width: 2; }
</style>
<rect width="100%" height="100%" fill="var(--bg)"/>
<text x="400.0" y="25.0" text-anchor="middle" class="text title">shift in Domain (mixed on gpu - NVIDIA GeForce RTX 3050 Laptop GPU)</text>
<line x1="80" y1="50" x2="80" y2="350" class="axis"/>
<line x1="80" y1="350" x2="650" y2="350" class="axis"/>
<text x="70" y="355.0" text-anchor="end" class="text label">0.00</text>
<line x1="80" y1="350.0" x2="650" y2="350.0" class="grid"/>
<line x1="75" y1="350.0" x2="80" y2="350.0" class="tick"/>
<text x="70" y="280.0" text-anchor="end" class="text label">1.32</text>
<line x1="80" y1="275.0" x2="650" y2="275.0" class="grid"/>
<line x1="75" y1="275.0" x2="80" y2="275.0" class="tick"/>
<text x="70" y="205.0" text-anchor="end" class="text label">2.64</text>
<line x1="80" y1="200.0" x2="650" y2="200.0" class="grid"/>
<line x1="75" y1="200.0" x2="80" y2="200.0" class="tick"/>
<text x="70" y="130.0" text-anchor="end" class="text label">3.96</text>
<line x1="80" y1="125.0" x2="650" y2="125.0" class="grid"/>
<line x1="75" y1="125.0" x2="80" y2="125.0" class="tick"/>
<text x="70" y="55.0" text-anchor="end" class="text label">5.28</text>
<line x1="80" y1="50.0" x2="650" y2="50.0" class="grid"/>
<line x1="75" y1="50.0" x2="80" y2="50.0" class="tick"/>
<g transform="translate(80.0,370) rotate(45)"><text x="0" y="0" class="text label">01c54b2</text></g>
<line x1="80.0" y1="350" x2="80.0" y2="355" class="tick"/>
<g transform="translate(650.0,370) rotate(45)"><text x="0" y="0" class="text label">current</text></g>
<line x1="650.0" y1="350" x2="650.0" y2="355" class="tick"/>
<line x1="80.0" y1="228.67980510122112" x2="80.0" y2="220.95158921585877" stroke="var(--c0)" stroke-width="2"/>
<line x1="75.0" y1="228.67980510122112" x2="85.0" y2="228.67980510122112" stroke="var(--c0)" stroke-width="2"/>
<line x1="75.0" y1="220.95158921585877" x2="85.0" y2="220.95158921585877" stroke="var(--c0)" stroke-width="2"/>
<circle cx="80.0" cy="224.81569715853993" r="5" fill="var(--c0)"/>
<line x1="650.0" y1="96.88459397841848" x2="650.0" y2="84.81024761976221" stroke="var(--c0)" stroke-width="2"/>
<line x1="645.0" y1="96.88459397841848" x2="655.0" y2="96.88459397841848" stroke="var(--c0)" stroke-width="2"/>
<line x1="645.0" y1="84.81024761976221" x2="655.0" y2="84.81024761976221" stroke="var(--c0)" stroke-width="2"/>
<circle cx="650.0" cy="90.84742079909034" r="5" fill="var(--c0)"/>
<rect x="660" y="50" width="20" height="12" fill="var(--c0)"/>
<text x="690" y="61" class="text legend">free</text>
<line x1="80.0" y1="230.2702788707768" x2="80.0" y2="227.18897685452686" stroke="var(--c1)" stroke-width="2"/>
<line x1="75.0" y1="230.2702788707768" x2="85.0" y2="230.2702788707768" stroke="var(--c1)" stroke-width="2"/>
<line x1="75.0" y1="227.18897685452686" x2="85.0" y2="227.18897685452686" stroke="var(--c1)" stroke-width="2"/>
<circle cx="80.0" cy="228.72962786265182" r="5" fill="var(--c1)"/>
<line x1="650.0" y1="90.37351876942341" x2="650.0" y2="77.27272727272731" stroke="var(--c1)" stroke-width="2"/>
<line x1="645.0" y1="90.37351876942341" x2="655.0" y2="90.37351876942341" stroke="var(--c1)" stroke-width="2"/>
<line x1="645.0" y1="77.27272727272731" x2="655.0" y2="77.27272727272731" stroke="var(--c1)" stroke-width="2"/>
<circle cx="650.0" cy="83.82312302107533" r="5" fill="var(--c1)"/>
<rect x="660" y="75" width="20" height="12" fill="var(--c1)"/>
<text x="690" y="86" class="text legend">periodic</text>
<line x1="80.0" y1="229.33659699410987" x2="80.0" y2="225.38864992430194" stroke="var(--c2)" stroke-width="2"/>
<line x1="75.0" y1="229.33659699410987" x2="85.0" y2="229.33659699410987" stroke="var(--c2)" stroke-width="2"/>
<line x1="75.0" y1="225.38864992430194" x2="85.0" y2="225.38864992430194" stroke="var(--c2)" stroke-width="2"/>
<circle cx="80.0" cy="227.3626234592059" r="5" fill="var(--c2)"/>
<line x1="650.0" y1="114.88849422589658" x2="650.0" y2="78.95935024861524" stroke="var(--c2)" stroke-width="2"/>
<line x1="645.0" y1="114.88849422589658" x2="655.0" y2="114.88849422589658" stroke="var(--c2)" stroke-width="2"/>
<line x1="645.0" y1="78.95935024861524" x2="655.0" y2="78.95935024861524" stroke="var(--c2)" stroke-width="2"/>
<circle cx="650.0" cy="96.92392223725591" r="5" fill="var(--c2)"/>
<rect x="660" y="100" width="20" height="12" fill="var(--c2)"/>
<text x="690" y="111" class="text legend">reflect</text>
<line x1="80.0" y1="229.97824869068955" x2="80.0" y2="219.29584953937885" stroke="var(--c3)" stroke-width="2"/>
<line x1="75.0" y1="229.97824869068955" x2="85.0" y2="229.97824869068955" stroke="var(--c3)" stroke-width="2"/>
<line x1="75.0" y1="219.29584953937885" x2="85.0" y2="219.29584953937885" stroke="var(--c3)" stroke-width="2"/>
<circle cx="80.0" cy="224.6370491150342" r="5" fill="var(--c3)"/>
<line x1="650.0" y1="107.2006183871996" x2="650.0" y2="82.53015525321615" stroke="var(--c3)" stroke-width="2"/>
<line x1="645.0" y1="107.2006183871996" x2="655.0" y2="107.2006183871996" stroke="var(--c3)" stroke-width="2"/>
<line x1="645.0" y1="82.53015525321615" x2="655.0" y2="82.53015525321615" stroke="var(--c3)" stroke-width="2"/>
<circle cx="650.0" cy="94.86538682020787" r="5" fill="var(--c3)"/>
<rect x="660" y="125" width="20" height="12" fill="var(--c3)"/>
<text x="690" y="136" class="text legend">reflectsphere</text>
</svg>