<svg width="800" height="450" xmlns="http://www.w3.org/2000/svg">
<style>
  :root {
    --bg: #ffffff;
    --axis: #212121;
    --grid: #e0e0e0;
    --text: #212121;
    --c0: #007bff; --c1: #fd7e14; --c2: #28a745;
    --c3: #dc3545; --c4: #6f42c1; --c5: #17a2b8;
  }
  @media (prefers-color-scheme: dark) {
    :root {
      --bg: #292D35;
      --axis: #cdd2d5;
      --grid: #333b45;
      --text: #cdd2d5;
      --c0: #66b2ff; --c1: #ffb366; --c2: #71d18d;
      --c3: #ff8585; --c4: #b388ff; --c5: #7dd3fc;
    }
  }
  .text { fill: var(--text); font-family: -apple-system,BlinkMacSystemFont,Segoe UI,Helvetica,Arial,sans-serif; }
  .title { font-size: 20px; font-weight: bold; }
  .label { font-size: 14px; }
  .legend { font-size: 14px; }
  .axis { stroke: var(--axis); stroke-width: 2; }
  .grid { stroke: var(--grid); stroke-dasharray: 4,4; stroke-width: 1; }
  .tick { stroke: var(--axis); stroke-width: 2; }
</style>
<rect width="100%" height="100%" fill="var(--bg)"/>
<text x="400.0" y="25.0" text-anchor="middle" class="text title">shift in Domain (spheres on gpu - NVIDIA GeForce RTX 5070 Ti Laptop GPU)</text>
<line x1="80" y1="50" x2="80" y2="350" class="axis"/>
<line x1="80" y1="350" x2="650" y2="350" class="axis"/>
<text x="70" y="355.0" text-anchor="end" class="text label">0.00</text>
<line x1="80" y1="350.0" x2="650" y2="350.0" class="grid"/>
<line x1="75" y1="350.0" x2="80" y2="350.0" class="tick"/>
<text x="70" y="280.0" text-anchor="end" class="text label">0.32</text>
<line x1="80" y1="275.0" x2="650" y2="275.0" class="grid"/>
<line x1="75" y1="275.0" x2="80" y2="275.0" class="tick"/>
<text x="70" y="205.0" text-anchor="end" class="text label">0.64</text>
<line x1="80" y1="200.0" x2="650" y2="200.0" class="grid"/>
<line x1="75" y1="200.0" x2="80" y2="200.0" class="tick"/>
<text x="70" y="130.0" text-anchor="end" class="text label">0.96</text>
<line x1="80" y1="125.0" x2="650" y2="125.0" class="grid"/>
<line x1="75" y1="125.0" x2="80" y2="125.0" class="tick"/>
<text x="70" y="55.0" text-anchor="end" class="text label">1.29</text>
<line x1="80" y1="50.0" x2="650" y2="50.0" class="grid"/>
<line x1="75" y1="50.0" x2="80" y2="50.0" class="tick"/>
<g transform="translate(80.0,370) rotate(45)"><text x="0" y="0" class="text label">6086975</text></g>
<line x1="80.0" y1="350" x2="80.0" y2="355" class="tick"/>
<g transform="translate(270.0,370) rotate(45)"><text x="0" y="0" class="text label">cb7cb9f</text></g>
<line x1="270.0" y1="350" x2="270.0" y2="355" class="tick"/>
<g transform="translate(460.0,370) rotate(45)"><text x="0" y="0" class="text label">93080d6</text></g>
<line x1="460.0" y1="350" x2="460.0" y2="355" class="tick"/>
<g transform="translate(650.0,370) rotate(45)"><text x="0" y="0" class="text label">current</text></g>
<line x1="650.0" y1="350" x2="650.0" y2="355" class="tick"/>
<line x1="80.0" y1="224.8712475963" x2="80.0" y2="149.54214533546627" stroke="var(--c0)" stroke-width="2"/>
<line x1="75.0" y1="224.8712475963" x2="85.0" y2="224.8712475963" stroke="var(--c0)" stroke-width="2"/>
<line x1="75.0" y1="149.54214533546627" x2="85.0" y2="149.54214533546627" stroke="var(--c0)" stroke-width="2"/>
<circle cx="80.0" cy="187.20669646588314" r="5" fill="var(--c0)"/>
<line x1="270.0" y1="230.85689298880118" x2="270.0" y2="183.13046211472843" stroke="var(--c0)" stroke-width="2"/>
<line x1="265.0" y1="230.85689298880118" x2="275.0" y2="230.85689298880118" stroke="var(--c0)" stroke-width="2"/>
<line x1="265.0" y1="183.13046211472843" x2="275.0" y2="183.13046211472843" stroke="var(--c0)" stroke-width="2"/>
<circle cx="270.0" cy="206.99367755176482" r="5" fill="var(--c0)"/>
<line x1="460.0" y1="236.62511760559275" x2="460.0" y2="77.27272727272731" stroke="var(--c0)" stroke-width="2"/>
<line x1="455.0" y1="236.62511760559275" x2="465.0" y2="236.62511760559275" stroke="var(--c0)" stroke-width="2"/>
<line x1="455.0" y1="77.27272727272731" x2="465.0" y2="77.27272727272731" stroke="var(--c0)" stroke-width="2"/>
<circle cx="460.0" cy="156.94892243916001" r="5" fill="var(--c0)"/>
<line x1="650.0" y1="236.62511760559275" x2="650.0" y2="77.27272727272731" stroke="var(--c0)" stroke-width="2"/>
<line x1="645.0" y1="236.62511760559275" x2="655.0" y2="236.62511760559275" stroke="var(--c0)" stroke-width="2"/>
<line x1="645.0" y1="77.27272727272731" x2="655.0" y2="77.27272727272731" stroke="var(--c0)" stroke-width="2"/>
<circle cx="650.0" cy="156.94892243916001" r="5" fill="var(--c0)"/>
<rect x="660" y="50" width="20" height="12" fill="var(--c0)"/>
<text x="690" y="61" class="text legend">free</text>
<line x1="80.0" y1="226.08258580563214" x2="80.0" y2="172.89987746203025" stroke="var(--c1)" stroke-width="2"/>
<line x1="75.0" y1="226.08258580563214" x2="85.0" y2="226.08258580563214" stroke="var(--c1)" stroke-width="2"/>
<line x1="75.0" y1="172.89987746203025" x2="85.0" y2="172.89987746203025" stroke="var(--c1)" stroke-width="2"/>
<circle cx="80.0" cy="199.4912316338312" r="5" fill="var(--c1)"/>
<line x1="270.0" y1="243.49789337960706" x2="270.0" y2="189.8336420370544" stroke="var(--c1)" stroke-width="2"/>
<line x1="265.0" y1="243.49789337960706" x2="275.0" y2="243.49789337960706" stroke="var(--c1)" stroke-width="2"/>
<line x1="265.0" y1="189.8336420370544" x2="275.0" y2="189.8336420370544" stroke="var(--c1)" stroke-width="2"/>
<circle cx="270.0" cy="216.66576770833075" r="5" fill="var(--c1)"/>
<line x1="460.0" y1="175.81116124304447" x2="460.0" y2="164.3506240623775" stroke="var(--c1)" stroke-width="2"/>
<line x1="455.0" y1="175.81116124304447" x2="465.0" y2="175.81116124304447" stroke="var(--c1)" stroke-width="2"/>
<line x1="455.0" y1="164.3506240623775" x2="465.0" y2="164.3506240623775" stroke="var(--c1)" stroke-width="2"/>
<circle cx="460.0" cy="170.080892652711" r="5" fill="var(--c1)"/>
<line x1="650.0" y1="175.81116124304447" x2="650.0" y2="164.3506240623775" stroke="var(--c1)" stroke-width="2"/>
<line x1="645.0" y1="175.81116124304447" x2="655.0" y2="175.81116124304447" stroke="var(--c1)" stroke-width="2"/>
<line x1="645.0" y1="164.3506240623775" x2="655.0" y2="164.3506240623775" stroke="var(--c1)" stroke-width="2"/>
<circle cx="650.0" cy="170.080892652711" r="5" fill="var(--c1)"/>
<rect x="660" y="75" width="20" height="12" fill="var(--c1)"/>
<text x="690" y="86" class="text legend">periodic</text>
<line x1="80.0" y1="260.1758475551133" x2="80.0" y2="170.0056873515068" stroke="var(--c2)" stroke-width="2"/>
<line x1="75.0" y1="260.1758475551133" x2="85.0" y2="260.1758475551133" stroke="var(--c2)" stroke-width="2"/>
<line x1="75.0" y1="170.0056873515068" x2="85.0" y2="170.0056873515068" stroke="var(--c2)" stroke-width="2"/>
<circle cx="80.0" cy="215.09076745331006" r="5" fill="var(--c2)"/>
<line x1="270.0" y1="192.70821701476" x2="270.0" y2="123.49540593394676" stroke="var(--c2)" stroke-width="2"/>
<line x1="265.0" y1="192.70821701476" x2="275.0" y2="192.70821701476" stroke="var(--c2)" stroke-width="2"/>
<line x1="265.0" y1="123.49540593394676" x2="275.0" y2="123.49540593394676" stroke="var(--c2)" stroke-width="2"/>
<circle cx="270.0" cy="158.10181147435338" r="5" fill="var(--c2)"/>
<line x1="460.0" y1="180.500443258033" x2="460.0" y2="161.88170145544686" stroke="var(--c2)" stroke-width="2"/>
<line x1="455.0" y1="180.500443258033" x2="465.0" y2="180.500443258033" stroke="var(--c2)" stroke-width="2"/>
<line x1="455.0" y1="161.88170145544686" x2="465.0" y2="161.88170145544686" stroke="var(--c2)" stroke-width="2"/>
<circle cx="460.0" cy="171.19107235673994" r="5" fill="var(--c2)"/>
<line x1="650.0" y1="180.500443258033" x2="650.0" y2="161.88170145544686" stroke="var(--c2)" stroke-width="2"/>
<line x1="645.0" y1="180.500443258033" x2="655.0" y2="180.500443258033" stroke="var(--c2)" stroke-width="2"/>
<line x1="645.0" y1="161.88170145544686" x2="655.0" y2="161.88170145544686" stroke="var(--c2)" stroke-width="2"/>
<circle cx="650.0" cy="171.19107235673994" r="5" fill="var(--c2)"/>
<rect x="660" y="100" width="20" height="12" fill="var(--c2)"/>
<text x="690" y="111" class="text legend">reflect</text>
<line x1="80.0" y1="172.6452348234735" x2="80.0" y2="96.67394253922245" stroke="var(--c3)" stroke-width="2"/>
<line x1="75.0" y1="172.6452348234735" x2="85.0" y2="172.6452348234735" stroke="var(--c3)" stroke-width="2"/>
<line x1="75.0" y1="96.67394253922245" x2="85.0" y2="96.67394253922245" stroke="var(--c3)" stroke-width="2"/>
<circle cx="80.0" cy="134.65958868134797" r="5" fill="var(--c3)"/>
<line x1="270.0" y1="220.10632354111038" x2="270.0" y2="185.5990147518664" stroke="var(--c3)" stroke-width="2"/>
<line x1="265.0" y1="220.10632354111038" x2="275.0" y2="220.10632354111038" stroke="var(--c3)" stroke-width="2"/>
<line x1="265.0" y1="185.5990147518664" x2="275.0" y2="185.5990147518664" stroke="var(--c3)" stroke-width="2"/>
<circle cx="270.0" cy="202.85266914648838" r="5" fill="var(--c3)"/>
<line x1="460.0" y1="181.07424353607706" x2="460.0" y2="164.68847728411333" stroke="var(--c3)" stroke-width="2"/>
<line x1="455.0" y1="181.07424353607706" x2="465.0" y2="181.07424353607706" stroke="var(--c3)" stroke-width="2"/>
<line x1="455.0" y1="164.68847728411333" x2="465.0" y2="164.68847728411333" stroke="var(--c3)" stroke-width="2"/>
<circle cx="460.0" cy="172.8813604100952" r="5" fill="var(--c3)"/>
<line x1="650.0" y1="181.07424353607706" x2="650.0" y2="164.68847728411333" stroke="var(--c3)" stroke-width="2"/>
<line x1="645.0" y1="181.07424353607706" x2="655.0" y2="181.07424353607706" stroke="var(--c3)" stroke-width="2"/>
<line x1="645.0" y1="164.68847728411333" x2="655.0" y2="164.68847728411333" stroke="var(--c3)" stroke-width="2"/>
<circle cx="650.0" cy="172.8813604100952" r="5" fill="var(--c3)"/>
<rect x="660" y="125" width="20" height="12" fill="var(--c3)"/>
<text x="690" y="136" class="text legend">reflectsphere</text>
</svg>