<svg width="800" height="450" xmlns="http://www.w3.org/2000/svg">
<style>
  :root {
    --bg: #ffffff;
    --axis: #212121;
    --grid: #e0e0e0;
    --text: #212121;
    --c0: #007bff; --c1: #fd7e14; --c2: #28a745;
    --c3: #dc3545; --c4: #6f42c1; --c5: #17a2b8;
  }
  @media (prefers-color-scheme: dark) {
    :root {
      --bg: #292D35;
      --axis: #cdd2d5;
      --grid: #333b45;
      --text: #cdd2d5;
      --c0: #66b2ff; --c1: #ffb366; --c2: #71d18d;
      --c3: #ff8585; --c4: #b388ff; --c5: #7dd3fc;
    }
  }
  .text { fill: var(--text); font-family: -apple-system,BlinkMacSystemFont,Segoe UI,Helvetica,Arial,sans-serif; }
  .title { font-size: 20px; font-weight: bold; }
  .label { font-size: 14px; }
  .legend { font-size: 14px; }
  .axis { stroke: var(--axis); stroke-width: 2; }
  .grid { stroke: var(--grid); stroke-dasharray: 4,4; stroke-width: 1; }
  .tick { stroke: var(--axis); stroke-width: 2; }
</style>
<rect width="100%" height="100%" fill="var(--bg)"/>
<text x="400.0" y="25.0" text-anchor="middle" class="text title">step_after_force in Integrator (spheres on gpu - NVIDIA GeForce RTX 3050 Laptop GPU)</text>
<line x1="80" y1="50" x2="80" y2="350" class="axis"/>
<line x1="80" y1="350" x2="650" y2="350" class="axis"/>
<text x="70" y="355.0" text-anchor="end" class="text label">0.00</text>
<line x1="80" y1="350.0" x2="650" y2="350.0" class="grid"/>
<line x1="75" y1="350.0" x2="80" y2="350.0" class="tick"/>
<text x="70" y="280.0" text-anchor="end" class="text label">1.27</text>
<line x1="80" y1="275.0" x2="650" y2="275.0" class="grid"/>
<line x1="75" y1="275.0" x2="80" y2="275.0" class="tick"/>
<text x="70" y="205.0" text-anchor="end" class="text label">2.55</text>
<line x1="80" y1="200.0" x2="650" y2="200.0" class="grid"/>
<line x1="75" y1="200.0" x2="80" y2="200.0" class="tick"/>
<text x="70" y="130.0" text-anchor="end" class="text label">3.82</text>
<line x1="80" y1="125.0" x2="650" y2="125.0" class="grid"/>
<line x1="75" y1="125.0" x2="80" y2="125.0" class="tick"/>
<text x="70" y="55.0" text-anchor="end" class="text label">5.09</text>
<line x1="80" y1="50.0" x2="650" y2="50.0" class="grid"/>
<line x1="75" y1="50.0" x2="80" y2="50.0" class="tick"/>
<g transform="translate(80.0,370) rotate(45)"><text x="0" y="0" class="text label">01c54b2</text></g>
<line x1="80.0" y1="350" x2="80.0" y2="355" class="tick"/>
<g transform="translate(650.0,370) rotate(45)"><text x="0" y="0" class="text label">current</text></g>
<line x1="650.0" y1="350" x2="650.0" y2="355" class="tick"/>
<line x1="80.0" y1="226.69606644557024" x2="80.0" y2="222.54257216187176" stroke="var(--c0)" stroke-width="2"/>
<line x1="75.0" y1="226.69606644557024" x2="85.0" y2="226.69606644557024" stroke="var(--c0)" stroke-width="2"/>
<line x1="75.0" y1="222.54257216187176" x2="85.0" y2="222.54257216187176" stroke="var(--c0)" stroke-width="2"/>
<circle cx="80.0" cy="224.619319303721" r="5" fill="var(--c0)"/>
<line x1="650.0" y1="93.29106992669256" x2="650.0" y2="77.27272727272731" stroke="var(--c0)" stroke-width="2"/>
<line x1="645.0" y1="93.29106992669256" x2="655.0" y2="93.29106992669256" stroke="var(--c0)" stroke-width="2"/>
<line x1="645.0" y1="77.27272727272731" x2="655.0" y2="77.27272727272731" stroke="var(--c0)" stroke-width="2"/>
<circle cx="650.0" cy="85.2818985997099" r="5" fill="var(--c0)"/>
<rect x="660" y="50" width="20" height="12" fill="var(--c0)"/>
<text x="690" y="61" class="text legend">euler</text>
<line x1="80.0" y1="226.6220434444378" x2="80.0" y2="223.11151110673302" stroke="var(--c1)" stroke-width="2"/>
<line x1="75.0" y1="226.6220434444378" x2="85.0" y2="226.6220434444378" stroke="var(--c1)" stroke-width="2"/>
<line x1="75.0" y1="223.11151110673302" x2="85.0" y2="223.11151110673302" stroke="var(--c1)" stroke-width="2"/>
<circle cx="80.0" cy="224.8667772755854" r="5" fill="var(--c1)"/>
<line x1="650.0" y1="97.37176397367205" x2="650.0" y2="84.56416011516012" stroke="var(--c1)" stroke-width="2"/>
<line x1="645.0" y1="97.37176397367205" x2="655.0" y2="97.37176397367205" stroke="var(--c1)" stroke-width="2"/>
<line x1="645.0" y1="84.56416011516012" x2="655.0" y2="84.56416011516012" stroke="var(--c1)" stroke-width="2"/>
<circle cx="650.0" cy="90.96796204441608" r="5" fill="var(--c1)"/>
<rect x="660" y="75" width="20" height="12" fill="var(--c1)"/>
<text x="690" y="86" class="text legend">verlet</text>
</svg>