<svg width="800" height="450" xmlns="http://www.w3.org/2000/svg">
<style>
  :root {
    --bg: #ffffff;
    --axis: #212121;
    --grid: #e0e0e0;
    --text: #212121;
    --c0: #007bff; --c1: #fd7e14; --c2: #28a745;
    --c3: #dc3545; --c4: #6f42c1; --c5: #17a2b8;
  }
  @media (prefers-color-scheme: dark) {
    :root {
      --bg: #292D35;
      --axis: #cdd2d5;
      --grid: #333b45;
      --text: #cdd2d5;
      --c0: #66b2ff; --c1: #ffb366; --c2: #71d18d;
      --c3: #ff8585; --c4: #b388ff; --c5: #7dd3fc;
    }
  }
  .text { fill: var(--text); font-family: -apple-system,BlinkMacSystemFont,Segoe UI,Helvetica,Arial,sans-serif; }
  .title { font-size: 20px; font-weight: bold; }
  .label { font-size: 14px; }
  .legend { font-size: 14px; }
  .axis { stroke: var(--axis); stroke-width: 2; }
  .grid { stroke: var(--grid); stroke-dasharray: 4,4; stroke-width: 1; }
  .tick { stroke: var(--axis); stroke-width: 2; }
</style>
<rect width="100%" height="100%" fill="var(--bg)"/>
<text x="400.0" y="25.0" text-anchor="middle" class="text title">apply in Domain (spheres on gpu - NVIDIA GeForce RTX 5070 Ti Laptop GPU)</text>
<line x1="80" y1="50" x2="80" y2="350" class="axis"/>
<line x1="80" y1="350" x2="650" y2="350" class="axis"/>
<text x="70" y="355.0" text-anchor="end" class="text label">0.00</text>
<line x1="80" y1="350.0" x2="650" y2="350.0" class="grid"/>
<line x1="75" y1="350.0" x2="80" y2="350.0" class="tick"/>
<text x="70" y="280.0" text-anchor="end" class="text label">0.47</text>
<line x1="80" y1="275.0" x2="650" y2="275.0" class="grid"/>
<line x1="75" y1="275.0" x2="80" y2="275.0" class="tick"/>
<text x="70" y="205.0" text-anchor="end" class="text label">0.94</text>
<line x1="80" y1="200.0" x2="650" y2="200.0" class="grid"/>
<line x1="75" y1="200.0" x2="80" y2="200.0" class="tick"/>
<text x="70" y="130.0" text-anchor="end" class="text label">1.42</text>
<line x1="80" y1="125.0" x2="650" y2="125.0" class="grid"/>
<line x1="75" y1="125.0" x2="80" y2="125.0" class="tick"/>
<text x="70" y="55.0" text-anchor="end" class="text label">1.89</text>
<line x1="80" y1="50.0" x2="650" y2="50.0" class="grid"/>
<line x1="75" y1="50.0" x2="80" y2="50.0" class="tick"/>
<g transform="translate(80.0,370) rotate(45)"><text x="0" y="0" class="text label">6086975</text></g>
<line x1="80.0" y1="350" x2="80.0" y2="355" class="tick"/>
<g transform="translate(270.0,370) rotate(45)"><text x="0" y="0" class="text label">cb7cb9f</text></g>
<line x1="270.0" y1="350" x2="270.0" y2="355" class="tick"/>
<g transform="translate(460.0,370) rotate(45)"><text x="0" y="0" class="text label">93080d6</text></g>
<line x1="460.0" y1="350" x2="460.0" y2="355" class="tick"/>
<g transform="translate(650.0,370) rotate(45)"><text x="0" y="0" class="text label">current</text></g>
<line x1="650.0" y1="350" x2="650.0" y2="355" class="tick"/>
<line x1="80.0" y1="220.9552656733875" x2="80.0" y2="153.68815739257852" stroke="var(--c0)" stroke-width="2"/>
<line x1="75.0" y1="220.9552656733875" x2="85.0" y2="220.9552656733875" stroke="var(--c0)" stroke-width="2"/>
<line x1="75.0" y1="153.68815739257852" x2="85.0" y2="153.68815739257852" stroke="var(--c0)" stroke-width="2"/>
<circle cx="80.0" cy="187.32171153298302" r="5" fill="var(--c0)"/>
<line x1="270.0" y1="259.50632541424045" x2="270.0" y2="212.32493587282494" stroke="var(--c0)" stroke-width="2"/>
<line x1="265.0" y1="259.50632541424045" x2="275.0" y2="259.50632541424045" stroke="var(--c0)" stroke-width="2"/>
<line x1="265.0" y1="212.32493587282494" x2="275.0" y2="212.32493587282494" stroke="var(--c0)" stroke-width="2"/>
<circle cx="270.0" cy="235.91563064353272" r="5" fill="var(--c0)"/>
<line x1="460.0" y1="233.97456029621074" x2="460.0" y2="210.51978828640998" stroke="var(--c0)" stroke-width="2"/>
<line x1="455.0" y1="233.97456029621074" x2="465.0" y2="233.97456029621074" stroke="var(--c0)" stroke-width="2"/>
<line x1="455.0" y1="210.51978828640998" x2="465.0" y2="210.51978828640998" stroke="var(--c0)" stroke-width="2"/>
<circle cx="460.0" cy="222.24717429131036" r="5" fill="var(--c0)"/>
<line x1="650.0" y1="233.97456029621074" x2="650.0" y2="210.51978828640998" stroke="var(--c0)" stroke-width="2"/>
<line x1="645.0" y1="233.97456029621074" x2="655.0" y2="233.97456029621074" stroke="var(--c0)" stroke-width="2"/>
<line x1="645.0" y1="210.51978828640998" x2="655.0" y2="210.51978828640998" stroke="var(--c0)" stroke-width="2"/>
<circle cx="650.0" cy="222.24717429131036" r="5" fill="var(--c0)"/>
<rect x="660" y="50" width="20" height="12" fill="var(--c0)"/>
<text x="690" y="61" class="text legend">free</text>
<line x1="80.0" y1="284.46476504654044" x2="80.0" y2="243.16723940746635" stroke="var(--c1)" stroke-width="2"/>
<line x1="75.0" y1="284.46476504654044" x2="85.0" y2="284.46476504654044" stroke="var(--c1)" stroke-width="2"/>
<line x1="75.0" y1="243.16723940746635" x2="85.0" y2="243.16723940746635" stroke="var(--c1)" stroke-width="2"/>
<circle cx="80.0" cy="263.8160022270034" r="5" fill="var(--c1)"/>
<line x1="270.0" y1="272.97781236909924" x2="270.0" y2="254.31643878824866" stroke="var(--c1)" stroke-width="2"/>
<line x1="265.0" y1="272.97781236909924" x2="275.0" y2="272.97781236909924" stroke="var(--c1)" stroke-width="2"/>
<line x1="265.0" y1="254.31643878824866" x2="275.0" y2="254.31643878824866" stroke="var(--c1)" stroke-width="2"/>
<circle cx="270.0" cy="263.6471255786739" r="5" fill="var(--c1)"/>
<line x1="460.0" y1="271.195042799523" x2="460.0" y2="114.35432525691039" stroke="var(--c1)" stroke-width="2"/>
<line x1="455.0" y1="271.195042799523" x2="465.0" y2="271.195042799523" stroke="var(--c1)" stroke-width="2"/>
<line x1="455.0" y1="114.35432525691039" x2="465.0" y2="114.35432525691039" stroke="var(--c1)" stroke-width="2"/>
<circle cx="460.0" cy="192.77468402821665" r="5" fill="var(--c1)"/>
<line x1="650.0" y1="271.195042799523" x2="650.0" y2="114.35432525691039" stroke="var(--c1)" stroke-width="2"/>
<line x1="645.0" y1="271.195042799523" x2="655.0" y2="271.195042799523" stroke="var(--c1)" stroke-width="2"/>
<line x1="645.0" y1="114.35432525691039" x2="655.0" y2="114.35432525691039" stroke="var(--c1)" stroke-width="2"/>
<circle cx="650.0" cy="192.77468402821665" r="5" fill="var(--c1)"/>
<rect x="660" y="75" width="20" height="12" fill="var(--c1)"/>
<text x="690" y="86" class="text legend">periodic</text>
<line x1="80.0" y1="145.16273943945413" x2="80.0" y2="95.15984038235749" stroke="var(--c2)" stroke-width="2"/>
<line x1="75.0" y1="145.16273943945413" x2="85.0" y2="145.16273943945413" stroke="var(--c2)" stroke-width="2"/>
<line x1="75.0" y1="95.15984038235749" x2="85.0" y2="95.15984038235749" stroke="var(--c2)" stroke-width="2"/>
<circle cx="80.0" cy="120.1612899109058" r="5" fill="var(--c2)"/>
<line x1="270.0" y1="165.65588561642187" x2="270.0" y2="86.26774896709964" stroke="var(--c2)" stroke-width="2"/>
<line x1="265.0" y1="165.65588561642187" x2="275.0" y2="165.65588561642187" stroke="var(--c2)" stroke-width="2"/>
<line x1="265.0" y1="86.26774896709964" x2="275.0" y2="86.26774896709964" stroke="var(--c2)" stroke-width="2"/>
<circle cx="270.0" cy="125.96181729176078" r="5" fill="var(--c2)"/>
<line x1="460.0" y1="127.61339343212086" x2="460.0" y2="77.27272727272731" stroke="var(--c2)" stroke-width="2"/>
<line x1="455.0" y1="127.61339343212086" x2="465.0" y2="127.61339343212086" stroke="var(--c2)" stroke-width="2"/>
<line x1="455.0" y1="77.27272727272731" x2="465.0" y2="77.27272727272731" stroke="var(--c2)" stroke-width="2"/>
<circle cx="460.0" cy="102.44306035242406" r="5" fill="var(--c2)"/>
<line x1="650.0" y1="127.61339343212086" x2="650.0" y2="77.27272727272731" stroke="var(--c2)" stroke-width="2"/>
<line x1="645.0" y1="127.61339343212086" x2="655.0" y2="127.61339343212086" stroke="var(--c2)" stroke-width="2"/>
<line x1="645.0" y1="77.27272727272731" x2="655.0" y2="77.27272727272731" stroke="var(--c2)" stroke-width="2"/>
<circle cx="650.0" cy="102.44306035242406" r="5" fill="var(--c2)"/>
<rect x="660" y="100" width="20" height="12" fill="var(--c2)"/>
<text x="690" y="111" class="text legend">reflect</text>
<line x1="80.0" y1="268.0964415655353" x2="80.0" y2="222.67378840496067" stroke="var(--c3)" stroke-width="2"/>
<line x1="75.0" y1="268.0964415655353" x2="85.0" y2="268.0964415655353" stroke="var(--c3)" stroke-width="2"/>
<line x1="75.0" y1="222.67378840496067" x2="85.0" y2="222.67378840496067" stroke="var(--c3)" stroke-width="2"/>
<circle cx="80.0" cy="245.38511498524798" r="5" fill="var(--c3)"/>
<line x1="270.0" y1="273.378900124592" x2="270.0" y2="236.22055108075375" stroke="var(--c3)" stroke-width="2"/>
<line x1="265.0" y1="273.378900124592" x2="275.0" y2="273.378900124592" stroke="var(--c3)" stroke-width="2"/>
<line x1="265.0" y1="236.22055108075375" x2="275.0" y2="236.22055108075375" stroke="var(--c3)" stroke-width="2"/>
<circle cx="270.0" cy="254.79972560267288" r="5" fill="var(--c3)"/>
<line x1="460.0" y1="243.05287714352806" x2="460.0" y2="204.1731961257218" stroke="var(--c3)" stroke-width="2"/>
<line x1="455.0" y1="243.05287714352806" x2="465.0" y2="243.05287714352806" stroke="var(--c3)" stroke-width="2"/>
<line x1="455.0" y1="204.1731961257218" x2="465.0" y2="204.1731961257218" stroke="var(--c3)" stroke-width="2"/>
<circle cx="460.0" cy="223.61303663462493" r="5" fill="var(--c3)"/>
<line x1="650.0" y1="243.05287714352806" x2="650.0" y2="204.1731961257218" stroke="var(--c3)" stroke-width="2"/>
<line x1="645.0" y1="243.05287714352806" x2="655.0" y2="243.05287714352806" stroke="var(--c3)" stroke-width="2"/>
<line x1="645.0" y1="204.1731961257218" x2="655.0" y2="204.1731961257218" stroke="var(--c3)" stroke-width="2"/>
<circle cx="650.0" cy="223.61303663462493" r="5" fill="var(--c3)"/>
<rect x="660" y="125" width="20" height="12" fill="var(--c3)"/>
<text x="690" y="136" class="text legend">reflectsphere</text>
</svg>