<svg width="800" height="450" xmlns="http://www.w3.org/2000/svg">
<style>
  :root {
    --bg: #ffffff;
    --axis: #212121;
    --grid: #e0e0e0;
    --text: #212121;
    --c0: #007bff; --c1: #fd7e14; --c2: #28a745;
    --c3: #dc3545; --c4: #6f42c1; --c5: #17a2b8;
  }
  @media (prefers-color-scheme: dark) {
    :root {
      --bg: #292D35;
      --axis: #cdd2d5;
      --grid: #333b45;
      --text: #cdd2d5;
      --c0: #66b2ff; --c1: #ffb366; --c2: #71d18d;
      --c3: #ff8585; --c4: #b388ff; --c5: #7dd3fc;
    }
  }
  .text { fill: var(--text); font-family: -apple-system,BlinkMacSystemFont,Segoe UI,Helvetica,Arial,sans-serif; }
  .title { font-size: 20px; font-weight: bold; }
  .label { font-size: 14px; }
  .legend { font-size: 14px; }
  .axis { stroke: var(--axis); stroke-width: 2; }
  .grid { stroke: var(--grid); stroke-dasharray: 4,4; stroke-width: 1; }
  .tick { stroke: var(--axis); stroke-width: 2; }
</style>
<rect width="100%" height="100%" fill="var(--bg)"/>
<text x="400.0" y="25.0" text-anchor="middle" class="text title">displacement in Domain (spheres on gpu - NVIDIA GeForce RTX 3050 Laptop GPU)</text>
<line x1="80" y1="50" x2="80" y2="350" class="axis"/>
<line x1="80" y1="350" x2="650" y2="350" class="axis"/>
<text x="70" y="355.0" text-anchor="end" class="text label">0.00</text>
<line x1="80" y1="350.0" x2="650" y2="350.0" class="grid"/>
<line x1="75" y1="350.0" x2="80" y2="350.0" class="tick"/>
<text x="70" y="280.0" text-anchor="end" class="text label">0.52</text>
<line x1="80" y1="275.0" x2="650" y2="275.0" class="grid"/>
<line x1="75" y1="275.0" x2="80" y2="275.0" class="tick"/>
<text x="70" y="205.0" text-anchor="end" class="text label">1.04</text>
<line x1="80" y1="200.0" x2="650" y2="200.0" class="grid"/>
<line x1="75" y1="200.0" x2="80" y2="200.0" class="tick"/>
<text x="70" y="130.0" text-anchor="end" class="text label">1.56</text>
<line x1="80" y1="125.0" x2="650" y2="125.0" class="grid"/>
<line x1="75" y1="125.0" x2="80" y2="125.0" class="tick"/>
<text x="70" y="55.0" text-anchor="end" class="text label">2.08</text>
<line x1="80" y1="50.0" x2="650" y2="50.0" class="grid"/>
<line x1="75" y1="50.0" x2="80" y2="50.0" class="tick"/>
<g transform="translate(80.0,370) rotate(45)"><text x="0" y="0" class="text label">01c54b2</text></g>
<line x1="80.0" y1="350" x2="80.0" y2="355" class="tick"/>
<g transform="translate(650.0,370) rotate(45)"><text x="0" y="0" class="text label">current</text></g>
<line x1="650.0" y1="350" x2="650.0" y2="355" class="tick"/>
<line x1="80.0" y1="276.2016593033116" x2="80.0" y2="272.4828359539055" stroke="var(--c0)" stroke-width="2"/>
<line x1="75.0" y1="276.2016593033116" x2="85.0" y2="276.2016593033116" stroke="var(--c0)" stroke-width="2"/>
<line x1="75.0" y1="272.4828359539055" x2="85.0" y2="272.4828359539055" stroke="var(--c0)" stroke-width="2"/>
<circle cx="80.0" cy="274.34224762860856" r="5" fill="var(--c0)"/>
<line x1="650.0" y1="236.4505749370104" x2="650.0" y2="232.29860961925837" stroke="var(--c0)" stroke-width="2"/>
<line x1="645.0" y1="236.4505749370104" x2="655.0" y2="236.4505749370104" stroke="var(--c0)" stroke-width="2"/>
<line x1="645.0" y1="232.29860961925837" x2="655.0" y2="232.29860961925837" stroke="var(--c0)" stroke-width="2"/>
<circle cx="650.0" cy="234.3745922781344" r="5" fill="var(--c0)"/>
<rect x="660" y="50" width="20" height="12" fill="var(--c0)"/>
<text x="690" y="61" class="text legend">free</text>
<line x1="80.0" y1="274.26092698294974" x2="80.0" y2="258.9523202089834" stroke="var(--c1)" stroke-width="2"/>
<line x1="75.0" y1="274.26092698294974" x2="85.0" y2="274.26092698294974" stroke="var(--c1)" stroke-width="2"/>
<line x1="75.0" y1="258.9523202089834" x2="85.0" y2="258.9523202089834" stroke="var(--c1)" stroke-width="2"/>
<circle cx="80.0" cy="266.60662359596654" r="5" fill="var(--c1)"/>
<line x1="650.0" y1="233.03230938652342" x2="650.0" y2="218.0485841958449" stroke="var(--c1)" stroke-width="2"/>
<line x1="645.0" y1="233.03230938652342" x2="655.0" y2="233.03230938652342" stroke="var(--c1)" stroke-width="2"/>
<line x1="645.0" y1="218.0485841958449" x2="655.0" y2="218.0485841958449" stroke="var(--c1)" stroke-width="2"/>
<circle cx="650.0" cy="225.54044679118417" r="5" fill="var(--c1)"/>
<rect x="660" y="75" width="20" height="12" fill="var(--c1)"/>
<text x="690" y="86" class="text legend">periodic</text>
<line x1="80.0" y1="266.52883856982635" x2="80.0" y2="263.00086782292476" stroke="var(--c2)" stroke-width="2"/>
<line x1="75.0" y1="266.52883856982635" x2="85.0" y2="266.52883856982635" stroke="var(--c2)" stroke-width="2"/>
<line x1="75.0" y1="263.00086782292476" x2="85.0" y2="263.00086782292476" stroke="var(--c2)" stroke-width="2"/>
<circle cx="80.0" cy="264.76485319637555" r="5" fill="var(--c2)"/>
<line x1="650.0" y1="242.70197462356887" x2="650.0" y2="223.10994340539395" stroke="var(--c2)" stroke-width="2"/>
<line x1="645.0" y1="242.70197462356887" x2="655.0" y2="242.70197462356887" stroke="var(--c2)" stroke-width="2"/>
<line x1="645.0" y1="223.10994340539395" x2="655.0" y2="223.10994340539395" stroke="var(--c2)" stroke-width="2"/>
<circle cx="650.0" cy="232.9059590144814" r="5" fill="var(--c2)"/>
<rect x="660" y="100" width="20" height="12" fill="var(--c2)"/>
<text x="690" y="111" class="text legend">reflect</text>
<line x1="80.0" y1="277.46997762253" x2="80.0" y2="272.6880206678096" stroke="var(--c3)" stroke-width="2"/>
<line x1="75.0" y1="277.46997762253" x2="85.0" y2="277.46997762253" stroke="var(--c3)" stroke-width="2"/>
<line x1="75.0" y1="272.6880206678096" x2="85.0" y2="272.6880206678096" stroke="var(--c3)" stroke-width="2"/>
<circle cx="80.0" cy="275.0789991451698" r="5" fill="var(--c3)"/>
<line x1="650.0" y1="303.8359510877501" x2="650.0" y2="77.27272727272731" stroke="var(--c3)" stroke-width="2"/>
<line x1="645.0" y1="303.8359510877501" x2="655.0" y2="303.8359510877501" stroke="var(--c3)" stroke-width="2"/>
<line x1="645.0" y1="77.27272727272731" x2="655.0" y2="77.27272727272731" stroke="var(--c3)" stroke-width="2"/>
<circle cx="650.0" cy="190.55433918023874" r="5" fill="var(--c3)"/>
<rect x="660" y="125" width="20" height="12" fill="var(--c3)"/>
<text x="690" y="136" class="text legend">reflectsphere</text>
</svg>