<svg width="800" height="450" xmlns="http://www.w3.org/2000/svg">
<style>
  :root {
    --bg: #ffffff;
    --axis: #212121;
    --grid: #e0e0e0;
    --text: #212121;
    --c0: #007bff; --c1: #fd7e14; --c2: #28a745;
    --c3: #dc3545; --c4: #6f42c1; --c5: #17a2b8;
  }
  @media (prefers-color-scheme: dark) {
    :root {
      --bg: #292D35;
      --axis: #cdd2d5;
      --grid: #333b45;
      --text: #cdd2d5;
      --c0: #66b2ff; --c1: #ffb366; --c2: #71d18d;
      --c3: #ff8585; --c4: #b388ff; --c5: #7dd3fc;
    }
  }
  .text { fill: var(--text); font-family: -apple-system,BlinkMacSystemFont,Segoe UI,Helvetica,Arial,sans-serif; }
  .title { font-size: 20px; font-weight: bold; }
  .label { font-size: 14px; }
  .legend { font-size: 14px; }
  .axis { stroke: var(--axis); stroke-width: 2; }
  .grid { stroke: var(--grid); stroke-dasharray: 4,4; stroke-width: 1; }
  .tick { stroke: var(--axis); stroke-width: 2; }
</style>
<rect width="100%" height="100%" fill="var(--bg)"/>
<text x="400.0" y="25.0" text-anchor="middle" class="text title">shift in Domain (spheres on gpu - NVIDIA GeForce RTX 3050 Laptop GPU)</text>
<line x1="80" y1="50" x2="80" y2="350" class="axis"/>
<line x1="80" y1="350" x2="650" y2="350" class="axis"/>
<text x="70" y="355.0" text-anchor="end" class="text label">0.00</text>
<line x1="80" y1="350.0" x2="650" y2="350.0" class="grid"/>
<line x1="75" y1="350.0" x2="80" y2="350.0" class="tick"/>
<text x="70" y="280.0" text-anchor="end" class="text label">1.32</text>
<line x1="80" y1="275.0" x2="650" y2="275.0" class="grid"/>
<line x1="75" y1="275.0" x2="80" y2="275.0" class="tick"/>
<text x="70" y="205.0" text-anchor="end" class="text label">2.63</text>
<line x1="80" y1="200.0" x2="650" y2="200.0" class="grid"/>
<line x1="75" y1="200.0" x2="80" y2="200.0" class="tick"/>
<text x="70" y="130.0" text-anchor="end" class="text label">3.95</text>
<line x1="80" y1="125.0" x2="650" y2="125.0" class="grid"/>
<line x1="75" y1="125.0" x2="80" y2="125.0" class="tick"/>
<text x="70" y="55.0" text-anchor="end" class="text label">5.26</text>
<line x1="80" y1="50.0" x2="650" y2="50.0" class="grid"/>
<line x1="75" y1="50.0" x2="80" y2="50.0" class="tick"/>
<g transform="translate(80.0,370) rotate(45)"><text x="0" y="0" class="text label">01c54b2</text></g>
<line x1="80.0" y1="350" x2="80.0" y2="355" class="tick"/>
<g transform="translate(650.0,370) rotate(45)"><text x="0" y="0" class="text label">current</text></g>
<line x1="650.0" y1="350" x2="650.0" y2="355" class="tick"/>
<line x1="80.0" y1="226.254170115404" x2="80.0" y2="221.8032762870109" stroke="var(--c0)" stroke-width="2"/>
<line x1="75.0" y1="226.254170115404" x2="85.0" y2="226.254170115404" stroke="var(--c0)" stroke-width="2"/>
<line x1="75.0" y1="221.8032762870109" x2="85.0" y2="221.8032762870109" stroke="var(--c0)" stroke-width="2"/>
<circle cx="80.0" cy="224.02872320120747" r="5" fill="var(--c0)"/>
<line x1="650.0" y1="95.18354308758714" x2="650.0" y2="77.27272727272731" stroke="var(--c0)" stroke-width="2"/>
<line x1="645.0" y1="95.18354308758714" x2="655.0" y2="95.18354308758714" stroke="var(--c0)" stroke-width="2"/>
<line x1="645.0" y1="77.27272727272731" x2="655.0" y2="77.27272727272731" stroke="var(--c0)" stroke-width="2"/>
<circle cx="650.0" cy="86.22813518015721" r="5" fill="var(--c0)"/>
<rect x="660" y="50" width="20" height="12" fill="var(--c0)"/>
<text x="690" y="61" class="text legend">free</text>
<line x1="80.0" y1="230.663996069596" x2="80.0" y2="223.5892293925351" stroke="var(--c1)" stroke-width="2"/>
<line x1="75.0" y1="230.663996069596" x2="85.0" y2="230.663996069596" stroke="var(--c1)" stroke-width="2"/>
<line x1="75.0" y1="223.5892293925351" x2="85.0" y2="223.5892293925351" stroke="var(--c1)" stroke-width="2"/>
<circle cx="80.0" cy="227.12661273106556" r="5" fill="var(--c1)"/>
<line x1="650.0" y1="92.88313135058729" x2="650.0" y2="83.4567222218023" stroke="var(--c1)" stroke-width="2"/>
<line x1="645.0" y1="92.88313135058729" x2="655.0" y2="92.88313135058729" stroke="var(--c1)" stroke-width="2"/>
<line x1="645.0" y1="83.4567222218023" x2="655.0" y2="83.4567222218023" stroke="var(--c1)" stroke-width="2"/>
<circle cx="650.0" cy="88.16992678619482" r="5" fill="var(--c1)"/>
<rect x="660" y="75" width="20" height="12" fill="var(--c1)"/>
<text x="690" y="86" class="text legend">periodic</text>
<line x1="80.0" y1="228.04152998622664" x2="80.0" y2="223.10066003717412" stroke="var(--c2)" stroke-width="2"/>
<line x1="75.0" y1="228.04152998622664" x2="85.0" y2="228.04152998622664" stroke="var(--c2)" stroke-width="2"/>
<line x1="75.0" y1="223.10066003717412" x2="85.0" y2="223.10066003717412" stroke="var(--c2)" stroke-width="2"/>
<circle cx="80.0" cy="225.57109501170038" r="5" fill="var(--c2)"/>
<line x1="650.0" y1="107.14822191842902" x2="650.0" y2="91.82404250732509" stroke="var(--c2)" stroke-width="2"/>
<line x1="645.0" y1="107.14822191842902" x2="655.0" y2="107.14822191842902" stroke="var(--c2)" stroke-width="2"/>
<line x1="645.0" y1="91.82404250732509" x2="655.0" y2="91.82404250732509" stroke="var(--c2)" stroke-width="2"/>
<circle cx="650.0" cy="99.48613221287704" r="5" fill="var(--c2)"/>
<rect x="660" y="100" width="20" height="12" fill="var(--c2)"/>
<text x="690" y="111" class="text legend">reflect</text>
<line x1="80.0" y1="232.9095085803617" x2="80.0" y2="219.66008530018357" stroke="var(--c3)" stroke-width="2"/>
<line x1="75.0" y1="232.9095085803617" x2="85.0" y2="232.9095085803617" stroke="var(--c3)" stroke-width="2"/>
<line x1="75.0" y1="219.66008530018357" x2="85.0" y2="219.66008530018357" stroke="var(--c3)" stroke-width="2"/>
<circle cx="80.0" cy="226.28479694027266" r="5" fill="var(--c3)"/>
<line x1="650.0" y1="111.27576985922968" x2="650.0" y2="95.29964252654202" stroke="var(--c3)" stroke-width="2"/>
<line x1="645.0" y1="111.27576985922968" x2="655.0" y2="111.27576985922968" stroke="var(--c3)" stroke-width="2"/>
<line x1="645.0" y1="95.29964252654202" x2="655.0" y2="95.29964252654202" stroke="var(--c3)" stroke-width="2"/>
<circle cx="650.0" cy="103.28770619288585" r="5" fill="var(--c3)"/>
<rect x="660" y="125" width="20" height="12" fill="var(--c3)"/>
<text x="690" y="136" class="text legend">reflectsphere</text>
</svg>