<svg width="800" height="450" xmlns="http://www.w3.org/2000/svg">
<style>
  :root {
    --bg: #ffffff;
    --axis: #212121;
    --grid: #e0e0e0;
    --text: #212121;
    --c0: #007bff; --c1: #fd7e14; --c2: #28a745;
    --c3: #dc3545; --c4: #6f42c1; --c5: #17a2b8;
  }
  @media (prefers-color-scheme: dark) {
    :root {
      --bg: #292D35;
      --axis: #cdd2d5;
      --grid: #333b45;
      --text: #cdd2d5;
      --c0: #66b2ff; --c1: #ffb366; --c2: #71d18d;
      --c3: #ff8585; --c4: #b388ff; --c5: #7dd3fc;
    }
  }
  .text { fill: var(--text); font-family: -apple-system,BlinkMacSystemFont,Segoe UI,Helvetica,Arial,sans-serif; }
  .title { font-size: 20px; font-weight: bold; }
  .label { font-size: 14px; }
  .legend { font-size: 14px; }
  .axis { stroke: var(--axis); stroke-width: 2; }
  .grid { stroke: var(--grid); stroke-dasharray: 4,4; stroke-width: 1; }
  .tick { stroke: var(--axis); stroke-width: 2; }
</style>
<rect width="100%" height="100%" fill="var(--bg)"/>
<text x="400.0" y="25.0" text-anchor="middle" class="text title">displacement in Domain (spheres on gpu - NVIDIA GeForce RTX 5070 Ti Laptop GPU)</text>
<line x1="80" y1="50" x2="80" y2="350" class="axis"/>
<line x1="80" y1="350" x2="650" y2="350" class="axis"/>
<text x="70" y="355.0" text-anchor="end" class="text label">0.00</text>
<line x1="80" y1="350.0" x2="650" y2="350.0" class="grid"/>
<line x1="75" y1="350.0" x2="80" y2="350.0" class="tick"/>
<text x="70" y="280.0" text-anchor="end" class="text label">0.12</text>
<line x1="80" y1="275.0" x2="650" y2="275.0" class="grid"/>
<line x1="75" y1="275.0" x2="80" y2="275.0" class="tick"/>
<text x="70" y="205.0" text-anchor="end" class="text label">0.23</text>
<line x1="80" y1="200.0" x2="650" y2="200.0" class="grid"/>
<line x1="75" y1="200.0" x2="80" y2="200.0" class="tick"/>
<text x="70" y="129.99999999999997" text-anchor="end" class="text label">0.35</text>
<line x1="80" y1="124.99999999999997" x2="650" y2="124.99999999999997" class="grid"/>
<line x1="75" y1="124.99999999999997" x2="80" y2="124.99999999999997" class="tick"/>
<text x="70" y="55.0" text-anchor="end" class="text label">0.47</text>
<line x1="80" y1="50.0" x2="650" y2="50.0" class="grid"/>
<line x1="75" y1="50.0" x2="80" y2="50.0" class="tick"/>
<g transform="translate(80.0,370) rotate(45)"><text x="0" y="0" class="text label">6086975</text></g>
<line x1="80.0" y1="350" x2="80.0" y2="355" class="tick"/>
<g transform="translate(365.0,370) rotate(45)"><text x="0" y="0" class="text label">cb7cb9f</text></g>
<line x1="365.0" y1="350" x2="365.0" y2="355" class="tick"/>
<g transform="translate(650.0,370) rotate(45)"><text x="0" y="0" class="text label">current</text></g>
<line x1="650.0" y1="350" x2="650.0" y2="355" class="tick"/>
<line x1="80.0" y1="318.615388882697" x2="80.0" y2="303.9594050828054" stroke="var(--c0)" stroke-width="2"/>
<line x1="75.0" y1="318.615388882697" x2="85.0" y2="318.615388882697" stroke="var(--c0)" stroke-width="2"/>
<line x1="75.0" y1="303.9594050828054" x2="85.0" y2="303.9594050828054" stroke="var(--c0)" stroke-width="2"/>
<circle cx="80.0" cy="311.2873969827512" r="5" fill="var(--c0)"/>
<line x1="365.0" y1="324.5116991691114" x2="365.0" y2="301.6431687053497" stroke="var(--c0)" stroke-width="2"/>
<line x1="360.0" y1="324.5116991691114" x2="370.0" y2="324.5116991691114" stroke="var(--c0)" stroke-width="2"/>
<line x1="360.0" y1="301.6431687053497" x2="370.0" y2="301.6431687053497" stroke="var(--c0)" stroke-width="2"/>
<circle cx="365.0" cy="313.0774339372306" r="5" fill="var(--c0)"/>
<line x1="650.0" y1="324.5116991691114" x2="650.0" y2="301.6431687053497" stroke="var(--c0)" stroke-width="2"/>
<line x1="645.0" y1="324.5116991691114" x2="655.0" y2="324.5116991691114" stroke="var(--c0)" stroke-width="2"/>
<line x1="645.0" y1="301.6431687053497" x2="655.0" y2="301.6431687053497" stroke="var(--c0)" stroke-width="2"/>
<circle cx="650.0" cy="313.0774339372306" r="5" fill="var(--c0)"/>
<rect x="660" y="50" width="20" height="12" fill="var(--c0)"/>
<text x="690" y="61" class="text legend">free</text>
<line x1="80.0" y1="311.00261330005463" x2="80.0" y2="305.62719694380945" stroke="var(--c1)" stroke-width="2"/>
<line x1="75.0" y1="311.00261330005463" x2="85.0" y2="311.00261330005463" stroke="var(--c1)" stroke-width="2"/>
<line x1="75.0" y1="305.62719694380945" x2="85.0" y2="305.62719694380945" stroke="var(--c1)" stroke-width="2"/>
<circle cx="80.0" cy="308.31490512193204" r="5" fill="var(--c1)"/>
<line x1="365.0" y1="304.046843014459" x2="365.0" y2="269.403840586919" stroke="var(--c1)" stroke-width="2"/>
<line x1="360.0" y1="304.046843014459" x2="370.0" y2="304.046843014459" stroke="var(--c1)" stroke-width="2"/>
<line x1="360.0" y1="269.403840586919" x2="370.0" y2="269.403840586919" stroke="var(--c1)" stroke-width="2"/>
<circle cx="365.0" cy="286.725341800689" r="5" fill="var(--c1)"/>
<line x1="650.0" y1="304.046843014459" x2="650.0" y2="269.403840586919" stroke="var(--c1)" stroke-width="2"/>
<line x1="645.0" y1="304.046843014459" x2="655.0" y2="304.046843014459" stroke="var(--c1)" stroke-width="2"/>
<line x1="645.0" y1="269.403840586919" x2="655.0" y2="269.403840586919" stroke="var(--c1)" stroke-width="2"/>
<circle cx="650.0" cy="286.725341800689" r="5" fill="var(--c1)"/>
<rect x="660" y="75" width="20" height="12" fill="var(--c1)"/>
<text x="690" y="86" class="text legend">periodic</text>
<line x1="80.0" y1="332.3468663578931" x2="80.0" y2="77.27272727272731" stroke="var(--c2)" stroke-width="2"/>
<line x1="75.0" y1="332.3468663578931" x2="85.0" y2="332.3468663578931" stroke="var(--c2)" stroke-width="2"/>
<line x1="75.0" y1="77.27272727272731" x2="85.0" y2="77.27272727272731" stroke="var(--c2)" stroke-width="2"/>
<circle cx="80.0" cy="204.8097968153102" r="5" fill="var(--c2)"/>
<line x1="365.0" y1="337.99432811945456" x2="365.0" y2="294.1654572325242" stroke="var(--c2)" stroke-width="2"/>
<line x1="360.0" y1="337.99432811945456" x2="370.0" y2="337.99432811945456" stroke="var(--c2)" stroke-width="2"/>
<line x1="360.0" y1="294.1654572325242" x2="370.0" y2="294.1654572325242" stroke="var(--c2)" stroke-width="2"/>
<circle cx="365.0" cy="316.0798926759894" r="5" fill="var(--c2)"/>
<line x1="650.0" y1="337.99432811945456" x2="650.0" y2="294.1654572325242" stroke="var(--c2)" stroke-width="2"/>
<line x1="645.0" y1="337.99432811945456" x2="655.0" y2="337.99432811945456" stroke="var(--c2)" stroke-width="2"/>
<line x1="645.0" y1="294.1654572325242" x2="655.0" y2="294.1654572325242" stroke="var(--c2)" stroke-width="2"/>
<circle cx="650.0" cy="316.0798926759894" r="5" fill="var(--c2)"/>
<rect x="660" y="100" width="20" height="12" fill="var(--c2)"/>
<text x="690" y="111" class="text legend">reflect</text>
<line x1="80.0" y1="331.74820907805315" x2="80.0" y2="283.46691160997136" stroke="var(--c3)" stroke-width="2"/>
<line x1="75.0" y1="331.74820907805315" x2="85.0" y2="331.74820907805315" stroke="var(--c3)" stroke-width="2"/>
<line x1="75.0" y1="283.46691160997136" x2="85.0" y2="283.46691160997136" stroke="var(--c3)" stroke-width="2"/>
<circle cx="80.0" cy="307.60756034401226" r="5" fill="var(--c3)"/>
<line x1="365.0" y1="314.1577159653123" x2="365.0" y2="282.7303341201697" stroke="var(--c3)" stroke-width="2"/>
<line x1="360.0" y1="314.1577159653123" x2="370.0" y2="314.1577159653123" stroke="var(--c3)" stroke-width="2"/>
<line x1="360.0" y1="282.7303341201697" x2="370.0" y2="282.7303341201697" stroke="var(--c3)" stroke-width="2"/>
<circle cx="365.0" cy="298.44402504274103" r="5" fill="var(--c3)"/>
<line x1="650.0" y1="314.1577159653123" x2="650.0" y2="282.7303341201697" stroke="var(--c3)" stroke-width="2"/>
<line x1="645.0" y1="314.1577159653123" x2="655.0" y2="314.1577159653123" stroke="var(--c3)" stroke-width="2"/>
<line x1="645.0" y1="282.7303341201697" x2="655.0" y2="282.7303341201697" stroke="var(--c3)" stroke-width="2"/>
<circle cx="650.0" cy="298.44402504274103" r="5" fill="var(--c3)"/>
<rect x="660" y="125" width="20" height="12" fill="var(--c3)"/>
<text x="690" y="136" class="text legend">reflectsphere</text>
</svg>