<svg width="800" height="450" xmlns="http://www.w3.org/2000/svg">
<style>
  :root {
    --bg: #ffffff;
    --axis: #212121;
    --grid: #e0e0e0;
    --text: #212121;
    --c0: #007bff; --c1: #fd7e14; --c2: #28a745;
    --c3: #dc3545; --c4: #6f42c1; --c5: #17a2b8;
  }
  @media (prefers-color-scheme: dark) {
    :root {
      --bg: #292D35;
      --axis: #cdd2d5;
      --grid: #333b45;
      --text: #cdd2d5;
      --c0: #66b2ff; --c1: #ffb366; --c2: #71d18d;
      --c3: #ff8585; --c4: #b388ff; --c5: #7dd3fc;
    }
  }
  .text { fill: var(--text); font-family: -apple-system,BlinkMacSystemFont,Segoe UI,Helvetica,Arial,sans-serif; }
  .title { font-size: 20px; font-weight: bold; }
  .label { font-size: 14px; }
  .legend { font-size: 14px; }
  .axis { stroke: var(--axis); stroke-width: 2; }
  .grid { stroke: var(--grid); stroke-dasharray: 4,4; stroke-width: 1; }
  .tick { stroke: var(--axis); stroke-width: 2; }
</style>
<rect width="100%" height="100%" fill="var(--bg)"/>
<text x="400.0" y="25.0" text-anchor="middle" class="text title">compute_force in Collider (spheres on gpu - NVIDIA GeForce RTX 3050 Laptop GPU)</text>
<line x1="80" y1="50" x2="80" y2="350" class="axis"/>
<line x1="80" y1="350" x2="650" y2="350" class="axis"/>
<text x="70" y="355.0" text-anchor="end" class="text label">0.00</text>
<line x1="80" y1="350.0" x2="650" y2="350.0" class="grid"/>
<line x1="75" y1="350.0" x2="80" y2="350.0" class="tick"/>
<text x="70" y="280.0" text-anchor="end" class="text label">0.18</text>
<line x1="80" y1="275.0" x2="650" y2="275.0" class="grid"/>
<line x1="75" y1="275.0" x2="80" y2="275.0" class="tick"/>
<text x="70" y="205.0" text-anchor="end" class="text label">0.37</text>
<line x1="80" y1="200.0" x2="650" y2="200.0" class="grid"/>
<line x1="75" y1="200.0" x2="80" y2="200.0" class="tick"/>
<text x="70" y="130.0" text-anchor="end" class="text label">0.55</text>
<line x1="80" y1="125.0" x2="650" y2="125.0" class="grid"/>
<line x1="75" y1="125.0" x2="80" y2="125.0" class="tick"/>
<text x="70" y="55.0" text-anchor="end" class="text label">0.73</text>
<line x1="80" y1="50.0" x2="650" y2="50.0" class="grid"/>
<line x1="75" y1="50.0" x2="80" y2="50.0" class="tick"/>
<g transform="translate(80.0,370) rotate(45)"><text x="0" y="0" class="text label">0150957</text></g>
<line x1="80.0" y1="350" x2="80.0" y2="355" class="tick"/>
<g transform="translate(365.0,370) rotate(45)"><text x="0" y="0" class="text label">5345537</text></g>
<line x1="365.0" y1="350" x2="365.0" y2="355" class="tick"/>
<g transform="translate(650.0,370) rotate(45)"><text x="0" y="0" class="text label">current</text></g>
<line x1="650.0" y1="350" x2="650.0" y2="355" class="tick"/>
<line x1="80.0" y1="236.47894871885947" x2="80.0" y2="198.1207942150844" stroke="var(--c0)" stroke-width="2"/>
<line x1="75.0" y1="236.47894871885947" x2="85.0" y2="236.47894871885947" stroke="var(--c0)" stroke-width="2"/>
<line x1="75.0" y1="198.1207942150844" x2="85.0" y2="198.1207942150844" stroke="var(--c0)" stroke-width="2"/>
<circle cx="80.0" cy="217.29987146697195" r="5" fill="var(--c0)"/>
<line x1="365.0" y1="246.3412623611215" x2="365.0" y2="106.2236073006971" stroke="var(--c0)" stroke-width="2"/>
<line x1="360.0" y1="246.3412623611215" x2="370.0" y2="246.3412623611215" stroke="var(--c0)" stroke-width="2"/>
<line x1="360.0" y1="106.2236073006971" x2="370.0" y2="106.2236073006971" stroke="var(--c0)" stroke-width="2"/>
<circle cx="365.0" cy="176.2824348309093" r="5" fill="var(--c0)"/>
<line x1="650.0" y1="246.3412623611215" x2="650.0" y2="106.2236073006971" stroke="var(--c0)" stroke-width="2"/>
<line x1="645.0" y1="246.3412623611215" x2="655.0" y2="246.3412623611215" stroke="var(--c0)" stroke-width="2"/>
<line x1="645.0" y1="106.2236073006971" x2="655.0" y2="106.2236073006971" stroke="var(--c0)" stroke-width="2"/>
<circle cx="650.0" cy="176.2824348309093" r="5" fill="var(--c0)"/>
<rect x="660" y="50" width="20" height="12" fill="var(--c0)"/>
<text x="690" y="61" class="text legend">celllist</text>
<line x1="80.0" y1="239.2146705937373" x2="80.0" y2="221.89171690119267" stroke="var(--c1)" stroke-width="2"/>
<line x1="75.0" y1="239.2146705937373" x2="85.0" y2="239.2146705937373" stroke="var(--c1)" stroke-width="2"/>
<line x1="75.0" y1="221.89171690119267" x2="85.0" y2="221.89171690119267" stroke="var(--c1)" stroke-width="2"/>
<circle cx="80.0" cy="230.553193747465" r="5" fill="var(--c1)"/>
<line x1="365.0" y1="234.66824550848003" x2="365.0" y2="212.4519525492533" stroke="var(--c1)" stroke-width="2"/>
<line x1="360.0" y1="234.66824550848003" x2="370.0" y2="234.66824550848003" stroke="var(--c1)" stroke-width="2"/>
<line x1="360.0" y1="212.4519525492533" x2="370.0" y2="212.4519525492533" stroke="var(--c1)" stroke-width="2"/>
<circle cx="365.0" cy="223.56009902886666" r="5" fill="var(--c1)"/>
<line x1="650.0" y1="234.66824550848003" x2="650.0" y2="212.4519525492533" stroke="var(--c1)" stroke-width="2"/>
<line x1="645.0" y1="234.66824550848003" x2="655.0" y2="234.66824550848003" stroke="var(--c1)" stroke-width="2"/>
<line x1="645.0" y1="212.4519525492533" x2="655.0" y2="212.4519525492533" stroke="var(--c1)" stroke-width="2"/>
<circle cx="650.0" cy="223.56009902886666" r="5" fill="var(--c1)"/>
<rect x="660" y="75" width="20" height="12" fill="var(--c1)"/>
<text x="690" y="86" class="text legend">hertz</text>
<line x1="80.0" y1="284.6631968885821" x2="80.0" y2="256.01938538249647" stroke="var(--c2)" stroke-width="2"/>
<line x1="75.0" y1="284.6631968885821" x2="85.0" y2="284.6631968885821" stroke="var(--c2)" stroke-width="2"/>
<line x1="75.0" y1="256.01938538249647" x2="85.0" y2="256.01938538249647" stroke="var(--c2)" stroke-width="2"/>
<circle cx="80.0" cy="270.3412911355393" r="5" fill="var(--c2)"/>
<line x1="365.0" y1="281.72006539172025" x2="365.0" y2="254.1845038976852" stroke="var(--c2)" stroke-width="2"/>
<line x1="360.0" y1="281.72006539172025" x2="370.0" y2="281.72006539172025" stroke="var(--c2)" stroke-width="2"/>
<line x1="360.0" y1="254.1845038976852" x2="370.0" y2="254.1845038976852" stroke="var(--c2)" stroke-width="2"/>
<circle cx="365.0" cy="267.95228464470273" r="5" fill="var(--c2)"/>
<line x1="650.0" y1="281.72006539172025" x2="650.0" y2="254.1845038976852" stroke="var(--c2)" stroke-width="2"/>
<line x1="645.0" y1="281.72006539172025" x2="655.0" y2="281.72006539172025" stroke="var(--c2)" stroke-width="2"/>
<line x1="645.0" y1="254.1845038976852" x2="655.0" y2="254.1845038976852" stroke="var(--c2)" stroke-width="2"/>
<circle cx="650.0" cy="267.95228464470273" r="5" fill="var(--c2)"/>
<rect x="660" y="100" width="20" height="12" fill="var(--c2)"/>
<text x="690" y="111" class="text legend">naive</text>
<line x1="80.0" y1="156.90334133573717" x2="80.0" y2="89.12674619481362" stroke="var(--c3)" stroke-width="2"/>
<line x1="75.0" y1="156.90334133573717" x2="85.0" y2="156.90334133573717" stroke="var(--c3)" stroke-width="2"/>
<line x1="75.0" y1="89.12674619481362" x2="85.0" y2="89.12674619481362" stroke="var(--c3)" stroke-width="2"/>
<circle cx="80.0" cy="123.01504376527538" r="5" fill="var(--c3)"/>
<line x1="365.0" y1="153.81576279229475" x2="365.0" y2="77.27272727272731" stroke="var(--c3)" stroke-width="2"/>
<line x1="360.0" y1="153.81576279229475" x2="370.0" y2="153.81576279229475" stroke="var(--c3)" stroke-width="2"/>
<line x1="360.0" y1="77.27272727272731" x2="370.0" y2="77.27272727272731" stroke="var(--c3)" stroke-width="2"/>
<circle cx="365.0" cy="115.54424503251101" r="5" fill="var(--c3)"/>
<line x1="650.0" y1="153.81576279229475" x2="650.0" y2="77.27272727272731" stroke="var(--c3)" stroke-width="2"/>
<line x1="645.0" y1="153.81576279229475" x2="655.0" y2="153.81576279229475" stroke="var(--c3)" stroke-width="2"/>
<line x1="645.0" y1="77.27272727272731" x2="655.0" y2="77.27272727272731" stroke="var(--c3)" stroke-width="2"/>
<circle cx="650.0" cy="115.54424503251101" r="5" fill="var(--c3)"/>
<rect x="660" y="125" width="20" height="12" fill="var(--c3)"/>
<text x="690" y="136" class="text legend">neighborlist</text>
<line x1="80.0" y1="239.5644844741605" x2="80.0" y2="221.76998075033976" stroke="var(--c4)" stroke-width="2"/>
<line x1="75.0" y1="239.5644844741605" x2="85.0" y2="239.5644844741605" stroke="var(--c4)" stroke-width="2"/>
<line x1="75.0" y1="221.76998075033976" x2="85.0" y2="221.76998075033976" stroke="var(--c4)" stroke-width="2"/>
<circle cx="80.0" cy="230.66723261225013" r="5" fill="var(--c4)"/>
<line x1="365.0" y1="215.68403154781117" x2="365.0" y2="185.13034568391816" stroke="var(--c4)" stroke-width="2"/>
<line x1="360.0" y1="215.68403154781117" x2="370.0" y2="215.68403154781117" stroke="var(--c4)" stroke-width="2"/>
<line x1="360.0" y1="185.13034568391816" x2="370.0" y2="185.13034568391816" stroke="var(--c4)" stroke-width="2"/>
<circle cx="365.0" cy="200.40718861586464" r="5" fill="var(--c4)"/>
<line x1="650.0" y1="215.68403154781117" x2="650.0" y2="185.13034568391816" stroke="var(--c4)" stroke-width="2"/>
<line x1="645.0" y1="215.68403154781117" x2="655.0" y2="215.68403154781117" stroke="var(--c4)" stroke-width="2"/>
<line x1="645.0" y1="185.13034568391816" x2="655.0" y2="185.13034568391816" stroke="var(--c4)" stroke-width="2"/>
<circle cx="650.0" cy="200.40718861586464" r="5" fill="var(--c4)"/>
<rect x="660" y="150" width="20" height="12" fill="var(--c4)"/>
<text x="690" y="161" class="text legend">spring</text>
</svg>