<svg width="800" height="450" xmlns="http://www.w3.org/2000/svg">
<style>
  :root {
    --bg: #ffffff;
    --axis: #212121;
    --grid: #e0e0e0;
    --text: #212121;
    --c0: #007bff; --c1: #fd7e14; --c2: #28a745;
    --c3: #dc3545; --c4: #6f42c1; --c5: #17a2b8;
  }
  @media (prefers-color-scheme: dark) {
    :root {
      --bg: #292D35;
      --axis: #cdd2d5;
      --grid: #333b45;
      --text: #cdd2d5;
      --c0: #66b2ff; --c1: #ffb366; --c2: #71d18d;
      --c3: #ff8585; --c4: #b388ff; --c5: #7dd3fc;
    }
  }
  .text { fill: var(--text); font-family: -apple-system,BlinkMacSystemFont,Segoe UI,Helvetica,Arial,sans-serif; }
  .title { font-size: 20px; font-weight: bold; }
  .label { font-size: 14px; }
  .legend { font-size: 14px; }
  .axis { stroke: var(--axis); stroke-width: 2; }
  .grid { stroke: var(--grid); stroke-dasharray: 4,4; stroke-width: 1; }
  .tick { stroke: var(--axis); stroke-width: 2; }
</style>
<rect width="100%" height="100%" fill="var(--bg)"/>
<text x="400.0" y="25.0" text-anchor="middle" class="text title">Rotation Integrator - step_after_force in Integrator (spheres on gpu - NVIDIA GeForce RTX 5070 Ti Laptop GPU)</text>
<line x1="80" y1="50" x2="80" y2="350" class="axis"/>
<line x1="80" y1="350" x2="650" y2="350" class="axis"/>
<text x="70" y="355.0" text-anchor="end" class="text label">0.00</text>
<line x1="80" y1="350.0" x2="650" y2="350.0" class="grid"/>
<line x1="75" y1="350.0" x2="80" y2="350.0" class="tick"/>
<text x="70" y="280.0" text-anchor="end" class="text label">0.42</text>
<line x1="80" y1="275.0" x2="650" y2="275.0" class="grid"/>
<line x1="75" y1="275.0" x2="80" y2="275.0" class="tick"/>
<text x="70" y="205.0" text-anchor="end" class="text label">0.83</text>
<line x1="80" y1="200.0" x2="650" y2="200.0" class="grid"/>
<line x1="75" y1="200.0" x2="80" y2="200.0" class="tick"/>
<text x="70" y="129.99999999999997" text-anchor="end" class="text label">1.25</text>
<line x1="80" y1="124.99999999999997" x2="650" y2="124.99999999999997" class="grid"/>
<line x1="75" y1="124.99999999999997" x2="80" y2="124.99999999999997" class="tick"/>
<text x="70" y="55.0" text-anchor="end" class="text label">1.66</text>
<line x1="80" y1="50.0" x2="650" y2="50.0" class="grid"/>
<line x1="75" y1="50.0" x2="80" y2="50.0" class="tick"/>
<g transform="translate(80.0,370) rotate(45)"><text x="0" y="0" class="text label">6086975</text></g>
<line x1="80.0" y1="350" x2="80.0" y2="355" class="tick"/>
<g transform="translate(650.0,370) rotate(45)"><text x="0" y="0" class="text label">current</text></g>
<line x1="650.0" y1="350" x2="650.0" y2="355" class="tick"/>
<line x1="80.0" y1="237.52542276366745" x2="80.0" y2="188.1259828278244" stroke="var(--c0)" stroke-width="2"/>
<line x1="75.0" y1="237.52542276366745" x2="85.0" y2="237.52542276366745" stroke="var(--c0)" stroke-width="2"/>
<line x1="75.0" y1="188.1259828278244" x2="85.0" y2="188.1259828278244" stroke="var(--c0)" stroke-width="2"/>
<circle cx="80.0" cy="212.82570279574594" r="5" fill="var(--c0)"/>
<line x1="650.0" y1="237.52542276366745" x2="650.0" y2="188.1259828278244" stroke="var(--c0)" stroke-width="2"/>
<line x1="645.0" y1="237.52542276366745" x2="655.0" y2="237.52542276366745" stroke="var(--c0)" stroke-width="2"/>
<line x1="645.0" y1="188.1259828278244" x2="655.0" y2="188.1259828278244" stroke="var(--c0)" stroke-width="2"/>
<circle cx="650.0" cy="212.82570279574594" r="5" fill="var(--c0)"/>
<rect x="660" y="50" width="20" height="12" fill="var(--c0)"/>
<text x="690" y="61" class="text legend"></text>
<line x1="80.0" y1="184.35545660470024" x2="80.0" y2="77.27272727272731" stroke="var(--c1)" stroke-width="2"/>
<line x1="75.0" y1="184.35545660470024" x2="85.0" y2="184.35545660470024" stroke="var(--c1)" stroke-width="2"/>
<line x1="75.0" y1="77.27272727272731" x2="85.0" y2="77.27272727272731" stroke="var(--c1)" stroke-width="2"/>
<circle cx="80.0" cy="130.81409193871377" r="5" fill="var(--c1)"/>
<line x1="650.0" y1="192.04788918370758" x2="650.0" y2="128.93166078526409" stroke="var(--c1)" stroke-width="2"/>
<line x1="645.0" y1="192.04788918370758" x2="655.0" y2="192.04788918370758" stroke="var(--c1)" stroke-width="2"/>
<line x1="645.0" y1="128.93166078526409" x2="655.0" y2="128.93166078526409" stroke="var(--c1)" stroke-width="2"/>
<circle cx="650.0" cy="160.48977498448582" r="5" fill="var(--c1)"/>
<rect x="660" y="75" width="20" height="12" fill="var(--c1)"/>
<text x="690" y="86" class="text legend">rotationfire</text>
<line x1="80.0" y1="217.93127744889952" x2="80.0" y2="149.52236208036373" stroke="var(--c2)" stroke-width="2"/>
<line x1="75.0" y1="217.93127744889952" x2="85.0" y2="217.93127744889952" stroke="var(--c2)" stroke-width="2"/>
<line x1="75.0" y1="149.52236208036373" x2="85.0" y2="149.52236208036373" stroke="var(--c2)" stroke-width="2"/>
<circle cx="80.0" cy="183.7268197646316" r="5" fill="var(--c2)"/>
<line x1="650.0" y1="210.93090987197178" x2="650.0" y2="155.15923796931526" stroke="var(--c2)" stroke-width="2"/>
<line x1="645.0" y1="210.93090987197178" x2="655.0" y2="210.93090987197178" stroke="var(--c2)" stroke-width="2"/>
<line x1="645.0" y1="155.15923796931526" x2="655.0" y2="155.15923796931526" stroke="var(--c2)" stroke-width="2"/>
<circle cx="650.0" cy="183.04507392064352" r="5" fill="var(--c2)"/>
<rect x="660" y="100" width="20" height="12" fill="var(--c2)"/>
<text x="690" y="111" class="text legend">rotationgradientdescent</text>
<line x1="650.0" y1="149.62700060387155" x2="650.0" y2="95.38814355590961" stroke="var(--c3)" stroke-width="2"/>
<line x1="645.0" y1="149.62700060387155" x2="655.0" y2="149.62700060387155" stroke="var(--c3)" stroke-width="2"/>
<line x1="645.0" y1="95.38814355590961" x2="655.0" y2="95.38814355590961" stroke="var(--c3)" stroke-width="2"/>
<circle cx="650.0" cy="122.5075720798906" r="5" fill="var(--c3)"/>
<rect x="660" y="125" width="20" height="12" fill="var(--c3)"/>
<text x="690" y="136" class="text legend">spiral</text>
<line x1="80.0" y1="229.58452973102868" x2="80.0" y2="189.26932766571713" stroke="var(--c4)" stroke-width="2"/>
<line x1="75.0" y1="229.58452973102868" x2="85.0" y2="229.58452973102868" stroke="var(--c4)" stroke-width="2"/>
<line x1="75.0" y1="189.26932766571713" x2="85.0" y2="189.26932766571713" stroke="var(--c4)" stroke-width="2"/>
<circle cx="80.0" cy="209.4269286983729" r="5" fill="var(--c4)"/>
<line x1="650.0" y1="219.13765084533182" x2="650.0" y2="173.67859254164077" stroke="var(--c4)" stroke-width="2"/>
<line x1="645.0" y1="219.13765084533182" x2="655.0" y2="219.13765084533182" stroke="var(--c4)" stroke-width="2"/>
<line x1="645.0" y1="173.67859254164077" x2="655.0" y2="173.67859254164077" stroke="var(--c4)" stroke-width="2"/>
<circle cx="650.0" cy="196.4081216934863" r="5" fill="var(--c4)"/>
<rect x="660" y="150" width="20" height="12" fill="var(--c4)"/>
<text x="690" y="161" class="text legend">verletspiral</text>
</svg>