<svg width="800" height="450" xmlns="http://www.w3.org/2000/svg">
<style>
  :root {
    --bg: #ffffff;
    --axis: #212121;
    --grid: #e0e0e0;
    --text: #212121;
    --c0: #007bff; --c1: #fd7e14; --c2: #28a745;
    --c3: #dc3545; --c4: #6f42c1; --c5: #17a2b8;
  }
  @media (prefers-color-scheme: dark) {
    :root {
      --bg: #292D35;
      --axis: #cdd2d5;
      --grid: #333b45;
      --text: #cdd2d5;
      --c0: #66b2ff; --c1: #ffb366; --c2: #71d18d;
      --c3: #ff8585; --c4: #b388ff; --c5: #7dd3fc;
    }
  }
  .text { fill: var(--text); font-family: -apple-system,BlinkMacSystemFont,Segoe UI,Helvetica,Arial,sans-serif; }
  .title { font-size: 20px; font-weight: bold; }
  .label { font-size: 14px; }
  .legend { font-size: 14px; }
  .axis { stroke: var(--axis); stroke-width: 2; }
  .grid { stroke: var(--grid); stroke-dasharray: 4,4; stroke-width: 1; }
  .tick { stroke: var(--axis); stroke-width: 2; }
</style>
<rect width="100%" height="100%" fill="var(--bg)"/>
<text x="400.0" y="25.0" text-anchor="middle" class="text title">Linear Integrator - step_after_force in Integrator (spheres on gpu - NVIDIA GeForce RTX 5070 Ti Laptop GPU)</text>
<line x1="80" y1="50" x2="80" y2="350" class="axis"/>
<line x1="80" y1="350" x2="650" y2="350" class="axis"/>
<text x="70" y="355.0" text-anchor="end" class="text label">0.00</text>
<line x1="80" y1="350.0" x2="650" y2="350.0" class="grid"/>
<line x1="75" y1="350.0" x2="80" y2="350.0" class="tick"/>
<text x="70" y="280.0" text-anchor="end" class="text label">0.52</text>
<line x1="80" y1="275.0" x2="650" y2="275.0" class="grid"/>
<line x1="75" y1="275.0" x2="80" y2="275.0" class="tick"/>
<text x="70" y="205.0" text-anchor="end" class="text label">1.04</text>
<line x1="80" y1="200.0" x2="650" y2="200.0" class="grid"/>
<line x1="75" y1="200.0" x2="80" y2="200.0" class="tick"/>
<text x="70" y="130.0" text-anchor="end" class="text label">1.56</text>
<line x1="80" y1="125.0" x2="650" y2="125.0" class="grid"/>
<line x1="75" y1="125.0" x2="80" y2="125.0" class="tick"/>
<text x="70" y="55.0" text-anchor="end" class="text label">2.08</text>
<line x1="80" y1="50.0" x2="650" y2="50.0" class="grid"/>
<line x1="75" y1="50.0" x2="80" y2="50.0" class="tick"/>
<g transform="translate(80.0,370) rotate(45)"><text x="0" y="0" class="text label">6086975</text></g>
<line x1="80.0" y1="350" x2="80.0" y2="355" class="tick"/>
<g transform="translate(365.0,370) rotate(45)"><text x="0" y="0" class="text label">cb7cb9f</text></g>
<line x1="365.0" y1="350" x2="365.0" y2="355" class="tick"/>
<g transform="translate(650.0,370) rotate(45)"><text x="0" y="0" class="text label">current</text></g>
<line x1="650.0" y1="350" x2="650.0" y2="355" class="tick"/>
<line x1="80.0" y1="271.65805328851155" x2="80.0" y2="222.37599350926402" stroke="var(--c0)" stroke-width="2"/>
<line x1="75.0" y1="271.65805328851155" x2="85.0" y2="271.65805328851155" stroke="var(--c0)" stroke-width="2"/>
<line x1="75.0" y1="222.37599350926402" x2="85.0" y2="222.37599350926402" stroke="var(--c0)" stroke-width="2"/>
<circle cx="80.0" cy="247.01702339888777" r="5" fill="var(--c0)"/>
<line x1="365.0" y1="275.27465875373434" x2="365.0" y2="245.71952499075184" stroke="var(--c0)" stroke-width="2"/>
<line x1="360.0" y1="275.27465875373434" x2="370.0" y2="275.27465875373434" stroke="var(--c0)" stroke-width="2"/>
<line x1="360.0" y1="245.71952499075184" x2="370.0" y2="245.71952499075184" stroke="var(--c0)" stroke-width="2"/>
<circle cx="365.0" cy="260.4970918722431" r="5" fill="var(--c0)"/>
<line x1="650.0" y1="275.27465875373434" x2="650.0" y2="245.71952499075184" stroke="var(--c0)" stroke-width="2"/>
<line x1="645.0" y1="275.27465875373434" x2="655.0" y2="275.27465875373434" stroke="var(--c0)" stroke-width="2"/>
<line x1="645.0" y1="245.71952499075184" x2="655.0" y2="245.71952499075184" stroke="var(--c0)" stroke-width="2"/>
<circle cx="650.0" cy="260.4970918722431" r="5" fill="var(--c0)"/>
<rect x="660" y="50" width="20" height="12" fill="var(--c0)"/>
<text x="690" y="61" class="text legend">euler</text>
<line x1="80.0" y1="270.90149176767454" x2="80.0" y2="238.25498617513472" stroke="var(--c1)" stroke-width="2"/>
<line x1="75.0" y1="270.90149176767454" x2="85.0" y2="270.90149176767454" stroke="var(--c1)" stroke-width="2"/>
<line x1="75.0" y1="238.25498617513472" x2="85.0" y2="238.25498617513472" stroke="var(--c1)" stroke-width="2"/>
<circle cx="80.0" cy="254.57823897140463" r="5" fill="var(--c1)"/>
<line x1="365.0" y1="285.842608199392" x2="365.0" y2="259.4673374453396" stroke="var(--c1)" stroke-width="2"/>
<line x1="360.0" y1="285.842608199392" x2="370.0" y2="285.842608199392" stroke="var(--c1)" stroke-width="2"/>
<line x1="360.0" y1="259.4673374453396" x2="370.0" y2="259.4673374453396" stroke="var(--c1)" stroke-width="2"/>
<circle cx="365.0" cy="272.6549728223658" r="5" fill="var(--c1)"/>
<line x1="650.0" y1="285.842608199392" x2="650.0" y2="259.4673374453396" stroke="var(--c1)" stroke-width="2"/>
<line x1="645.0" y1="285.842608199392" x2="655.0" y2="285.842608199392" stroke="var(--c1)" stroke-width="2"/>
<line x1="645.0" y1="259.4673374453396" x2="655.0" y2="259.4673374453396" stroke="var(--c1)" stroke-width="2"/>
<circle cx="650.0" cy="272.6549728223658" r="5" fill="var(--c1)"/>
<rect x="660" y="75" width="20" height="12" fill="var(--c1)"/>
<text x="690" y="86" class="text legend">langevin</text>
<line x1="80.0" y1="193.56507552928392" x2="80.0" y2="77.27272727272731" stroke="var(--c2)" stroke-width="2"/>
<line x1="75.0" y1="193.56507552928392" x2="85.0" y2="193.56507552928392" stroke="var(--c2)" stroke-width="2"/>
<line x1="75.0" y1="77.27272727272731" x2="85.0" y2="77.27272727272731" stroke="var(--c2)" stroke-width="2"/>
<circle cx="80.0" cy="135.4189014010056" r="5" fill="var(--c2)"/>
<line x1="365.0" y1="258.85010801676475" x2="365.0" y2="214.6668532729497" stroke="var(--c2)" stroke-width="2"/>
<line x1="360.0" y1="258.85010801676475" x2="370.0" y2="258.85010801676475" stroke="var(--c2)" stroke-width="2"/>
<line x1="360.0" y1="214.6668532729497" x2="370.0" y2="214.6668532729497" stroke="var(--c2)" stroke-width="2"/>
<circle cx="365.0" cy="236.75848064485723" r="5" fill="var(--c2)"/>
<line x1="650.0" y1="258.85010801676475" x2="650.0" y2="214.6668532729497" stroke="var(--c2)" stroke-width="2"/>
<line x1="645.0" y1="258.85010801676475" x2="655.0" y2="258.85010801676475" stroke="var(--c2)" stroke-width="2"/>
<line x1="645.0" y1="214.6668532729497" x2="655.0" y2="214.6668532729497" stroke="var(--c2)" stroke-width="2"/>
<circle cx="650.0" cy="236.75848064485723" r="5" fill="var(--c2)"/>
<rect x="660" y="100" width="20" height="12" fill="var(--c2)"/>
<text x="690" y="111" class="text legend">linearfire</text>
<line x1="80.0" y1="268.8888940613286" x2="80.0" y2="229.27699169547714" stroke="var(--c3)" stroke-width="2"/>
<line x1="75.0" y1="268.8888940613286" x2="85.0" y2="268.8888940613286" stroke="var(--c3)" stroke-width="2"/>
<line x1="75.0" y1="229.27699169547714" x2="85.0" y2="229.27699169547714" stroke="var(--c3)" stroke-width="2"/>
<circle cx="80.0" cy="249.0829428784029" r="5" fill="var(--c3)"/>
<line x1="365.0" y1="275.5727301127715" x2="365.0" y2="245.56893146459214" stroke="var(--c3)" stroke-width="2"/>
<line x1="360.0" y1="275.5727301127715" x2="370.0" y2="275.5727301127715" stroke="var(--c3)" stroke-width="2"/>
<line x1="360.0" y1="245.56893146459214" x2="370.0" y2="245.56893146459214" stroke="var(--c3)" stroke-width="2"/>
<circle cx="365.0" cy="260.5708307886818" r="5" fill="var(--c3)"/>
<line x1="650.0" y1="275.5727301127715" x2="650.0" y2="245.56893146459214" stroke="var(--c3)" stroke-width="2"/>
<line x1="645.0" y1="275.5727301127715" x2="655.0" y2="275.5727301127715" stroke="var(--c3)" stroke-width="2"/>
<line x1="645.0" y1="245.56893146459214" x2="655.0" y2="245.56893146459214" stroke="var(--c3)" stroke-width="2"/>
<circle cx="650.0" cy="260.5708307886818" r="5" fill="var(--c3)"/>
<rect x="660" y="125" width="20" height="12" fill="var(--c3)"/>
<text x="690" y="136" class="text legend">lineargradientdescent</text>
<line x1="80.0" y1="197.96907649731617" x2="80.0" y2="136.49331976603656" stroke="var(--c4)" stroke-width="2"/>
<line x1="75.0" y1="197.96907649731617" x2="85.0" y2="197.96907649731617" stroke="var(--c4)" stroke-width="2"/>
<line x1="75.0" y1="136.49331976603656" x2="85.0" y2="136.49331976603656" stroke="var(--c4)" stroke-width="2"/>
<circle cx="80.0" cy="167.23119813167636" r="5" fill="var(--c4)"/>
<line x1="365.0" y1="192.37968573664403" x2="365.0" y2="142.1242846835794" stroke="var(--c4)" stroke-width="2"/>
<line x1="360.0" y1="192.37968573664403" x2="370.0" y2="192.37968573664403" stroke="var(--c4)" stroke-width="2"/>
<line x1="360.0" y1="142.1242846835794" x2="370.0" y2="142.1242846835794" stroke="var(--c4)" stroke-width="2"/>
<circle cx="365.0" cy="167.2519852101117" r="5" fill="var(--c4)"/>
<line x1="650.0" y1="192.37968573664403" x2="650.0" y2="142.1242846835794" stroke="var(--c4)" stroke-width="2"/>
<line x1="645.0" y1="192.37968573664403" x2="655.0" y2="192.37968573664403" stroke="var(--c4)" stroke-width="2"/>
<line x1="645.0" y1="142.1242846835794" x2="655.0" y2="142.1242846835794" stroke="var(--c4)" stroke-width="2"/>
<circle cx="650.0" cy="167.2519852101117" r="5" fill="var(--c4)"/>
<rect x="660" y="150" width="20" height="12" fill="var(--c4)"/>
<text x="690" y="161" class="text legend">optax</text>
<line x1="80.0" y1="249.7680078828669" x2="80.0" y2="191.78388523699243" stroke="var(--c5)" stroke-width="2"/>
<line x1="75.0" y1="249.7680078828669" x2="85.0" y2="249.7680078828669" stroke="var(--c5)" stroke-width="2"/>
<line x1="75.0" y1="191.78388523699243" x2="85.0" y2="191.78388523699243" stroke="var(--c5)" stroke-width="2"/>
<circle cx="80.0" cy="220.77594655992965" r="5" fill="var(--c5)"/>
<line x1="365.0" y1="260.389894059443" x2="365.0" y2="217.2419056392133" stroke="var(--c5)" stroke-width="2"/>
<line x1="360.0" y1="260.389894059443" x2="370.0" y2="260.389894059443" stroke="var(--c5)" stroke-width="2"/>
<line x1="360.0" y1="217.2419056392133" x2="370.0" y2="217.2419056392133" stroke="var(--c5)" stroke-width="2"/>
<circle cx="365.0" cy="238.81589984932813" r="5" fill="var(--c5)"/>
<line x1="650.0" y1="260.389894059443" x2="650.0" y2="217.2419056392133" stroke="var(--c5)" stroke-width="2"/>
<line x1="645.0" y1="260.389894059443" x2="655.0" y2="260.389894059443" stroke="var(--c5)" stroke-width="2"/>
<line x1="645.0" y1="217.2419056392133" x2="655.0" y2="217.2419056392133" stroke="var(--c5)" stroke-width="2"/>
<circle cx="650.0" cy="238.81589984932813" r="5" fill="var(--c5)"/>
<rect x="660" y="175" width="20" height="12" fill="var(--c5)"/>
<text x="690" y="186" class="text legend">verlet</text>
<line x1="80.0" y1="225.3914066089584" x2="80.0" y2="168.95480820805315" stroke="var(--c0)" stroke-width="2"/>
<line x1="75.0" y1="225.3914066089584" x2="85.0" y2="225.3914066089584" stroke="var(--c0)" stroke-width="2"/>
<line x1="75.0" y1="168.95480820805315" x2="85.0" y2="168.95480820805315" stroke="var(--c0)" stroke-width="2"/>
<circle cx="80.0" cy="197.17310740850576" r="5" fill="var(--c0)"/>
<line x1="365.0" y1="253.0509018602275" x2="365.0" y2="240.12464309958443" stroke="var(--c0)" stroke-width="2"/>
<line x1="360.0" y1="253.0509018602275" x2="370.0" y2="253.0509018602275" stroke="var(--c0)" stroke-width="2"/>
<line x1="360.0" y1="240.12464309958443" x2="370.0" y2="240.12464309958443" stroke="var(--c0)" stroke-width="2"/>
<circle cx="365.0" cy="246.58777247990594" r="5" fill="var(--c0)"/>
<line x1="650.0" y1="253.0509018602275" x2="650.0" y2="240.12464309958443" stroke="var(--c0)" stroke-width="2"/>
<line x1="645.0" y1="253.0509018602275" x2="655.0" y2="253.0509018602275" stroke="var(--c0)" stroke-width="2"/>
<line x1="645.0" y1="240.12464309958443" x2="655.0" y2="240.12464309958443" stroke="var(--c0)" stroke-width="2"/>
<circle cx="650.0" cy="246.58777247990594" r="5" fill="var(--c0)"/>
<rect x="660" y="200" width="20" height="12" fill="var(--c0)"/>
<text x="690" y="211" class="text legend">verlet_rescaling</text>
</svg>