<svg width="800" height="450" xmlns="http://www.w3.org/2000/svg">
<style>
  :root {
    --bg: #ffffff;
    --axis: #212121;
    --grid: #e0e0e0;
    --text: #212121;
    --c0: #007bff; --c1: #fd7e14; --c2: #28a745;
    --c3: #dc3545; --c4: #6f42c1; --c5: #17a2b8;
  }
  @media (prefers-color-scheme: dark) {
    :root {
      --bg: #292D35;
      --axis: #cdd2d5;
      --grid: #333b45;
      --text: #cdd2d5;
      --c0: #66b2ff; --c1: #ffb366; --c2: #71d18d;
      --c3: #ff8585; --c4: #b388ff; --c5: #7dd3fc;
    }
  }
  .text { fill: var(--text); font-family: -apple-system,BlinkMacSystemFont,Segoe UI,Helvetica,Arial,sans-serif; }
  .title { font-size: 20px; font-weight: bold; }
  .label { font-size: 14px; }
  .legend { font-size: 14px; }
  .axis { stroke: var(--axis); stroke-width: 2; }
  .grid { stroke: var(--grid); stroke-dasharray: 4,4; stroke-width: 1; }
  .tick { stroke: var(--axis); stroke-width: 2; }
</style>
<rect width="100%" height="100%" fill="var(--bg)"/>
<text x="400.0" y="25.0" text-anchor="middle" class="text title">create_neighbor_list in Collider (spheres on gpu - NVIDIA GeForce RTX 3050 Laptop GPU)</text>
<line x1="80" y1="50" x2="80" y2="350" class="axis"/>
<line x1="80" y1="350" x2="650" y2="350" class="axis"/>
<text x="70" y="355.0" text-anchor="end" class="text label">0.00</text>
<line x1="80" y1="350.0" x2="650" y2="350.0" class="grid"/>
<line x1="75" y1="350.0" x2="80" y2="350.0" class="tick"/>
<text x="70" y="280.0" text-anchor="end" class="text label">86.39</text>
<line x1="80" y1="275.0" x2="650" y2="275.0" class="grid"/>
<line x1="75" y1="275.0" x2="80" y2="275.0" class="tick"/>
<text x="70" y="205.0" text-anchor="end" class="text label">172.77</text>
<line x1="80" y1="200.0" x2="650" y2="200.0" class="grid"/>
<line x1="75" y1="200.0" x2="80" y2="200.0" class="tick"/>
<text x="70" y="129.99999999999997" text-anchor="end" class="text label">259.16</text>
<line x1="80" y1="124.99999999999997" x2="650" y2="124.99999999999997" class="grid"/>
<line x1="75" y1="124.99999999999997" x2="80" y2="124.99999999999997" class="tick"/>
<text x="70" y="55.0" text-anchor="end" class="text label">345.54</text>
<line x1="80" y1="50.0" x2="650" y2="50.0" class="grid"/>
<line x1="75" y1="50.0" x2="80" y2="50.0" class="tick"/>
<g transform="translate(80.0,370) rotate(45)"><text x="0" y="0" class="text label">01c54b2</text></g>
<line x1="80.0" y1="350" x2="80.0" y2="355" class="tick"/>
<g transform="translate(650.0,370) rotate(45)"><text x="0" y="0" class="text label">current</text></g>
<line x1="650.0" y1="350" x2="650.0" y2="355" class="tick"/>
<line x1="80.0" y1="346.2464754540491" x2="80.0" y2="346.09858316076884" stroke="var(--c0)" stroke-width="2"/>
<line x1="75.0" y1="346.2464754540491" x2="85.0" y2="346.2464754540491" stroke="var(--c0)" stroke-width="2"/>
<line x1="75.0" y1="346.09858316076884" x2="85.0" y2="346.09858316076884" stroke="var(--c0)" stroke-width="2"/>
<circle cx="80.0" cy="346.172529307409" r="5" fill="var(--c0)"/>
<line x1="650.0" y1="148.1877213782829" x2="650.0" y2="147.6003229710766" stroke="var(--c0)" stroke-width="2"/>
<line x1="645.0" y1="148.1877213782829" x2="655.0" y2="148.1877213782829" stroke="var(--c0)" stroke-width="2"/>
<line x1="645.0" y1="147.6003229710766" x2="655.0" y2="147.6003229710766" stroke="var(--c0)" stroke-width="2"/>
<circle cx="650.0" cy="147.89402217467978" r="5" fill="var(--c0)"/>
<rect x="660" y="50" width="20" height="12" fill="var(--c0)"/>
<text x="690" y="61" class="text legend">celllist</text>
<line x1="80.0" y1="347.59472031103496" x2="80.0" y2="347.3710237045298" stroke="var(--c1)" stroke-width="2"/>
<line x1="75.0" y1="347.59472031103496" x2="85.0" y2="347.59472031103496" stroke="var(--c1)" stroke-width="2"/>
<line x1="75.0" y1="347.3710237045298" x2="85.0" y2="347.3710237045298" stroke="var(--c1)" stroke-width="2"/>
<circle cx="80.0" cy="347.48287200778236" r="5" fill="var(--c1)"/>
<line x1="650.0" y1="77.7683024171896" x2="650.0" y2="77.27272727272731" stroke="var(--c1)" stroke-width="2"/>
<line x1="645.0" y1="77.7683024171896" x2="655.0" y2="77.7683024171896" stroke="var(--c1)" stroke-width="2"/>
<line x1="645.0" y1="77.27272727272731" x2="655.0" y2="77.27272727272731" stroke="var(--c1)" stroke-width="2"/>
<circle cx="650.0" cy="77.52051484495848" r="5" fill="var(--c1)"/>
<rect x="660" y="75" width="20" height="12" fill="var(--c1)"/>
<text x="690" y="86" class="text legend">naive</text>
<line x1="80.0" y1="347.7670509030059" x2="80.0" y2="347.7141634956678" stroke="var(--c2)" stroke-width="2"/>
<line x1="75.0" y1="347.7670509030059" x2="85.0" y2="347.7670509030059" stroke="var(--c2)" stroke-width="2"/>
<line x1="75.0" y1="347.7141634956678" x2="85.0" y2="347.7141634956678" stroke="var(--c2)" stroke-width="2"/>
<circle cx="80.0" cy="347.7406071993368" r="5" fill="var(--c2)"/>
<line x1="650.0" y1="347.645483421932" x2="650.0" y2="347.54238008857993" stroke="var(--c2)" stroke-width="2"/>
<line x1="645.0" y1="347.645483421932" x2="655.0" y2="347.645483421932" stroke="var(--c2)" stroke-width="2"/>
<line x1="645.0" y1="347.54238008857993" x2="655.0" y2="347.54238008857993" stroke="var(--c2)" stroke-width="2"/>
<circle cx="650.0" cy="347.59393175525594" r="5" fill="var(--c2)"/>
<rect x="660" y="100" width="20" height="12" fill="var(--c2)"/>
<text x="690" y="111" class="text legend">neighborlist</text>
</svg>