<svg width="800" height="450" xmlns="http://www.w3.org/2000/svg">
<style>
  :root {
    --bg: #ffffff;
    --axis: #212121;
    --grid: #e0e0e0;
    --text: #212121;
    --c0: #007bff; --c1: #fd7e14; --c2: #28a745;
    --c3: #dc3545; --c4: #6f42c1; --c5: #17a2b8;
  }
  @media (prefers-color-scheme: dark) {
    :root {
      --bg: #292D35;
      --axis: #cdd2d5;
      --grid: #333b45;
      --text: #cdd2d5;
      --c0: #66b2ff; --c1: #ffb366; --c2: #71d18d;
      --c3: #ff8585; --c4: #b388ff; --c5: #7dd3fc;
    }
  }
  .text { fill: var(--text); font-family: -apple-system,BlinkMacSystemFont,Segoe UI,Helvetica,Arial,sans-serif; }
  .title { font-size: 20px; font-weight: bold; }
  .label { font-size: 14px; }
  .legend { font-size: 14px; }
  .axis { stroke: var(--axis); stroke-width: 2; }
  .grid { stroke: var(--grid); stroke-dasharray: 4,4; stroke-width: 1; }
  .tick { stroke: var(--axis); stroke-width: 2; }
</style>
<rect width="100%" height="100%" fill="var(--bg)"/>
<text x="400.0" y="25.0" text-anchor="middle" class="text title">compute_force in Collider (spheres on gpu - NVIDIA GeForce RTX 3050 Laptop GPU)</text>
<line x1="80" y1="50" x2="80" y2="350" class="axis"/>
<line x1="80" y1="350" x2="650" y2="350" class="axis"/>
<text x="70" y="355.0" text-anchor="end" class="text label">0.00</text>
<line x1="80" y1="350.0" x2="650" y2="350.0" class="grid"/>
<line x1="75" y1="350.0" x2="80" y2="350.0" class="tick"/>
<text x="70" y="280.0" text-anchor="end" class="text label">466.68</text>
<line x1="80" y1="275.0" x2="650" y2="275.0" class="grid"/>
<line x1="75" y1="275.0" x2="80" y2="275.0" class="tick"/>
<text x="70" y="205.0" text-anchor="end" class="text label">933.37</text>
<line x1="80" y1="200.0" x2="650" y2="200.0" class="grid"/>
<line x1="75" y1="200.0" x2="80" y2="200.0" class="tick"/>
<text x="70" y="130.0" text-anchor="end" class="text label">1400.05</text>
<line x1="80" y1="125.0" x2="650" y2="125.0" class="grid"/>
<line x1="75" y1="125.0" x2="80" y2="125.0" class="tick"/>
<text x="70" y="55.0" text-anchor="end" class="text label">1866.74</text>
<line x1="80" y1="50.0" x2="650" y2="50.0" class="grid"/>
<line x1="75" y1="50.0" x2="80" y2="50.0" class="tick"/>
<g transform="translate(80.0,370) rotate(45)"><text x="0" y="0" class="text label">01c54b2</text></g>
<line x1="80.0" y1="350" x2="80.0" y2="355" class="tick"/>
<g transform="translate(650.0,370) rotate(45)"><text x="0" y="0" class="text label">current</text></g>
<line x1="650.0" y1="350" x2="650.0" y2="355" class="tick"/>
<line x1="80.0" y1="349.53042140977703" x2="80.0" y2="349.5147203570697" stroke="var(--c0)" stroke-width="2"/>
<line x1="75.0" y1="349.53042140977703" x2="85.0" y2="349.53042140977703" stroke="var(--c0)" stroke-width="2"/>
<line x1="75.0" y1="349.5147203570697" x2="85.0" y2="349.5147203570697" stroke="var(--c0)" stroke-width="2"/>
<circle cx="80.0" cy="349.5225708834233" r="5" fill="var(--c0)"/>
<line x1="650.0" y1="346.63671226900647" x2="650.0" y2="346.3693842885385" stroke="var(--c0)" stroke-width="2"/>
<line x1="645.0" y1="346.63671226900647" x2="655.0" y2="346.63671226900647" stroke="var(--c0)" stroke-width="2"/>
<line x1="645.0" y1="346.3693842885385" x2="655.0" y2="346.3693842885385" stroke="var(--c0)" stroke-width="2"/>
<circle cx="650.0" cy="346.5030482787725" r="5" fill="var(--c0)"/>
<rect x="660" y="50" width="20" height="12" fill="var(--c0)"/>
<text x="690" y="61" class="text legend">celllist</text>
<line x1="80.0" y1="349.5292168700887" x2="80.0" y2="349.5082990078208" stroke="var(--c1)" stroke-width="2"/>
<line x1="75.0" y1="349.5292168700887" x2="85.0" y2="349.5292168700887" stroke="var(--c1)" stroke-width="2"/>
<line x1="75.0" y1="349.5082990078208" x2="85.0" y2="349.5082990078208" stroke="var(--c1)" stroke-width="2"/>
<circle cx="80.0" cy="349.51875793895476" r="5" fill="var(--c1)"/>
<line x1="650.0" y1="81.30668515067418" x2="650.0" y2="77.27272727272731" stroke="var(--c1)" stroke-width="2"/>
<line x1="645.0" y1="81.30668515067418" x2="655.0" y2="81.30668515067418" stroke="var(--c1)" stroke-width="2"/>
<line x1="645.0" y1="77.27272727272731" x2="655.0" y2="77.27272727272731" stroke="var(--c1)" stroke-width="2"/>
<circle cx="650.0" cy="79.28970621170077" r="5" fill="var(--c1)"/>
<rect x="660" y="75" width="20" height="12" fill="var(--c1)"/>
<text x="690" y="86" class="text legend">hertz</text>
<line x1="80.0" y1="349.6457754030843" x2="80.0" y2="349.63287526478223" stroke="var(--c2)" stroke-width="2"/>
<line x1="75.0" y1="349.6457754030843" x2="85.0" y2="349.6457754030843" stroke="var(--c2)" stroke-width="2"/>
<line x1="75.0" y1="349.63287526478223" x2="85.0" y2="349.63287526478223" stroke="var(--c2)" stroke-width="2"/>
<circle cx="80.0" cy="349.6393253339333" r="5" fill="var(--c2)"/>
<line x1="650.0" y1="339.4369310573624" x2="650.0" y2="339.1295280821694" stroke="var(--c2)" stroke-width="2"/>
<line x1="645.0" y1="339.4369310573624" x2="655.0" y2="339.4369310573624" stroke="var(--c2)" stroke-width="2"/>
<line x1="645.0" y1="339.1295280821694" x2="655.0" y2="339.1295280821694" stroke="var(--c2)" stroke-width="2"/>
<circle cx="650.0" cy="339.2832295697659" r="5" fill="var(--c2)"/>
<rect x="660" y="100" width="20" height="12" fill="var(--c2)"/>
<text x="690" y="111" class="text legend">naive</text>
<line x1="80.0" y1="349.16300993725486" x2="80.0" y2="349.1426372349713" stroke="var(--c3)" stroke-width="2"/>
<line x1="75.0" y1="349.16300993725486" x2="85.0" y2="349.16300993725486" stroke="var(--c3)" stroke-width="2"/>
<line x1="75.0" y1="349.1426372349713" x2="85.0" y2="349.1426372349713" stroke="var(--c3)" stroke-width="2"/>
<circle cx="80.0" cy="349.1528235861131" r="5" fill="var(--c3)"/>
<line x1="650.0" y1="279.2413189292206" x2="650.0" y2="279.102346375235" stroke="var(--c3)" stroke-width="2"/>
<line x1="645.0" y1="279.2413189292206" x2="655.0" y2="279.2413189292206" stroke="var(--c3)" stroke-width="2"/>
<line x1="645.0" y1="279.102346375235" x2="655.0" y2="279.102346375235" stroke="var(--c3)" stroke-width="2"/>
<circle cx="650.0" cy="279.1718326522278" r="5" fill="var(--c3)"/>
<rect x="660" y="125" width="20" height="12" fill="var(--c3)"/>
<text x="690" y="136" class="text legend">neighborlist</text>
<line x1="80.0" y1="349.52006478478387" x2="80.0" y2="349.5140220966085" stroke="var(--c4)" stroke-width="2"/>
<line x1="75.0" y1="349.52006478478387" x2="85.0" y2="349.52006478478387" stroke="var(--c4)" stroke-width="2"/>
<line x1="75.0" y1="349.5140220966085" x2="85.0" y2="349.5140220966085" stroke="var(--c4)" stroke-width="2"/>
<circle cx="80.0" cy="349.51704344069617" r="5" fill="var(--c4)"/>
<line x1="650.0" y1="83.22404134035753" x2="650.0" y2="80.04475485803772" stroke="var(--c4)" stroke-width="2"/>
<line x1="645.0" y1="83.22404134035753" x2="655.0" y2="83.22404134035753" stroke="var(--c4)" stroke-width="2"/>
<line x1="645.0" y1="80.04475485803772" x2="655.0" y2="80.04475485803772" stroke="var(--c4)" stroke-width="2"/>
<circle cx="650.0" cy="81.6343980991976" r="5" fill="var(--c4)"/>
<rect x="660" y="150" width="20" height="12" fill="var(--c4)"/>
<text x="690" y="161" class="text legend">spring</text>
</svg>